<svg id="Camada_1" data-name="Camada 1" xmlns="http://www.w3.org/2000/svg" viewBox="0 0 763.55 716.22"><defs><style>.cls-1{fill:#5b221d;}.cls-2{fill:#bea5bf;}.cls-3{fill:#353e61;}.cls-4{fill:#e03342;}</style></defs><path class="cls-1" d="M758.74,93.12c-1.87-8.28-9.64-13.35-17.1-10.67A53,53,0,0,0,733,86.78c-5.54,3.24-10,7.69-14.78,11.78-8.23,7-15.73,14.72-21.65,23.82a9.69,9.69,0,0,1-7.07,4.8c-9.4,1.11-18.7,2.85-28.05,4.14a327.23,327.23,0,0,0-36.12,7.49,380.19,380.19,0,0,0-44.38,14.28c-6.45,2.52-12.68,5.51-19,8.27-5.49,2.4-11.41,4.3-16.57,7.23-20.82,11.84-42.59,22.42-59,40.72a1.35,1.35,0,0,1-.77.36c-4.52.77-7.38,4.2-10.43,7-12.3,11.35-24,23.29-33.5,37.17-1.76,2.57-3.59,2.93-6.22,2-3.5-1.17-7-2.64-10.58-3.3-17.79-3.27-35.63-5.7-53.86-4.94-13.4.56-26.72,1.76-39.61,5.15-6.41,1.68-10.19,1.67-14.31-4.24a127.48,127.48,0,0,0-18.24-20.64c-4.56-4.22-8.74-9.2-13.43-13.45-9.43-8.55-19.75-16-30.07-23.43a299.39,299.39,0,0,0-43.94-26,296.56,296.56,0,0,0-36.64-15.48c-3.12-1-7-.84-9.23-2.25-7.89-4.93-16.84-6.19-25.38-8.61-11-3.13-22.29-5.34-33.6-7.41-10.14-1.86-20.24-3.72-30.49-4.86-3-.33-6.57-.32-8.32-3.31-4.33-7.38-10.18-13.42-16.2-19.35-7.71-7.6-15.27-15.43-25.12-20.34C22.8,81.6,18.88,79.9,14.63,81,7.91,82.73,3,89.69,3,97.73c0,10.68-.28,21.36.92,32,.28,2.46,1,4.81,1.13,7.25a135.93,135.93,0,0,0,3.43,24.14,448.58,448.58,0,0,0,12.4,45.92c4.64,14,9.07,28,14.88,41.44,5.41,12.56,11.34,24.85,17.92,36.89,4.89,9,9.34,18.18,14.91,26.77,6.94,10.7,13.56,21.61,21.23,31.85a461,461,0,0,0,36.36,43.16c7.79,8.12,15.75,16.12,24.62,23.12,3,2.33,2.79,4.23-.52,5.66-5.15,2.23-10,5-14.92,7.66a395.17,395.17,0,0,0-40.7,24.46c-16.78,11.77-33.1,24.15-47,39.37a154.65,154.65,0,0,0-16.41,20.6c-3,4.74-1.22,8.26,4.25,9.84,5.08,1.46,10.21,1.55,15.39,1.51,9.65-.07,19.32.23,28.94-.37,9.78-.61,19.6-.57,29.37-1.82,7.43-.94,15-.71,22.51-1.19,9.87-.65,19.72-1.48,30.66-2.32-7.36,8.53-13.94,16.11-19.53,24.55-3.59,5.42-.93,10.94,5.39,11.93,3.78.59,7.57,1.09,11.35,1.65a142.19,142.19,0,0,0,36.81.2c5.84-.65,11.32-2.15,15,5.39,4.31,8.79,11.74,15.62,18.76,22.35a173.9,173.9,0,0,0,43.49,30.34c2,1,15.43,7.86,19.3,9.46a205,205,0,0,0,40.81,11.68,264,264,0,0,0,85.39,1.62,210,210,0,0,0,50.45-13.2c2.11-.86,20.24-9.6,22.6-11a274.94,274.94,0,0,0,29.39-20.31,145.29,145.29,0,0,0,28.56-30.17c3-4.25,5.87-9,12.44-5.46.85.46,2.15.1,3.24.13,5.64.13,11.27.42,16.9.36,10.78-.1,21.62.36,32.11-3.15,5.71-1.92,7.18-5,4.57-10.29-1.94-3.9-4.78-7.17-7.22-10.72-3.43-5-8.4-8.82-11.37-14.42,4.57-.53,8.65.42,12.75.66,10.54.63,21,1.72,31.6,2.12,9.63.37,19.25,1.84,28.91,2,12.06.15,24.1.93,36.18.84a112.23,112.23,0,0,0,14.6-1c6.83-1,8.48-4.93,5-10.83-3.06-5.21-7-9.77-10.74-14.45-7.44-9.21-16.25-16.94-25.22-24.59a295,295,0,0,0-28.69-21.63c-8.77-5.8-17.55-11.49-26.9-16.47-8.81-4.69-17.28-10.05-26.44-14.17-1.62-.72-4.93-1.82-1.21-5.38,8.28-7.92,16.51-15.91,24.37-24.3,9.61-10.25,18.62-21,27.3-32A312.76,312.76,0,0,0,683.82,325c5.75-9.38,12.45-18.26,17.46-28,6.28-12.2,12.62-24.4,18.51-36.82,6.68-14.07,12.38-28.46,17.84-43,6.06-16.09,10.19-32.79,14.31-49.5a362.68,362.68,0,0,0,8.29-50.82A74.19,74.19,0,0,0,758.74,93.12ZM141.07,382.7c-3.42-3.28-5.92-7.61-9.6-10.51-5.8-4.57-9.7-10.78-14.56-16.08-6.17-6.7-12.74-13.32-17.31-21.53a115.28,115.28,0,0,0-10.28-15.27,170.66,170.66,0,0,1-13.79-21.16c-4.94-8.62-9.27-17.6-13.93-26.37-3.12-5.89-4.68-12.34-7.86-18.18-1.3-2.37-3.15-4.34-4.22-7-2.71-6.75-4.49-13.82-7.89-20.45a72.31,72.31,0,0,1-6-17.56c-.77-3.58-3-6.86-4.18-10.54-.8-2.53-1.19-5.14-2-7.66-1.08-3.51,1.26-4.65,4.07-4.2a47.66,47.66,0,0,1,8.37,2.61,331.35,331.35,0,0,1,30.67,13,319.54,319.54,0,0,1,33,18.71c8.07,5.13,15.12,11.6,23.61,16.22,6.19,3.36,11.2,9,16.42,14,4.27,4.06,8.73,7.8,13.38,11.43a60.43,60.43,0,0,1,9.89,10.37c3.33,4.27,7.18,8,10.73,12.05a236.8,236.8,0,0,1,20.74,27.91c3.29,5.07,6.86,10,10,15.16a19.81,19.81,0,0,1,2.44,6.57c-2,3.83-3.38,8.35-5,12.79-3.6,10.05-7.05,20.1-9.83,30.45-1.38,5.14-3.21,10.35-4.94,15.5a9,9,0,0,1-7.17,6.29c-4.31,1-8.44,3-12.49,4.89s-8.45,1.59-11.53-1.75C155.4,395.36,148,389.32,141.07,382.7Zm591.4-191.35c-.82,7.13-4.4,13.16-6.58,19.71-3.33,10-7.26,19.79-11.48,29.44-5.28,12.07-10.5,24.24-16.93,35.71-4.09,7.3-8.31,14.65-12.85,21.77-6.3,9.88-13.4,19.3-19.17,29.41-4.88,8.56-11.68,15.44-17.18,23.39a101.78,101.78,0,0,1-14.72,16.88c-3.31,3-5.42,7.34-8.6,10.54-4.33,4.36-8.49,8.88-13.08,13s-9.07,8.4-13.91,12.33c-2.2,1.79-4.61.39-5.91,2.11-4.34-.35-7.54-2.94-11.34-3.87-2-.49-3.76-1.63-5.86-2.16a8.29,8.29,0,0,1-5.8-6.15c-3.21-11.24-6.39-22.51-10.31-33.5-2.69-7.52-4.23-15.52-8.72-22.37-1.55-2.36-.49-4.95.57-7.07,5.28-10.56,12.21-20,19.43-29.32,2.85-3.68,5.27-8,8.49-11.2,5.92-5.86,10.27-13,16.39-18.66q6.76-6.23,13.09-12.92a70,70,0,0,1,6.75-5.62c8.42-6.92,17.15-13.48,26-19.81,11.17-7.95,22.24-16,34.43-22.53,9.2-4.95,18.62-9.38,28-13.87,7.12-3.4,14.92-5.37,22.43-8,1.18-.4,2.5-1,3.61-.79C730.89,188.2,732.87,187.9,732.47,191.35Zm7-27c-1,3.44-1.41,7.24-2.15,10.86-.36,1.76-.76,3.56-3.4,3.73-14.23,1-27.28,6.16-40.11,11.83-18.77,8.3-36.13,19.07-52.94,30.8a353.27,353.27,0,0,0-53.82,46.33c-16.1,16.94-30.77,35.23-42.29,55.77-1.37,2.43-2.87,4.54-5.79,5.74-3.68,1.52-4.71,4.65-3.11,8.57a459,459,0,0,1,18.62,54.36c3.8,14.19,7.15,28.46,8.25,43.16.36,4.86,3.42,8.18,7.48,7.9,3.56-.25,6.19-4,6.08-8.53a119.79,119.79,0,0,0-2-17.72c-.44-2.53-.41-3.59,2.65-2.32a431.83,431.83,0,0,1,45.66,22.42,459.67,459.67,0,0,1,41.71,25.95c17.1,12.16,33.3,25.32,46.78,41.56.58.7,1.62,1.34,1.07,2.33a2.6,2.6,0,0,1-2.47,1c-22.19-.6-44.36-1.45-66.49-3.26-14.64-1.2-29.3-2.26-43.94-3.49-4.66-.39-9.32-1-13.93-1.75-3.47-.58-6.84-.76-8.66,2.75-1.92,3.69-.39,7,2.41,9.72,7.36,7,14.2,14.52,20.89,22.16.61.71,1.16,1.47,1.78,2.17,2.48,2.78,1.09,3.94-1.86,4-7.66.14-15.32.3-23,.08a157.28,157.28,0,0,1-22.41-1.85c-4.07-.7-7,1-9.14,4.23a162.27,162.27,0,0,1-35.74,38.61c-12.94,10.11-27.26,17.78-42.32,24.28-19.71,8.5-40.39,13-61.55,15.09a254.87,254.87,0,0,1-50.77-.21c-19.23-2-37.89-5.87-55.91-12.77C273.4,598,250.52,583.74,232,563a140.13,140.13,0,0,1-14.56-20.1c-2.44-4-5.88-5.13-10.34-4.78-15,1.17-29.88,2.62-44.92,1.64-5-.32-3.79-2.1-1.76-4.65a174,174,0,0,1,19.9-21.25c1.05-.94,2.17-1.82,3.14-2.84,2.37-2.5,4.35-5.43,2.37-8.8-1.84-3.14-5.25-3.69-8.72-3.23-10.84,1.46-21.75,2.15-32.65,3.05-22.42,1.85-44.88,3.21-67.36,4.25-9,.41-18,.81-27.32-.55,38-42.85,86.87-69.25,138.85-93.25-1.35,7.88-2.25,14.58-2.78,21.31-.35,4.54,2.17,8.5,6.12,8.95s7-2.33,7.49-7.12c2.93-31.88,13.09-61.81,24.63-91.37.46-1.16.94-2.31,1.43-3.47,3.36-8,3.22-8.2-4.14-12.9-1.34-.86-2.27-2.53-3.12-4-16.37-28.11-37.19-52.59-61.07-74.5a352.83,352.83,0,0,0-56.32-42.34,313.71,313.71,0,0,0-47.57-23.59c-7.84-3.07-16-5.36-24.55-5.59-2.22-.06-3.07-.8-3.76-3-3.17-10.19-4.53-20.74-6.33-31.18-2.33-13.42-3.74-27-2.89-40.64,0-.16,0-.32,0-.47.25-2.78-.22-6.4,2.35-7.7s4.6,1.65,6.81,3c10.24,6.36,17.75,15.53,26.19,24.25-7.26,1.56-10.1,4.22-9.61,8.58.47,4.13,4.67,6.67,10.91,6.75,19.45.23,38.52,3.68,57.53,7.34a389.12,389.12,0,0,1,53.67,14.62,358.28,358.28,0,0,1,54.24,23.91c30.73,16.8,58.37,37.5,81.66,63.78,2.78,3.15,5,6.78,7.86,9.87,1.81,2,1,2.47-.85,3.15-6.17,2.26-11.9,5.46-17.77,8.37-4.58,2.28-6.35,6-4.55,9.69s5.54,5,10.29,2.58c13.13-6.68,26.66-12.17,41.08-15.43a191.92,191.92,0,0,1,77.71-1.31,172,172,0,0,1,51.06,17.54c4.71,2.54,9,1.24,10.8-2.71,1.62-3.65-.24-7.27-5-9.67s-9.49-4.79-14.33-7c-2.35-1.06-2.63-1.93-1-4.08,10.6-14.11,23.07-26.4,36.49-37.77A320.66,320.66,0,0,1,541.48,186a347.92,347.92,0,0,1,49.72-22.84c27.29-10.14,55.45-17,84.15-21.49,12.48-2,25.16-2.82,37.76-3.94,5.63-.51,8.66-2.81,8.41-7.2s-3.39-6.64-9.64-6.32a121,121,0,0,1,15-16.26A163.61,163.61,0,0,1,740,97.42c4.21-3.11,6.24-2,6.74,3.1C748.86,122.32,745.39,143.43,739.52,164.36Z"/><path class="cls-2" d="M188.62,412.51c-1.35,7.88-2.25,14.58-2.78,21.31-.35,4.54,2.17,8.5,6.12,8.95s7-2.33,7.49-7.12c2.93-31.88,13.09-61.81,24.63-91.37.46-1.16.94-2.31,1.43-3.47,3.36-8,3.22-8.2-4.14-12.9-1.34-.86-2.27-2.53-3.12-4-16.37-28.11-37.19-52.59-61.07-74.5a352.83,352.83,0,0,0-56.32-42.34,313.71,313.71,0,0,0-47.57-23.59c-7.84-3.07-16-5.36-24.55-5.59-2.22-.06-3.07-.8-3.76-3-3.17-10.19-4.53-20.74-6.33-31.18-2.33-13.42-3.74-27-2.89-40.64,0-.16,0-.32,0-.47.25-2.78-.22-6.4,2.35-7.7s4.6,1.65,6.81,3c10.24,6.36,17.75,15.53,26.19,24.25-7.26,1.56-10.1,4.22-9.61,8.58.47,4.13,4.67,6.67,10.91,6.75,19.45.23,38.52,3.68,57.53,7.34a389.12,389.12,0,0,1,53.67,14.62,358.28,358.28,0,0,1,54.24,23.91c30.73,16.8,58.37,37.5,81.66,63.78,2.78,3.15,5,6.78,7.86,9.87,1.81,2,1,2.47-.85,3.15-6.17,2.26-11.9,5.46-17.77,8.37-4.58,2.28-6.35,6-4.55,9.69s5.54,5,10.29,2.58c13.13-6.68,26.66-12.17,41.08-15.43a191.92,191.92,0,0,1,77.71-1.31,172,172,0,0,1,51.06,17.54c4.71,2.54,9,1.24,10.8-2.71,1.62-3.65-.24-7.27-5-9.67s-9.49-4.79-14.33-7c-2.35-1.06-2.63-1.93-1-4.08,10.6-14.11,23.07-26.4,36.49-37.77A320.66,320.66,0,0,1,541.48,186a347.92,347.92,0,0,1,49.72-22.84c27.29-10.14,55.45-17,84.15-21.49,12.48-2,25.16-2.82,37.76-3.94,5.63-.51,8.66-2.81,8.41-7.2s-3.39-6.64-9.64-6.32a121,121,0,0,1,15-16.26A163.61,163.61,0,0,1,740,97.42c4.21-3.11,6.24-2,6.74,3.1,2.17,21.8-1.3,42.91-7.17,63.84-1,3.44-1.41,7.24-2.15,10.86-.36,1.76-.76,3.56-3.4,3.73-14.23,1-27.28,6.16-40.11,11.83-18.77,8.3-36.13,19.07-52.94,30.8a353.27,353.27,0,0,0-53.82,46.33c-16.1,16.94-30.77,35.23-42.29,55.77-1.37,2.43-2.87,4.54-5.79,5.74-3.68,1.52-4.71,4.65-3.11,8.57a459,459,0,0,1,18.62,54.36c3.8,14.19,7.15,28.46,8.25,43.16.36,4.86,3.42,8.18,7.48,7.9,3.56-.25,6.19-4,6.08-8.53a119.79,119.79,0,0,0-2-17.72c-.44-2.52-.41-3.59,2.65-2.32a431.83,431.83,0,0,1,45.66,22.42,459.67,459.67,0,0,1,41.71,25.95c17.1,12.16,33.3,25.32,46.78,41.56.58.7,1.62,1.34,1.07,2.33a2.6,2.6,0,0,1-2.47,1c-22.19-.6-44.36-1.45-66.49-3.26-14.64-1.2-29.3-2.26-43.94-3.49-4.66-.39-9.32-1-13.93-1.75-3.47-.58-6.84-.76-8.66,2.75-1.92,3.69-.39,7,2.41,9.72,7.36,7,14.2,14.52,20.89,22.16.61.71,1.16,1.47,1.78,2.17,2.48,2.78,1.09,3.94-1.86,4-7.66.14-15.32.3-23,.08a157.28,157.28,0,0,1-22.41-1.85c-4.07-.7-7,1-9.14,4.24a162.41,162.41,0,0,1-35.74,38.6c-12.94,10.12-27.26,17.78-42.32,24.28-19.71,8.5-40.39,13-61.55,15.09a254.87,254.87,0,0,1-50.77-.21c-19.23-2-37.89-5.87-55.91-12.77C273.4,598,250.52,583.74,232,563a140.13,140.13,0,0,1-14.56-20.1c-2.44-4-5.88-5.13-10.34-4.78-15,1.17-29.88,2.62-44.92,1.64-5-.32-3.79-2.1-1.76-4.65a174,174,0,0,1,19.9-21.25c1.05-.94,2.17-1.82,3.14-2.84,2.37-2.5,4.35-5.43,2.37-8.8-1.84-3.14-5.25-3.69-8.72-3.23-10.84,1.46-21.75,2.15-32.65,3.05-22.42,1.85-44.88,3.21-67.36,4.25-9,.41-18,.81-27.32-.55C87.73,462.91,136.64,436.51,188.62,412.51Zm160.92.19c-.4,17.18,16.06,34.23,36,33.5,18.11-.67,33.38-17.3,32.76-36-.63-19.27-16.14-34.17-34.74-33.84C365.4,376.69,347.87,392.18,349.54,412.7Z"/><path class="cls-3" d="M212.84,334.22c-2,3.83-3.38,8.35-5,12.79-3.6,10.05-7.05,20.1-9.83,30.45-1.38,5.14-3.21,10.35-4.94,15.5a9,9,0,0,1-7.17,6.29c-4.32,1-8.44,3-12.49,4.89s-8.45,1.59-11.53-1.75c-6.51-7-13.94-13.07-20.84-19.69-3.42-3.28-5.92-7.61-9.6-10.51-5.8-4.57-9.7-10.78-14.56-16.08-6.17-6.7-12.74-13.32-17.31-21.53a115.28,115.28,0,0,0-10.28-15.27,170.66,170.66,0,0,1-13.79-21.16c-4.94-8.62-9.27-17.6-13.93-26.37-3.12-5.89-4.68-12.34-7.86-18.18-1.3-2.37-3.15-4.34-4.22-7-2.71-6.75-4.49-13.82-7.89-20.45a72.31,72.31,0,0,1-6-17.56c-.77-3.58-3-6.86-4.18-10.54-.8-2.53-1.19-5.14-2-7.66-1.08-3.51,1.26-4.65,4.07-4.2a47.66,47.66,0,0,1,8.37,2.61,331.35,331.35,0,0,1,30.67,13,319.54,319.54,0,0,1,33,18.71c8.07,5.13,15.12,11.6,23.61,16.22,6.19,3.36,11.2,9,16.42,14,4.27,4.06,8.73,7.8,13.38,11.43a60.43,60.43,0,0,1,9.89,10.37c3.33,4.27,7.18,8,10.73,12.05a236.8,236.8,0,0,1,20.74,27.91c3.29,5.07,6.86,10,10,15.16A19.81,19.81,0,0,1,212.84,334.22Z"/><path class="cls-3" d="M592.06,405.66c-4.34-.35-7.54-2.94-11.34-3.87-2-.49-3.76-1.63-5.86-2.16a8.29,8.29,0,0,1-5.8-6.15c-3.21-11.24-6.39-22.51-10.31-33.5-2.69-7.52-4.23-15.52-8.72-22.37-1.55-2.36-.49-4.95.57-7.07,5.28-10.56,12.21-20,19.43-29.32,2.85-3.68,5.27-8,8.49-11.2,5.92-5.86,10.27-13,16.39-18.66q6.76-6.23,13.09-12.92a70,70,0,0,1,6.75-5.62c8.42-6.92,17.15-13.48,26-19.81,11.17-7.95,22.24-16,34.43-22.53,9.2-4.95,18.62-9.38,28-13.87,7.12-3.4,14.92-5.37,22.43-8,1.18-.4,2.5-1,3.61-.79,1.64.33,3.62,0,3.22,3.48-.82,7.13-4.4,13.16-6.58,19.71-3.33,10-7.26,19.79-11.48,29.44-5.28,12.07-10.5,24.24-16.93,35.71-4.09,7.3-8.31,14.65-12.85,21.77-6.3,9.88-13.4,19.3-19.17,29.41-4.88,8.56-11.68,15.44-17.18,23.39a101.78,101.78,0,0,1-14.72,16.88c-3.31,3-5.42,7.34-8.6,10.54-4.33,4.36-8.49,8.88-13.08,13s-9.07,8.4-13.91,12.33C595.77,405.34,593.36,403.94,592.06,405.66Z"/><path class="cls-1" d="M349.54,412.7c-1.67-20.52,15.86-36,34-36.32,18.6-.33,34.11,14.57,34.74,33.84.62,18.68-14.65,35.31-32.76,36C365.6,446.93,349.14,429.88,349.54,412.7Z"/><path class="cls-4" d="M356,412.78c-1.38-16.95,13.1-29.74,28.09-30,15.35-.27,28.16,12,28.69,28,.5,15.42-12.1,29.16-27.06,29.71C369.27,441,355.67,427,356,412.78Z"/></svg>