<svg id="Camada_1" data-name="Camada 1" xmlns="http://www.w3.org/2000/svg" viewBox="0 0 763.55 716.22"><defs><style>.cls-1{fill:#642a19;}.cls-2{fill:#f3c266;}.cls-3{fill:#fffefe;}</style></defs><path class="cls-1" d="M711.18,131.54c7.61-23.53,15.25-47.06,22.71-70.64,4.09-13,9.24-25.67,11.46-39.11,1.89-11.51-3.13-20.38-17.49-17.52-7.17,1.43-13.43,5-20,7.79-13.69,5.74-27.16,12.06-40.69,18.18-21,9.5-41.2,20.37-61.4,31.3-16.32,8.82-32.33,18.23-47.33,29.2-7.89,5.78-16.4,10.71-21,20.4-7.59,16-15.52,31.88-22.71,48.1-.63,1.42-1,3.5-2.66,3.79-3.87.65-6,3.47-8.46,6-11.27,11.58-22.47,23.23-33.73,34.82-.71.72-1.13,2.25-2.53,1.73-1-.38-.8-1.63-.91-2.55-1.76-15.23-3.48-30.47-5.29-45.7q-2-17.12-4.31-34.21c-.34-2.64-1.67-5.11-4.22-6a6.62,6.62,0,0,0-7.42,2c-10.18,11.5-20.46,22.9-30.52,34.5-10.39,12-20.61,24.09-30.82,36.21-1.48,1.76-2.28,2.09-4,.09-10.32-12.2-20.85-24.22-31.19-36.41-9.73-11.48-19.41-23-29.71-34-2.34-2.5-5.05-3.53-8.2-2.2s-3.78,4.09-4.12,7.1c-.16,1.43.62,2.68.19,4.21-3.13,11.11-3.36,22.67-5,34-2,14.22-2.76,28.59-5.48,43.9-7.85-8.17-14.85-15.83-22.25-23.07s-13.24-16.13-23.11-20.58c-.84-.37-1.34-1.73-1.79-2.72-6.19-13.5-12.17-27.1-18.58-40.49-3.86-8-7.29-16.75-15.49-21.55-11.58-6.77-21.83-15.44-33.41-22.26-20.5-12.07-41.23-23.7-62.53-34.25-15.83-7.84-31.82-15.37-48-22.45C60,14.25,48.92,8.92,37.18,5.15,26.08,1.6,18.35,6.43,17.84,17.91a39.88,39.88,0,0,0,3,15.92c3,7.76,4.92,15.86,7.63,23.73,5.27,15.28,9.72,30.84,14.73,46.2,6.16,18.87,12.55,37.65,18.83,56.48,1,3,0,4-3.34,4.44a234.46,234.46,0,0,0-23.58,4.65c-6.2,1.52-7.81,6.86-3.54,11.69a135.75,135.75,0,0,0,12.63,12.41q21.68,18.91,44.09,37c16.9,13.64,34,27,51.64,39.67,11.58,8.33,23.22,16.53,35.52,23.79,1.26.74,3.41,1.31,3.18,3.19s-2.3,1.29-3.61,1.57c-3,.62-4.15,2.75-4.76,5.4-.72,3.17,1,5.51,2.7,7.85,6.35,8.71,14,16.19,21.74,23.65,1.11,1.08,2.75,2.27,1.44,4-1.08,1.45-2.65.46-4,0-1.07-.34-2.11-.75-3.18-1.09-13.6-4.3-27.27-8.27-41.5-9.9-4.1-.47-6.44,1.54-6.47,5.63,0,2.71.11,5.43.36,8.13,2.12,23.46,7.35,46.46,10.58,69.76.37,2.68.28,4.42-2.62,5.73-15.15,6.85-30.27,13.77-45.27,20.93C93.82,443.64,83.41,448.3,74.79,456c-3.33,3-3.38,6.36-1.76,10a24.09,24.09,0,0,0,3.36,5.24c11,13.58,24.56,24.54,37.87,35.71,11.76,9.88,23.67,19.59,36,28.76,2.35,1.74,3.61,3.31,1.53,6.58-3.86,6.05-6.8,12.68-10.56,18.8-11.55,18.81-22.23,38.13-33.15,57.3-1.72,3-3.19,6.31-.92,9.45s5.93,3.43,9.58,3.19c11.12-.73,22.26-1.17,33.35-2.22q26.49-2.49,52.93-5.75c3.3-.4,4.44.41,4.81,3.32.92,7.29,1.77,14.59,2.78,21.87,2.57,18.48,5.47,36.9,10.33,54.94,1.44,5.32,5.67,7,10.41,4.06,8.92-5.58,17.87-11.16,26.49-17.19,3.58-2.5,44.85-30.69,57.67-39.76,2.57-1.82,4.48-1.64,6.35,1,10.28,14.49,22.84,27.05,34.58,40.29,4.47,5,19,19.72,20,20.24,2.48,1.26,4.63.6,6.64-1,2.46-2,48.83-48,60.85-61.21,1.23-1.36,2.05-1.46,3.55-.31,12,9.16,50,37.47,55.28,41.21,7.67,5.47,15.24,11.06,23.29,16,6.4,3.94,10.11.48,11.33-4.84,2.08-9,4.29-18.06,5.78-27.2,2.6-15.94,5.57-31.84,7-48,.25-2.78.92-4.6,4.35-4.13,8.37,1.14,16.75,2.14,25.14,3.11,20.87,2.4,41.79,4.38,62.81,4.92,7.61.2,10.9-4.66,7.93-11.56a28.24,28.24,0,0,0-1.41-3.06q-10.79-18.66-21.62-37.29-10.71-18.45-21.45-36.87c-1.22-2.08-1.89-3.72.5-5.55,20.37-15.5,40.15-31.72,59.12-48.9,6.78-6.15,13.22-12.67,18.3-20.35,3.18-4.8,2.52-8.37-1.33-11.34-11.79-9.09-25.36-15-38.47-21.72-12.24-6.25-24.62-12.2-37-18.2-2.6-1.26-3.17-2.79-2.67-5.71q6.14-36,11.86-72.06c1.33-8.33-1.68-11.37-9.8-9.53-11.06,2.49-22,5.5-33,8.26-1.93.48-3.53,2.34-6,1.41.37-2.56,2.55-3.64,4-5.15,6.9-6.93,13.72-13.9,19.73-21.67,3.84-5,3.59-12.8-4.79-13.48a11.23,11.23,0,0,1-2.48-.93,20.34,20.34,0,0,1,2.74-2.41c27.77-16.15,52.85-36.05,78-55.8,12.66-9.93,25-20.34,37.29-30.66,10-8.39,20-16.84,29-26.29,5.31-5.54,3.85-10.84-3.54-12.71-7.67-1.93-15.45-3.54-23.26-4.85-3.12-.53-3.67-1.27-2.61-4.24C705,150.41,708.12,141,711.18,131.54Zm-80.29,479.7c.83,1.44,2.71,3,1.72,4.62s-3.21,1.07-4.93.89c-18.44-1.93-36.87-3.85-55.29-5.88-8.13-.89-16.24-2-24.36-3-6.1-.77-8.86,1.53-9.63,7.76q-4.32,35.26-10.81,70.19c-.8,4.25-1.58,4.63-5.12,2.11-23.64-16.82-46.74-34.37-70.1-51.58-7.44-5.48-10.61-5.05-16.92,1.62-17.42,18.42-34.69,37-52.66,54.86-2.77,2.75-4.3,3-7.08-.08-16.65-18.47-32.92-37.25-48.56-56.58-4.47-5.52-6.94-5.91-12.94-1.77C287.8,652.59,261.32,670.71,235,689c-3.36,2.33-3.88,1.58-4.59-2-4.24-21.75-7.42-43.65-10.48-65.58-1.93-13.84-2.06-14-16-12.28-24.51,3.09-49.05,5.89-73.71,7.54-1.71.11-3.45.61-5.44-.18,1.88-5,4.88-9.35,7.48-13.87,11.91-20.67,23.93-41.28,35.77-62,2.24-3.91.92-7.34-2.6-10.11-11.31-8.9-22.62-17.82-33.82-26.86-14.11-11.39-28.11-22.93-40.78-36-4.2-4.32-4.2-4.46,1-7.38,15.11-8.51,31-15.41,46.77-22.59,7.29-3.33,14.51-6.82,21.88-10,5-2.16,6.37-5.69,5.51-10.82-2.86-16.93-5.57-33.89-8.3-50.84-1-6.49-1.94-13-3-19.5-.44-2.64.41-3.1,2.84-2.51,10.29,2.51,20.53,5.14,30.61,8.46,2.93,1,3.11,2.38,2.57,5a316.73,316.73,0,0,0-6.56,80.38c.17,3.54-.94,4.69-4.53,4.8a298.5,298.5,0,0,0-35.41,3.48c-3.32.51-6.27,1.33-7.44,5s.37,6.6,2.84,9.12c8.11,8.3,17.52,15,26.78,21.94,4,3,7.95,6,12.13,8.68,3.19,2,4.08,3.58,1.2,6.89-4.74,5.44-8.92,11.35-13.3,17.09-5.22,6.82-3.64,12,4.66,14.42A179.76,179.76,0,0,0,209,535.69c11.29.73,20,4.36,28.73,12.23,21.33,19.16,47,31.31,74.27,40,35.38,11.24,71.43,13.58,108,8.08,27.88-4.18,54.27-12.85,78.62-27.24,13.69-8.09,26.69-17.11,37-29.48,1.56-1.87,3.4-2,5.51-2.28,16.88-1.89,33.8-3.58,52.42-8.07-8.25,6.2-4,11-1,16.14Q611.82,578.08,630.89,611.24ZM577.32,349.87c7.17-1.73,14.28-3.72,21.34-5.88,3.37-1,3.35.21,2.89,2.92-3.83,22.43-7.49,44.9-11.36,67.33-.8,4.67.23,7.84,4.64,10.25,23,12.56,47.41,22.49,70.22,35.5,5.37,3.06,5.39,3.16,1.14,7.51-16.17,16.57-34.37,30.81-52.28,45.38-4.2,3.41-8.53,6.66-13.67,10.67,1.08-4.41-.94-6.77-2.76-9.17-4.38-5.73-8.65-11.56-13.29-17.08-2.27-2.72-2.34-4.14.72-6.33,9.77-7,19.37-14.26,28.87-21.63,3.79-2.94,7.22-6.36,10.71-9.67,2.6-2.47,4-5.49,2.76-9.12-1.14-3.31-4-4.31-7.16-4.83a281,281,0,0,0-36.38-3.51c-3-.1-4-.6-3.89-4.08a310.56,310.56,0,0,0-6.73-80.79C572.13,352.93,572.93,350.93,577.32,349.87Zm114-174.17c7.07,1.32,14.18,2.46,21.23,3.66.55,2.12-1,2.77-2,3.61-24,20.48-48.4,40.41-73.69,59.31q-28.15,21-57.59,40.12a118.48,118.48,0,0,1-18.69,10.32c-3.71,1.55-6.6,4-6.29,8.12s3.81,5.53,7.54,6.19c3.16.55,6.27,1.41,9.43,1.93s3.6,1.34,1.25,3.77a245.23,245.23,0,0,1-22.49,21c-4.45,3.56-4.6,6.21-1.71,10.51a3.89,3.89,0,0,0,4,1.93c3.27-.47,4.69,1.09,5.36,4,4.19,18.24,7.72,36.53,8.18,55.37.21,8.62,1,17.24.74,25.88-.18,5.41-.5,10.81-.88,16.2-.41,5.84,2.37,9,8,8.74,9.34-.44,18.6.49,27.88,1.27.89.07,2.1-.5,2.52.72.48,1.42-.9,1.9-1.74,2.53-11.05,8.24-22.1,16.49-33.22,24.64-4.68,3.44-5.56,7.21-2.09,11.84,4.12,5.52,8.46,10.88,12.76,16.27,1.94,2.44,2.56,3.6-1.61,4.34-14.24,2.53-28.58,4.13-43,5.41a10.27,10.27,0,0,0-7.5,3.78c-10.3,12.81-23.26,22-37.36,30.41-19.18,11.38-39.65,18.4-61.24,22.75a223.67,223.67,0,0,1-80.41,2c-40.9-6.62-78-22.18-108.5-50.76-6.34-5.93-12.83-8.31-20.79-9-12.44-1.09-24.87-2.32-37.67-5,4.44-5.85,8.67-11.24,12.7-16.78,6.12-8.41,5.39-11.41-3.18-17.52-9.9-7.08-19.62-14.42-29.42-21.65-.87-.65-2.31-1.1-2-2.43s1.8-1,2.88-1c9.12-.63,18.24-1.31,27.37-1.89,6.75-.43,8.35-2.22,7.82-9.08a312.4,312.4,0,0,1,6.6-90.81c.51-2.34,1.18-4.65,1.79-7,.49-1.88,1.35-3,3.67-2.86,3.07.24,5.26-1.52,6.4-4.21,1.31-3.06,0-5.66-2.25-7.76-5.25-4.92-10.4-10-15.93-14.57-2.75-2.29-4.78-5.15-7.33-7.57-1.76-1.67-1.52-2.51,1-2.87,4.41-.63,8.78-1.55,13.17-2.31,3.63-.64,4.94-3.37,5.5-6.45s-1.4-5.24-4.12-6.31c-27.34-10.69-50.21-28.6-73.44-45.81-17.52-13-34.62-26.57-51.61-40.26-9.86-7.94-19.13-16.6-28.67-24.94-.84-.72-2.14-1.27-2-2.54.27-1.71,1.94-1.35,3.12-1.55,5.84-1,11.72-1.84,17.54-3s7.94-4.55,6.13-10.07Q58.65,108,39.48,49.75c-2.65-8.07-5.21-16.16-7.57-24.31-.58-2-1.75-4.67.42-6.3,1.81-1.36,4.11-.11,6,.65,21.94,9,43.73,18.34,65.08,28.7a822.26,822.26,0,0,1,79,43.67c9.62,6,18.84,12.77,27.94,19.59,3.43,2.57,4.77,7.08,6.68,10.88,9.18,18.22,17.8,36.69,25.52,55.57,3.5,8.55,2.73,17.55,3,26.44.23,7.59.27,15.19.5,22.79.08,2.9-.7,3.21-3.68,2.74-6-.94-7.4-5.71-9-9.95-8.31-22-18.21-43.37-28.48-64.54-1.46-3-2.94-6-4.24-9.09-4.77-11.26-15.26-15.8-24.86-21.48s-19.2-11.92-28.91-17.71C124.71,94.19,102.63,80.82,79.67,69c-3-1.52-6.42-4.45-9.74-1.46s-.7,6.62.29,9.86c7.84,25.47,18.39,49.94,28.45,74.55,7.71,18.86,15.16,37.89,24.89,55.87a28,28,0,0,0,8.38,9.05c16.64,12.36,33.26,24.77,50,36.95,5.61,4.07,11.61,7.63,17.58,11.19a9.3,9.3,0,0,1,4.25,4.34c4,9.46,8.62,18.59,13.27,27.72,1.6,3.13,3.88,5.95,7.41,4.81,5.31-1.7,6.9-6.39,4.64-11.08q-12.45-25.8-24.88-51.63c-.82-1.71-1.43-3.52-2.36-5.85,12.14,2.68,23.47,6.26,34.81,9.77,4.35,1.35,8.67,2.86,13.05,4.11,6.51,1.87,10.46-1,10.31-7.82-.36-16.35-1-32.69-1.46-49,0-.6,0-1.21.14-3.2,4.56,4.62,8.48,8.42,12.2,12.39q12.27,13.08,24.36,26.31c2.36,2.57,4.63,5.23,6.85,7.93,3,3.66,6.26,4.19,9.87,1.47s4.67-7.08,1.39-9.87c-5.15-4.38-4.3-9.49-3.69-14.88q3.7-32.73,7.43-65.46a12.3,12.3,0,0,1,1.19-5.14c2.24.26,3,2.27,4.2,3.63q26.68,31,53.26,62.11c4.36,5.09,7.68,5.22,12.27-.11,12.24-14.21,24.24-28.63,36.42-42.88,6.14-7.18,12.47-14.19,18.74-21.25.59-.67,1-1.85,2.21-1.45s.72,1.61.82,2.5q4.2,36.56,8.4,73.11c.32,2.72-.06,5-2.24,7a16.8,16.8,0,0,0-2.69,3.39c-2.29,3.43-1.27,6.67,1.42,9.08,2.9,2.59,6.11,2.4,8.93-.66q14-15.21,28.1-30.36c4.48-4.81,9-9.55,13.62-14.27.72-.73,1.37-2.11,2.7-1.51s.62,2,.6,3q-.56,23.82-1.18,47.62c-.18,7.48,3.49,10.09,10.67,7.72,14.29-4.71,28.59-9.42,43.2-13.09,1.15-.29,2.59-1.38,3.56-.09.79,1-.44,2-.91,3q-12.45,26.1-24.87,52.19a24.45,24.45,0,0,0-1.16,2.63c-1.54,4.53-.2,8.12,3.54,9.61,3.57,1.42,6.71-.1,8.8-4.4,4.11-8.49,8.28-16.95,12.18-25.54a17.23,17.23,0,0,1,6.93-7.52c11.35-7.38,22.61-14.95,33.5-23,11.87-8.79,23.89-17.38,35.23-26.9,5.84-4.9,8.21-11.53,11-17.84Q668.55,144.78,688,92.5c2.34-6.3,4.12-12.82,6.16-19.24.76-2.39,1.23-4.78-1.16-6.55s-4.56-.54-6.77.5c-13.37,6.27-26,14-38.69,21.44-23.43,13.63-46.36,28.1-69.68,41.91-10.66,6.32-15.09,16.21-20,26.21C547,179.1,537.09,201.87,528,225c-1.69,4.3-5.52,4.45-9,5.25-1.49.34-1.52-1.31-1.49-2.42.36-14.13.2-28.3,1.34-42.36.66-8.15,5.4-15.39,8.72-22.83,6.32-14.18,13.5-28,19.73-42.22,3.32-7.6,9.35-12,15.68-16.43,22-15.29,45.22-28.64,68.67-41.56a776.36,776.36,0,0,1,90.56-42.09c3-1.17,6.63-3.79,9.43-1.15,2.48,2.34-.11,5.7-1,8.49q-21.27,67.41-43.83,134.42a41.38,41.38,0,0,0-1.35,4.62C684.42,171.63,686.4,174.76,691.37,175.7Z"/><path class="cls-2" d="M181.88,517.53c4.44-5.85,8.67-11.24,12.7-16.78,6.12-8.41,5.39-11.41-3.18-17.52-9.9-7.08-19.62-14.42-29.42-21.65-.87-.65-2.31-1.1-2-2.43s1.8-1,2.88-1c9.12-.63,18.24-1.31,27.37-1.89,6.75-.43,8.35-2.22,7.82-9.08a312.4,312.4,0,0,1,6.6-90.81c.51-2.34,1.18-4.65,1.79-7,.49-1.88,1.35-3,3.67-2.86,3.07.24,5.26-1.52,6.4-4.21,1.31-3.06,0-5.66-2.25-7.76-5.25-4.92-10.4-10-15.93-14.57-2.75-2.29-4.78-5.15-7.33-7.57-1.76-1.67-1.52-2.51,1-2.87,4.41-.63,8.78-1.55,13.17-2.31,3.63-.64,4.94-3.37,5.5-6.45s-1.4-5.24-4.12-6.31c-27.34-10.69-50.21-28.6-73.44-45.81-17.52-13-34.62-26.57-51.61-40.26-9.86-7.94-19.13-16.6-28.67-24.94-.84-.72-2.14-1.27-2-2.54.27-1.71,1.94-1.35,3.12-1.55,5.84-1,11.72-1.84,17.54-3s7.94-4.55,6.13-10.07Q58.65,108,39.48,49.75c-2.65-8.07-5.21-16.16-7.57-24.31-.58-2-1.75-4.67.42-6.3,1.81-1.36,4.11-.11,6,.65,21.94,9,43.73,18.34,65.08,28.7a822.26,822.26,0,0,1,79,43.67c9.62,6,18.84,12.77,27.94,19.59,3.43,2.57,4.77,7.08,6.68,10.88,9.18,18.22,17.8,36.69,25.52,55.57,3.5,8.55,2.73,17.55,3,26.44.23,7.59.27,15.19.5,22.79.08,2.9-.7,3.21-3.68,2.74-6-.94-7.4-5.71-9-9.95-8.31-22-18.21-43.37-28.48-64.54-1.46-3-2.94-6-4.24-9.09-4.77-11.26-15.26-15.8-24.86-21.48s-19.2-11.92-28.91-17.71C124.71,94.19,102.63,80.82,79.67,69c-3-1.52-6.42-4.45-9.74-1.46s-.7,6.62.29,9.86c7.84,25.47,18.39,49.94,28.45,74.55,7.71,18.86,15.16,37.89,24.89,55.87a28,28,0,0,0,8.38,9.05c16.64,12.36,33.26,24.77,50,36.95,5.61,4.07,11.61,7.63,17.58,11.19a9.3,9.3,0,0,1,4.25,4.34c4,9.46,8.62,18.59,13.27,27.72,1.6,3.13,3.88,5.95,7.41,4.81,5.31-1.7,6.9-6.39,4.64-11.08q-12.45-25.8-24.88-51.63c-.82-1.71-1.43-3.52-2.36-5.85,12.14,2.68,23.47,6.26,34.81,9.77,4.35,1.35,8.67,2.86,13.05,4.11,6.51,1.87,10.46-1,10.31-7.82-.36-16.35-1-32.69-1.46-49,0-.6,0-1.21.14-3.2,4.56,4.62,8.48,8.42,12.2,12.39q12.27,13.08,24.36,26.31c2.36,2.57,4.63,5.23,6.85,7.93,3,3.66,6.26,4.19,9.87,1.47s4.67-7.08,1.39-9.87c-5.15-4.38-4.3-9.49-3.69-14.88q3.7-32.73,7.43-65.46a12.3,12.3,0,0,1,1.19-5.14c2.24.26,3,2.27,4.2,3.63q26.68,31,53.26,62.11c4.36,5.09,7.68,5.22,12.27-.11,12.24-14.21,24.24-28.63,36.42-42.88,6.14-7.18,12.47-14.19,18.74-21.25.59-.67,1-1.85,2.21-1.45s.72,1.61.82,2.5q4.2,36.56,8.4,73.11c.32,2.72-.06,5-2.24,7a16.8,16.8,0,0,0-2.69,3.39c-2.29,3.43-1.27,6.67,1.42,9.08,2.9,2.59,6.11,2.4,8.93-.66q14-15.21,28.1-30.36c4.48-4.81,9-9.55,13.62-14.27.72-.73,1.37-2.11,2.7-1.51s.62,2,.6,3q-.56,23.82-1.18,47.62c-.18,7.48,3.49,10.09,10.67,7.72,14.29-4.71,28.59-9.42,43.2-13.09,1.15-.29,2.59-1.38,3.56-.09.79,1-.44,2-.91,3q-12.45,26.1-24.87,52.19a24.45,24.45,0,0,0-1.16,2.63c-1.54,4.53-.2,8.12,3.54,9.61,3.57,1.42,6.71-.1,8.8-4.4,4.11-8.49,8.28-16.95,12.18-25.54a17.23,17.23,0,0,1,6.93-7.52c11.35-7.38,22.61-14.95,33.5-23,11.87-8.79,23.89-17.38,35.23-26.9,5.84-4.9,8.21-11.53,11-17.84Q668.55,144.78,688,92.5c2.34-6.3,4.12-12.82,6.16-19.24.76-2.39,1.23-4.78-1.16-6.55s-4.56-.54-6.77.5c-13.37,6.27-26,14-38.69,21.44-23.43,13.63-46.36,28.1-69.68,41.91-10.66,6.32-15.09,16.21-20,26.21C547,179.1,537.09,201.87,528,225c-1.69,4.3-5.52,4.45-9,5.25-1.49.34-1.52-1.31-1.49-2.42.36-14.13.2-28.3,1.34-42.36.66-8.15,5.4-15.39,8.72-22.83,6.32-14.18,13.5-28,19.73-42.22,3.32-7.6,9.35-12,15.68-16.43,22-15.29,45.22-28.64,68.67-41.56a776.36,776.36,0,0,1,90.56-42.09c3-1.17,6.63-3.79,9.43-1.15,2.48,2.34-.11,5.7-1,8.49q-21.27,67.41-43.83,134.42a41.38,41.38,0,0,0-1.35,4.62c-1.05,4.92.93,8,5.9,9,7.07,1.32,14.18,2.46,21.23,3.66.55,2.12-1,2.77-2,3.61-24,20.48-48.4,40.41-73.69,59.31q-28.15,21-57.59,40.12a118.48,118.48,0,0,1-18.69,10.32c-3.71,1.55-6.6,4-6.29,8.12s3.81,5.53,7.54,6.19c3.16.55,6.27,1.41,9.43,1.93s3.6,1.34,1.25,3.77a245.23,245.23,0,0,1-22.49,21c-4.45,3.56-4.6,6.21-1.71,10.51a3.89,3.89,0,0,0,4,1.93c3.27-.47,4.69,1.09,5.36,4,4.19,18.24,7.72,36.53,8.18,55.37.21,8.62,1,17.24.74,25.88-.18,5.41-.5,10.81-.88,16.2-.41,5.84,2.37,9,8,8.74,9.34-.44,18.6.49,27.88,1.27.89.07,2.1-.5,2.52.72.48,1.42-.9,1.9-1.74,2.53-11.05,8.24-22.1,16.49-33.22,24.64-4.68,3.44-5.56,7.21-2.09,11.84,4.12,5.52,8.46,10.88,12.76,16.27,1.94,2.44,2.56,3.6-1.61,4.34-14.24,2.53-28.58,4.13-43,5.41a10.27,10.27,0,0,0-7.5,3.78c-10.3,12.81-23.26,22-37.36,30.41-19.18,11.38-39.65,18.4-61.24,22.75a223.67,223.67,0,0,1-80.41,2c-40.9-6.62-78-22.18-108.5-50.76-6.34-5.93-12.83-8.31-20.79-9C207.11,521.45,194.68,520.22,181.88,517.53Z"/><path class="cls-3" d="M124.79,616.5c1.88-5,4.88-9.35,7.48-13.87,11.91-20.67,23.93-41.28,35.77-62,2.24-3.91.92-7.34-2.6-10.11-11.31-8.9-22.62-17.82-33.82-26.86-14.11-11.39-28.11-22.93-40.78-36-4.2-4.32-4.2-4.46,1-7.38,15.11-8.51,31-15.41,46.77-22.59,7.29-3.33,14.51-6.82,21.88-10,5-2.16,6.38-5.69,5.51-10.82-2.86-16.93-5.57-33.89-8.3-50.84-1-6.49-1.94-13-3-19.5-.44-2.64.41-3.1,2.84-2.51,10.29,2.51,20.53,5.14,30.61,8.46,2.93,1,3.11,2.38,2.57,5a316.73,316.73,0,0,0-6.56,80.38c.17,3.54-.94,4.69-4.53,4.8a298.5,298.5,0,0,0-35.41,3.48c-3.32.51-6.27,1.33-7.44,5s.37,6.6,2.84,9.12c8.11,8.3,17.52,15,26.78,21.94,4,3,7.95,6,12.13,8.68,3.19,2,4.08,3.58,1.2,6.89-4.74,5.44-8.92,11.35-13.3,17.09-5.22,6.82-3.64,12,4.66,14.42A179.76,179.76,0,0,0,209,535.69c11.29.73,20,4.36,28.73,12.23,21.33,19.16,47,31.31,74.27,40,35.38,11.24,71.43,13.58,108,8.08,27.88-4.18,54.27-12.85,78.62-27.24,13.69-8.09,26.69-17.11,37-29.48,1.56-1.87,3.4-2,5.51-2.28,16.88-1.89,33.8-3.58,52.42-8.07-8.25,6.2-4,11-1,16.14q19.29,33,38.36,66.19c.83,1.44,2.71,3,1.72,4.62s-3.21,1.07-4.93.89c-18.44-1.93-36.87-3.85-55.29-5.88-8.13-.89-16.24-2-24.36-3-6.1-.77-8.86,1.53-9.63,7.76q-4.32,35.26-10.81,70.19c-.8,4.25-1.58,4.63-5.12,2.11-23.64-16.82-46.74-34.37-70.1-51.58-7.44-5.48-10.61-5.05-16.92,1.62-17.42,18.42-34.69,37-52.66,54.86-2.77,2.75-4.3,3-7.08-.08-16.65-18.47-32.92-37.25-48.56-56.58-4.47-5.52-6.94-5.91-12.94-1.77C287.8,652.59,261.32,670.71,235,689c-3.36,2.33-3.88,1.58-4.59-2-4.24-21.75-7.42-43.65-10.48-65.58-1.93-13.84-2.06-14-16-12.28-24.51,3.09-49.05,5.89-73.71,7.54C128.52,616.79,126.78,617.29,124.79,616.5Z"/><path class="cls-3" d="M600.24,523.55c1.08-4.41-.94-6.77-2.76-9.17-4.38-5.73-8.65-11.56-13.29-17.08-2.27-2.72-2.34-4.14.72-6.33,9.77-7,19.37-14.26,28.87-21.63,3.79-2.94,7.22-6.36,10.71-9.67,2.6-2.47,4-5.49,2.76-9.12-1.14-3.31-4-4.31-7.16-4.83a281,281,0,0,0-36.38-3.51c-3-.1-4-.6-3.89-4.08a310.56,310.56,0,0,0-6.73-80.79c-1-4.41-.16-6.41,4.23-7.47,7.17-1.73,14.28-3.72,21.34-5.88,3.37-1,3.35.21,2.89,2.92-3.83,22.43-7.49,44.9-11.36,67.33-.8,4.67.23,7.84,4.64,10.25,23,12.56,47.41,22.49,70.22,35.5,5.37,3.06,5.39,3.16,1.14,7.51-16.17,16.57-34.37,30.81-52.28,45.38C609.71,516.29,605.38,519.54,600.24,523.55Z"/></svg>