<svg id="Camada_1" data-name="Camada 1" xmlns="http://www.w3.org/2000/svg" viewBox="0 0 763.55 716.22"><defs><style>.cls-1{fill:#652e28;}.cls-2{fill:#7bcbe5;}.cls-3{fill:#2e94bc;}.cls-4{fill:#f9f4c2;}.cls-5{fill:#fff;}</style></defs><path class="cls-1" d="M746.78,156a719.58,719.58,0,0,0-200.39,77.12c-8.5,4.82-16.45,10.61-24.45,16.25-2.61,1.83-4.16,1.76-6.59-.28-23.13-19.4-49.28-33.65-77.53-44-5-1.83-7.3-3.37-7.93-9.26A1166,1166,0,0,0,406.43,58.39c-2.22-9.63-4.64-19.28-10.3-27.8-2.84-4.28-6.79-7.22-10.23-10.78h-7.23c-8.49,4.94-12.76,13.1-15.43,21.91a798.18,798.18,0,0,0-31,157.3c-.26,2.82-1.8,3.19-3.76,3.9-24.15,8.7-47.39,19.21-68.23,34.46a156,156,0,0,0-13,10.18c-2.58,2.35-4.27,2.08-7,.26A605.28,605.28,0,0,0,128.6,187.67a838.18,838.18,0,0,0-97.53-32.46c-5.78-1.55-11.86-2-17.72-3.25-4.92-1.09-8.62.41-11.65,4.19v4.13c2.1,1.21,1.91,3.49,2.39,5.39,11,43.39,22,86.77,32.69,130.23C39.52,307,43.14,317.26,51.19,326c20,21.66,32.64,47.77,43.58,74.8a319.36,319.36,0,0,1,21.37,85.6c.37,3.31,1.37,5.85,4.83,7q11.68,3.93,23.3,8.07c9.65,3.43,19.75,5.2,31.13,8.3-2.54,2-4.35,3.09-5.75,4.58-10.31,11-19,23-23.51,37.68-1.61,5.27-.94,9.47,3.17,13.49,8.48,8.29,16.8,16.76,24.87,25.46A191,191,0,0,1,209,643.58c2.15,4.83,4.72,6.67,9.77,5.83,9.12-1.51,18.09.25,27.08,1.53,3.36.48,15.57,4.61,19.37,6.45,17.91,8.69,32.9,21.16,46.78,35.14,2.91,2.93,5.71,4,9.56,1.71,31.9-18.82,65.05-22.75,99.72-8.19,5.52,2.32,11.16,4.21,15.5,8.83,2.72,2.9,6.87,1.46,10.07-2.51a116.89,116.89,0,0,1,46.42-35c2-.82,17.81-4.92,21.41-5.29,7.7-.78,15.42-1,23.15-1.22,4.06-.13,8.25-.41,10.44-5,5.4-11.33,12-22,18.86-32.46,11.62-17.91,27.19-32.32,42.25-47.15,2.93-2.9,4.18-5.8,3-10.07a68.75,68.75,0,0,0-5-13.45,161.27,161.27,0,0,0-21.23-30.76c1.47-.48,2.53-.87,3.62-1.17,16-4.46,32-9,47.69-14.6,3.37-1.19,5.1-3.15,5.67-6.47,1-5.91,2-11.83,3.06-17.72,6.82-37.62,18.36-73.55,39.22-105.9,9.64-14.95,18.76-30.44,33.32-41.55a11.46,11.46,0,0,0,3.93-6.46q16.5-67.21,33.26-134.36c1.63-6.5,2.17-13.43,5.94-19.3v-5.16C757.72,153.91,752.69,154.69,746.78,156ZM532.67,258.26c19.58-14.16,40.78-25.43,62.64-35.53,38-17.54,76.63-33.13,117.05-44.12,7.29-2,14.63-3.79,21.95-5.65a17,17,0,0,1,7.11,0,31.17,31.17,0,0,1-5.18,4.39C694.41,207.17,658.79,243,630.53,286.1c-16,24.32-29.64,49.91-43.14,75.62-.69,1.32-1,3-3,3.9-1.43-5.15-2.91-10.16-4.22-15.23-7.08-27.45-20.45-51.61-38.29-73.45-3.37-4.12-6.54-8.43-10.12-12.36C529.26,261.81,529.72,260.39,532.67,258.26Zm41.21,228.07c-7.3,42.63-28.69,76.32-67.47,97.16-23,12.38-48,19.33-73.91,23-16,2.25-32.2,2.77-46.29,2.93-30.65-.7-59.18-1.79-87-9.06s-54.1-18.21-75.4-38.42c-16.26-15.42-28.46-33.68-34-55.5a261.14,261.14,0,0,1-7.65-62.82,409.71,409.71,0,0,1,5.29-70.4c.34-2.07.72-4.08,2.26-5.63,15-15.15,29.15-31.17,47-43.23,11.43-7.73,23.84-13.67,35.82-20.38,2.83-1.59,4.27-.44,6,1.48a455.92,455.92,0,0,0,64.85,57.33,231.83,231.83,0,0,0,31.32,18.88c4,2.05,7.21,1.78,11.14-.05,26.82-12.47,49.89-30.26,71.58-50a349.9,349.9,0,0,0,26-26.55c2.21-2.48,3.81-2.3,6.5-.91,30.66,15.86,56.58,37.62,79.39,63.31,2.49,2.81,2.68,6.31,3.26,9.59C578.9,413.34,580.12,449.92,573.88,486.33ZM341,238.6c3.88-38.31,7.61-76.61,14.93-114.46,5.07-26.17,11.66-52,19.28-77.49a30.75,30.75,0,0,1,4.9-10.12c2-2.63,4.12-2.8,5.94.44,2.48,4.4,3.68,9.26,5.07,14,7.28,25,11.54,50.57,16,76.13,6,34.21,11.14,68.53,13.49,103.29,0,5.67-.15,11.34,0,17,.14,4.19-1.76,7-4.71,9.75-19.16,17.93-49.56,14.74-65.63,1.76C343.54,253.44,340,248.16,341,238.6Zm-14.84-20.26c3.53-1.25,4.09,0,3.81,3.27-.75,8.9-2.05,17.76-1.94,26.74a16.28,16.28,0,0,0,4,10.8c22.88,27.47,65.93,31.59,92.89,7.68,7-6.18,9.44-12.86,8.78-21.63s-.94-17.81-1.43-27.56c32,11.36,61,27.1,84.18,50.67,22.59,22.94,41,49.48,49.18,82.53-7-6.81-13.5-13.14-20.06-19.37-13.21-12.55-29-21.38-44.48-30.67-3.24-1.95-6.54-3.79-9.79-5.72-5.52-3.3-7.44-3.2-12,1.84-8.67,9.56-17.53,18.93-27,27.66-19.56,18-40.39,34.18-64.14,46.48-6,3.12-10.57,2.65-16.16-.45-24.89-13.77-46.41-31.92-67.2-51-8.1-7.45-15.8-15.33-23.14-23.54-2.23-2.49-4.73-4.2-8.09-2.31C259.72,301.46,245.27,308,232.19,317a213.66,213.66,0,0,0-28.38,23.77c-2.18,2.15-4.87,6.27-7.42,4.59-2.19-1.45.87-5.46,1.93-8.26,7-18.47,16.5-35.52,29.27-50.67C254.25,254.8,287.18,232.21,326.13,218.34ZM52.73,303Q39,249.1,25.43,195.19c-1.75-7-3.46-13.93-5.47-22.05,24.1,19.78,46.33,39.73,65.85,62.54a471.28,471.28,0,0,1,38.72,51.64,495.92,495.92,0,0,1,32.11,57.79c3.37,7.21,6.18,14.73,10.1,21.62,5.63,9.9,6,20.12,3.78,30.82-.23,1.11-.41,2.23-.73,4-5.73-6.41-11.12-12.33-16.39-18.35-26.66-30.47-58.87-53.61-94.85-71.73C54.73,309.54,53.6,306.43,52.73,303Zm64.33,120.33a382.54,382.54,0,0,0-35.13-79.79c-2.74-4.73-6.35-8.94-9.55-13.39-.27-.43-1.1-.81-.18-1.31.14-.08.6.45.9.7a223.64,223.64,0,0,1,47.23,32.75,410.6,410.6,0,0,1,46.22,49.12,10.78,10.78,0,0,1,2.52,7.5c-.19,8.93-.07,17.86-.07,26.44-.91.93-1.5.77-2.14.42-14.22-7.76-29.41-13.12-44.92-17.54C119,427.37,117.92,426.13,117.06,423.31Zm53.32,71.37a325,325,0,0,1-38.84-11.83c-1.62-.62-2.64-1.42-2.76-3.24-1-14.25-4.39-28.08-7.88-42.92,16.55,4.9,31.74,10.57,45.95,18.7a3.91,3.91,0,0,1,2.27,3.58c.77,11.15,1.49,22.32,3.95,33.26C173.66,494.82,172.6,495.23,170.38,494.68Zm4-131.21C142,287.06,94.67,221.63,29.68,169c9.08,2.54,18.22,4.89,27.24,7.64,40.69,12.41,80.16,27.88,118,47.46,19.4,10.06,37.81,21.79,56.06,33.79,1.91,1.26,2.87,2.33.76,4.29-29,26.86-45.37,60.8-55.28,98.38a17.23,17.23,0,0,1-.95,2.37C175.42,363.07,175.17,363.1,174.35,363.47Zm6.82,158.42a135,135,0,0,0,13.55,24.35c-11.93-.29-22.3,1.94-33.54,3.73C166.28,539.09,173,530.37,181.17,521.89Zm39.75,107.18c-2.33,4.09-3.25,1-4.21-.84A216.48,216.48,0,0,0,187.14,585c-8-9.13-16.49-17.87-25.75-26.91,12.32-2.6,23.84-4.32,35.57-4.25,1.35,0,2.53-.08,3.59,1.29a139.73,139.73,0,0,0,45.51,38.3A229.28,229.28,0,0,0,220.92,629.07Zm93.3,48C290,652.72,261.89,638,227,636c2.64-4.45,5-8.67,7.6-12.75a251.69,251.69,0,0,1,16.86-22.77c1.35-1.69,2.49-3.09,5.08-1.84a199.08,199.08,0,0,0,36.13,13.23,337.28,337.28,0,0,0,37.61,7.28C324.32,638.06,318.92,656.83,314.22,677.12Zm120.64,1.32c-.05,0-.36-.37-.55-.56-6.76-2.4-13.48-4.93-20.29-7.16-30.77-10.09-60.3-5.74-89,7.82-.77.37-1.55.71-2.33,1-.12,0-.3,0-1-.14,1.43-5.81,2.71-11.63,4.31-17.36,3.62-12.9,7.52-25.71,11-38.63.83-3.08,2.2-3.69,5-3.42a456.68,456.68,0,0,0,74.24,1c1.83-.13,3.79-.67,4.48,2,4.6,18.12,10.87,35.8,14.08,54.28C435.29,677.69,435.39,678.09,434.86,678.44Zm8.44-.59c-4-19.05-9.33-36.43-14.24-53.92-.81-2.87-1-4.2,2.62-4.59,24.24-2.67,47.29-9.78,69.74-19.06,1.72-.71,3.19-1.72,4.82.6,8.47,12,17.11,23.93,26,36.3C496.84,637.86,468.3,653,443.3,677.85Zm96.34-44.49c-3.12-4-5.8-7.22-8.25-10.61-5.74-7.93-11.28-16-17.12-23.88-1.72-2.32-1.35-3.15,1-4.62,15.66-9.87,29.8-21.51,41.08-36.33,1.91-2.52,3.83-3.08,7-2.59,10.67,1.69,21.4,2.93,33.35,4.5C573,581.34,553.75,604.88,539.64,633.36Zm57.15-81.43L565,547.69a185.69,185.69,0,0,0,12.73-24.59A138.79,138.79,0,0,1,596.79,551.93ZM636.5,452.1c-1.79,9.43-4,18.8-5.62,28.25-.49,2.76-1.49,4.29-4,5.19-13.25,4.66-26.82,8.19-41.05,12.36a253.74,253.74,0,0,0,4.58-35.58c.11-2.44,2-3.1,3.42-4.12,11.13-7.78,23.75-12.13,36.64-15.88,2.63-.76,5.29-1.4,8.28-2.19C638.86,444.38,637.24,448.18,636.5,452.1Zm37.24-93.19c-13.28,21-23,43.65-30.49,67.28-1.07,3.4-2.79,4.93-6,5.69-15.89,3.76-31.35,8.67-46,17.72,0-7.29.94-14.2-.21-20.74-1.95-11.15,2.8-18.35,10.32-25.84,18.89-18.8,37-38.41,59.43-53.2,10.18-6.72,20.85-12.6,31.74-18.34C686.14,340.58,679.65,349.55,673.74,358.91Zm56.19-127.57q-9.4,37.95-18.66,76A9.57,9.57,0,0,1,706,314.2c-19.51,10.47-39.15,20.71-57.21,33.67-13.61,9.76-25.64,21.27-37.54,33-7.06,6.95-14.63,13.38-21.56,19.67-.69-5.2-1.63-11.91-2.42-18.63a5.77,5.77,0,0,1,.94-2.87c19.5-38,39.16-76,65.1-110.23a376.91,376.91,0,0,1,85.9-82.6c.52-.36,1.12-.63,2.35-1.3C737.59,200.8,733.71,216.06,729.93,231.34Z"/><path class="cls-2" d="M386.21,609.37c-30.65-.7-59.18-1.79-87-9.06s-54.1-18.21-75.4-38.42c-16.26-15.42-28.46-33.68-34-55.5a261.14,261.14,0,0,1-7.65-62.82,409.71,409.71,0,0,1,5.29-70.4c.34-2.07.72-4.08,2.26-5.63,15-15.15,29.15-31.17,47-43.23,11.43-7.73,23.84-13.67,35.82-20.38,2.83-1.59,4.27-.44,6,1.48a455.92,455.92,0,0,0,64.85,57.33,231.83,231.83,0,0,0,31.32,18.88c4,2.05,7.21,1.78,11.14-.05,26.82-12.47,49.89-30.26,71.58-50a349.9,349.9,0,0,0,26-26.55c2.21-2.48,3.81-2.3,6.5-.91,30.66,15.86,56.58,37.62,79.39,63.31,2.49,2.81,2.68,6.31,3.26,9.59,6.36,36.37,7.58,72.95,1.34,109.36-7.3,42.63-28.69,76.32-67.47,97.16-23,12.38-48,19.33-73.91,23C416.46,608.69,400.3,609.21,386.21,609.37Z"/><path class="cls-3" d="M432.25,217.64c32,11.36,61,27.1,84.18,50.67,22.59,22.94,41,49.48,49.18,82.53-7-6.81-13.5-13.14-20.06-19.37-13.21-12.55-29-21.38-44.48-30.67-3.24-1.95-6.54-3.79-9.79-5.72-5.52-3.3-7.44-3.2-12,1.84-8.67,9.56-17.53,18.93-27,27.66-19.56,18-40.39,34.18-64.14,46.48-6,3.12-10.57,2.65-16.16-.45-24.89-13.77-46.41-31.92-67.2-51-8.1-7.45-15.8-15.33-23.14-23.54-2.23-2.49-4.73-4.2-8.09-2.31C259.72,301.46,245.27,308,232.19,317a213.66,213.66,0,0,0-28.38,23.77c-2.18,2.15-4.87,6.27-7.42,4.59-2.19-1.45.87-5.46,1.93-8.26,7-18.47,16.5-35.52,29.27-50.67,26.66-31.64,59.59-54.23,98.54-68.1,3.53-1.25,4.09,0,3.81,3.27-.75,8.9-2.05,17.76-1.94,26.74a16.28,16.28,0,0,0,4,10.8c22.88,27.47,65.93,31.59,92.89,7.68,7-6.18,9.44-12.86,8.78-21.63S432.74,227.39,432.25,217.64Z"/><path class="cls-3" d="M420.6,230.41c0,5.67-.15,11.34,0,17,.14,4.19-1.76,7-4.71,9.75-19.16,17.93-49.56,14.74-65.63,1.76-6.77-5.48-10.31-10.76-9.34-20.32,3.88-38.31,7.61-76.61,14.93-114.46,5.07-26.17,11.66-52,19.28-77.49a30.75,30.75,0,0,1,4.9-10.12c2-2.63,4.12-2.8,5.94.44,2.48,4.4,3.68,9.26,5.07,14,7.28,25,11.54,50.57,16,76.13C413.1,161.33,418.25,195.65,420.6,230.41Z"/><path class="cls-3" d="M584.43,365.62c-1.43-5.15-2.91-10.16-4.22-15.23-7.08-27.45-20.45-51.61-38.29-73.45-3.37-4.12-6.54-8.43-10.12-12.36-2.54-2.77-2.08-4.19.87-6.32,19.58-14.16,40.78-25.43,62.64-35.53,38-17.54,76.63-33.13,117.05-44.12,7.29-2,14.63-3.79,21.95-5.65a17,17,0,0,1,7.11,0,31.17,31.17,0,0,1-5.18,4.39C694.41,207.17,658.79,243,630.53,286.1c-16,24.32-29.64,49.91-43.14,75.62C586.7,363,586.41,364.7,584.43,365.62Z"/><path class="cls-3" d="M174.35,363.47C142,287.06,94.67,221.63,29.68,169c9.08,2.54,18.22,4.89,27.24,7.64,40.69,12.41,80.16,27.88,118,47.46,19.4,10.06,37.81,21.79,56.06,33.79,1.91,1.26,2.87,2.33.76,4.29-29,26.86-45.37,60.8-55.28,98.38a17.23,17.23,0,0,1-.95,2.37C175.42,363.07,175.17,363.1,174.35,363.47Z"/><path class="cls-4" d="M20,173.14c24.1,19.78,46.33,39.73,65.85,62.54a471.28,471.28,0,0,1,38.72,51.64,495.92,495.92,0,0,1,32.11,57.79c3.37,7.21,6.18,14.73,10.1,21.62,5.63,9.9,6,20.12,3.78,30.82-.23,1.11-.41,2.23-.73,4-5.73-6.41-11.12-12.33-16.39-18.35-26.66-30.47-58.87-53.61-94.85-71.73-3.82-1.92-4.95-5-5.82-8.48Q39,249.1,25.43,195.19C23.68,188.23,22,181.26,20,173.14Z"/><path class="cls-4" d="M741.58,184.9c-4,15.9-7.87,31.16-11.65,46.44q-9.4,37.95-18.66,76A9.57,9.57,0,0,1,706,314.2c-19.51,10.47-39.15,20.71-57.21,33.67-13.61,9.76-25.64,21.27-37.54,33-7.06,6.95-14.63,13.38-21.56,19.67-.69-5.2-1.63-11.91-2.42-18.63a5.77,5.77,0,0,1,.94-2.87c19.5-38,39.16-76,65.1-110.23a376.91,376.91,0,0,1,85.9-82.6C739.75,185.84,740.35,185.57,741.58,184.9Z"/><path class="cls-5" d="M434.31,677.88c-6.76-2.4-13.48-4.93-20.29-7.16-30.77-10.09-60.3-5.74-89,7.82-.77.37-1.55.71-2.33,1-.12,0-.3,0-1-.14,1.43-5.81,2.71-11.63,4.31-17.36,3.62-12.9,7.52-25.71,11-38.63.83-3.08,2.2-3.69,5-3.42a456.68,456.68,0,0,0,74.24,1c1.83-.13,3.79-.67,4.48,2,4.6,18.12,10.87,35.8,14.08,54.28Z"/><path class="cls-4" d="M692.51,331.48c-6.37,9.1-12.86,18.07-18.77,27.43-13.28,21-23,43.65-30.49,67.28-1.07,3.4-2.79,4.93-6,5.69-15.89,3.76-31.35,8.67-46,17.72,0-7.29.94-14.2-.21-20.74-1.95-11.15,2.8-18.35,10.32-25.84,18.89-18.8,37-38.41,59.43-53.2C671,343.1,681.62,337.22,692.51,331.48Z"/><path class="cls-5" d="M314.22,677.12C290,652.72,261.89,638,227,636c2.64-4.45,5-8.67,7.6-12.75a251.69,251.69,0,0,1,16.86-22.77c1.35-1.69,2.49-3.09,5.08-1.84a199.08,199.08,0,0,0,36.13,13.23,337.28,337.28,0,0,0,37.61,7.28C324.32,638.06,318.92,656.83,314.22,677.12Z"/><path class="cls-4" d="M73.1,329.52a223.64,223.64,0,0,1,47.23,32.75,410.6,410.6,0,0,1,46.22,49.12,10.78,10.78,0,0,1,2.52,7.5c-.19,8.93-.07,17.86-.07,26.44-.91.93-1.5.77-2.14.42-14.22-7.76-29.41-13.12-44.92-17.54-2.92-.84-4-2.08-4.88-4.9a382.54,382.54,0,0,0-35.13-79.79c-2.74-4.73-6.35-8.94-9.55-13.39A5.28,5.28,0,0,0,73.1,329.52Z"/><path class="cls-5" d="M443.3,677.85c-4-19.05-9.33-36.43-14.24-53.92-.81-2.87-1-4.2,2.62-4.59,24.24-2.67,47.29-9.78,69.74-19.06,1.72-.71,3.19-1.72,4.82.6,8.47,12,17.11,23.93,26,36.3C496.84,637.86,468.3,653,443.3,677.85Z"/><path class="cls-5" d="M161.39,558.1c12.32-2.6,23.84-4.32,35.57-4.25,1.35,0,2.53-.08,3.59,1.29a139.73,139.73,0,0,0,45.51,38.3,229.28,229.28,0,0,0-25.14,35.63c-2.33,4.09-3.25,1-4.21-.84A216.48,216.48,0,0,0,187.14,585C179.1,575.88,170.65,567.14,161.39,558.1Z"/><path class="cls-5" d="M596.66,559.83c-23.64,21.51-42.91,45-57,73.53-3.12-4-5.8-7.22-8.25-10.61-5.74-7.93-11.28-16-17.12-23.88-1.72-2.32-1.35-3.15,1-4.62,15.66-9.87,29.8-21.51,41.08-36.33,1.91-2.52,3.83-3.08,7-2.59C574,557,584.71,558.26,596.66,559.83Z"/><path class="cls-4" d="M120.9,436.69c16.55,4.9,31.74,10.57,45.95,18.7a3.91,3.91,0,0,1,2.27,3.58c.77,11.15,1.49,22.32,3.95,33.26.59,2.59-.47,3-2.69,2.45a325,325,0,0,1-38.84-11.83c-1.62-.62-2.64-1.42-2.76-3.24C127.78,465.36,124.39,451.53,120.9,436.69Z"/><path class="cls-4" d="M585.78,497.9a253.74,253.74,0,0,0,4.58-35.58c.11-2.44,2-3.1,3.42-4.12,11.13-7.78,23.75-12.13,36.64-15.88,2.63-.76,5.29-1.4,8.28-2.19.16,4.25-1.46,8.05-2.2,12-1.79,9.43-4,18.8-5.62,28.25-.49,2.76-1.49,4.29-4,5.19C613.58,490.2,600,493.73,585.78,497.9Z"/><path class="cls-5" d="M194.72,546.24c-11.93-.29-22.3,1.94-33.54,3.73,5.1-10.88,11.84-19.6,20-28.08A134.39,134.39,0,0,0,194.72,546.24Z"/><path class="cls-5" d="M577.69,523.1a138.79,138.79,0,0,1,19.1,28.83L565,547.69A185.69,185.69,0,0,0,577.69,523.1Z"/><path class="cls-4" d="M72.38,330.13c-.27-.43-1.1-.81-.18-1.31.14-.08.6.45.9.7A5.28,5.28,0,0,1,72.38,330.13Z"/><path class="cls-5" d="M434.86,677.31c.43.38.53.78,0,1.13-.05,0-.36-.37-.55-.56Z"/></svg>