<svg id="Camada_1" data-name="Camada 1" xmlns="http://www.w3.org/2000/svg" viewBox="0 0 763.55 716.22"><defs><style>.cls-1{fill:#582a1b;}.cls-2{fill:#e0482a;}.cls-3{fill:#f9e85c;}</style></defs><path class="cls-1" d="M739.91,19C737.56,6.35,728.4-1.87,714.52.66a121.49,121.49,0,0,0-21.1,6.27C680,12,667.47,18.93,655.11,26.17a319.07,319.07,0,0,0-47.83,34.27c-3.24,2.81-4.1,1.89-4.87-1.62a26.74,26.74,0,0,0-2.19-6.22c-5.91-11.79-11.09-14.8-21.35-10.05-4,1.82-7.37,5.2-10.45,8.42-8.47,8.85-14.77,19.34-20.94,29.82a396.91,396.91,0,0,0-29.38,61.55C513.66,154.1,509,165.83,506,178.08c-2.59,10.69-6.12,21.16-7.46,32.17-.28,2.24.42,6.62-3.48,6.17a11.43,11.43,0,0,1-8.07-4.31c-6.94-8.92-14.09-17.74-24.11-23.63-5.62-3.31-9.08-7.29-7.39-15a95.18,95.18,0,0,0,1.75-24.08A291.69,291.69,0,0,0,454.15,118c-1.74-12-7.43-16-17.85-13a20.36,20.36,0,0,0-8.54,5.34,166,166,0,0,1-23.55,19c-11,7.44-23.12,13.12-34.51,20-15.43,9.26-31.61,17.15-47.07,26.41-15.85,9.5-30.48,20.08-42.13,34.42-3,3.74-6.65,5.61-11,7.22-3.76,1.39-4.57,0-5-3-1.13-8.93-3.89-17.48-6.71-25.92-4-11.92-8.4-23.7-12.71-35.5-6.38-17.47-14.65-34-22.81-50.57C217.82,93.27,212.38,84.64,207,76c-6-9.77-12.44-19.32-20.78-27.11s-16.11-7.27-22.57,3.45c-2.35,3.9-2.62,8.49-4.82,12.46-1.09,2-1.73,2.08-3.31.94-5.48-4-11-7.85-16.47-11.81-9.38-6.79-18.82-13.51-28.9-19.19C98,27.85,85.92,20.91,73.1,15.25,62.53,10.59,52,6.35,40.24,6c-7.3-.25-12.47,3.73-15,10.62C22.21,24.92,23,33.46,22.74,42c-.45,13.75,2.45,27.16,4.58,40.58,2.5,15.79,5.87,31.49,9.84,47,4.42,17.19,9.08,34.37,15.22,51.06,9,24.59,19.26,48.52,33.3,70.91,10.4,16.57,24.61,28,41.25,36.79,20.39,10.8,41,21.2,62.74,29.19,4.67,1.72,4.39,4.52,2.62,7.95-6.29,12.21-9.51,25.52-13.92,38.41-1.92,5.61-1.64,12.21-6.73,16.56-9.22,7.88-15.57,18-21.61,28.26-7.18,12.26-11.83,25.53-15.14,39.25-.79,3.28-1.75,3.12-3.68,1.41-9.73-8.63-17.52-5.17-23,3.8C104,460,100.33,467,98.84,475.47c-1.11,6.4-2.52,12.74-2.56,19.25-.09,12.68,3.16,24.71,7.39,36.54A97,97,0,0,0,119,559.52c8,10.06,17.48,18.47,29.4,23.85,1.39.63,3.45,1,4,2.79,4.58,15.54,14.38,28,23.88,40.63,10.41,13.83,23,25.41,36.69,36,13.54,10.48,62.46,35.72,66.44,36.94,10.54,3.21,21.11,6.41,31.82,9a222.43,222.43,0,0,0,40.22,5.93c1,.06,2,.22,3.05.26,4.81.18,28.56,1.11,31.09,1.11v-.12h4.06c4.49,0,21.69-1,26.79-1.45a296.68,296.68,0,0,0,62.7-12.39c4.05-1.25,7.92-3.06,12-4.38,1.22-.4,18.48-8.44,20.62-9.49,2.84-1.39,5.66-2.79,8.47-4.23a200.51,200.51,0,0,0,35.37-22.71,222.23,222.23,0,0,0,27.71-26.58c12.34-14.27,22.66-29.63,29.12-47.39,1-2.74,2.3-4.22,5-5.09,14.89-4.92,26.89-14.13,36.76-26,9.72-11.7,15.25-25.39,18.34-40.32a95,95,0,0,0,.72-32.93c-1.69-11.83-5.24-23.2-12.11-33.51-5.75-8.63-16.1-13.46-24-4.17-1.31,1.54-2.81,1.5-3.29-.71-2-9.24-5.64-17.81-9.72-26.32-6.55-13.69-14.4-26.4-24.74-37.55-3.83-4.12-7.7-7.94-9.18-14a256.22,256.22,0,0,0-17.3-49c-1.36-2.86-1.53-5.33,2.16-7.16,8.71-4.34,17.38-8.81,25.8-13.68C619,286.3,636.79,275,654.43,263.38c13-8.58,23.71-18.9,30.89-33,5.41-10.66,10.77-21.24,15.35-32.32,6.05-14.64,11.38-29.47,16.41-44.46,4.23-12.59,8.14-25.29,11.13-38.16,3.71-16,7.7-31.95,9.31-48.48.92-9.36,3.3-18.65,3.2-25.58C740.88,32.13,741.11,25.48,739.91,19ZM281.52,232.9c10-18.6,25.31-31.76,42.89-42.61,23.68-14.62,48.85-26.62,72.56-41.21,13.93-8.57,27.24-17.92,38.9-29.49.92-.91,1.6-2.58,3.17-2.21,1.8.43,1.8,2.33,2.06,3.77,8,43.75-.12,83.35-31,116.58-3.65,3.92-2.44,7.53-2.44,11,0,3.65,7.88,4.15,11.21.54a163,163,0,0,0,23.31-32.09A94.69,94.69,0,0,0,449.89,200c.89-2.85,2-3.23,4.59-1.3,19.32,14.6,32.08,33.6,38.67,56.84,3.12,11,5,22.2,4.79,30.24,1.85,53.75-29.31,95.73-78.88,109-37,9.91-72.37,6.1-104.44-15.74-25.84-17.61-40.44-42.85-44.37-73.75C267.07,280.26,269.28,255.75,281.52,232.9ZM597.16,450.48c2.41-15.9,2.27-31.81.72-49.27,6.1,7.07,9.8,14.08,13.28,21.1,7,14.11,11.59,29,12.52,44.83a10.26,10.26,0,0,1-2.24,7.54c-5.39,6.71-12.08,11.89-19,16.88-4.45,3.21-4.36,8.5-.13,11.49,2.75,1.95,5.38,1.41,8.06-.28,16.07-10.13,28.18-23.37,33.47-42.08.66-2.34.57-5.93,3.44-6.3,3.34-.43,4.69,3.07,5.82,5.59,15.19,34,9,71.78-17.59,96-11.25,10.26-24.95,15.67-39.69,18.58-4,.8-7.47,2-7.76,6.57s2,7.22,6.87,7.75c3.4.37,1.11,2.57.57,3.68A144.48,144.48,0,0,1,576,622.31c-33.31,39.29-76.3,61.78-126,72.69-36.4,8-73.14,9.07-110,4.5a260.5,260.5,0,0,1-71.13-19.32,214.08,214.08,0,0,1-75.11-53.43c-9.34-10.33-17.64-21.56-23.91-34.13-.93-1.86-1.75-3.17.22-5.31,4.33-4.68,2.88-10.31-3.33-11.61-44.38-9.3-65.93-70.56-52.83-107.72a30.81,30.81,0,0,1,4.21-8.69c.84-1.09,1.79-2.17,3.37-1.89s2.11,1.63,2.36,3c3.87,20.95,17.07,34.92,34.32,45.85,4.47,2.83,8,2.32,10.66-1.46,2.43-3.39,1.75-6.82-2.68-10-6.8-4.82-13.52-9.64-18.75-16.27a9.82,9.82,0,0,1-2.23-6.51,94.82,94.82,0,0,1,6.56-34.35c4-10.27,8.51-20.52,14.86-29.75.79-1.15,1.4-1.78,3-1.5-.61,7-2.17,14.1-1.62,21,1.13,14.34,2.15,28.71,5.91,42.79a150,150,0,0,0,37.58,66.39c28.22,29.33,63.47,46.06,102.24,56.15a270,270,0,0,0,124.86,3.09,244.71,244.71,0,0,0,48.62-15.08c18.33-8.07,36-17.46,51.45-30.29A177.25,177.25,0,0,0,570.89,516,151.48,151.48,0,0,0,597.16,450.48ZM725.92,59.76c-3.25,24.75-9.33,48.91-16.09,72.91A484.8,484.8,0,0,1,693,182.08c-7.51,18.67-15.16,37.41-27,54-5.23,7.35-13,11.77-20.23,16.79-15.86,11.07-32.61,20.78-49.23,30.66-11.62,6.91-23.76,13-35.73,19.3-5.8,3.05-7.05,6.17-4.31,11.81,13.8,28.42,23.76,58.1,27.13,89.56,2.81,26.24.89,52.25-9.4,77-9.68,23.25-24.64,42.57-44.21,58.48-27.08,22-58.44,34.66-92.07,42a251.41,251.41,0,0,1-59.9,5.82,280.1,280.1,0,0,1-67.6-10c-27.77-7.6-53.31-19.79-75.78-38.07A140.88,140.88,0,0,1,190.79,478c-9.54-25.93-10.45-53-6.21-80.23,4.06-26.2,12.8-50.91,23.25-75.11a30.91,30.91,0,0,0,1.86-5.78c.87-4.09-.68-6.91-4.73-8.32a387.63,387.63,0,0,1-48.25-20.31c-15.7-8-32-15.15-45.47-26.74-7.86-6.75-13.2-15.64-18.65-24.44-8.07-13-14.12-27-19.94-41.05q-7-16.86-12.3-34.42C54.58,142.5,49,123.34,44.86,103.85,42,90.48,39.34,77,37.83,63.39c-1.3-11.84-2.38-23.66-2-35.58C36.16,19.1,39,17,47.48,19c10.25,2.33,19,7.92,28.13,12.65a492.45,492.45,0,0,1,55.2,33.45C138,70,144.66,75.63,151.56,81c.27.21.48.48.74.7,9.46,7.71,14.45,6,17.54-5.71,1.07-4.06,2.55-8.06,4-12,1.83-5,3.87-3.68,6.42-1.26,5.49,5.19,9.13,11.79,13.23,18,7.82,11.83,13.88,24.66,20.71,37.05a346.72,346.72,0,0,1,20.4,45.21C242.55,184,250,205.28,253.4,227.67c.77,5,2.45,8.71,7.86,9.73,1.55.29,2.36.87,1.53,2.79-6.07,13.94-7.82,28.85-8,43.74-.28,24.85,3.91,48.79,17.23,70.57,16.2,26.48,39.76,42.72,68.82,52.18a145.71,145.71,0,0,0,45,7.07c38.43-.95,71.71-14.14,97.63-43,14.58-16.25,23.34-35.64,26.62-57.53a145.05,145.05,0,0,0-.31-47.14,115.9,115.9,0,0,0-7.07-25.4c-1.29-3-1.25-5.07,2.26-6.38,6.07-2.27,5-8.35,5.49-12.73,3.45-28.72,12.54-55.69,23.38-82.31A452.79,452.79,0,0,1,554.49,95c6.83-12.68,14.56-24.83,24.21-35.64a22.14,22.14,0,0,1,2.91-2.82c2.95-2.29,5.32-2.06,6.55,1.83,1.39,4.36,2.73,8.74,4.07,13.11.25.81.34,1.66.59,2.47,3.08,9.73,8,10.81,15.4,3.77a294.09,294.09,0,0,1,57.52-42.51,281.42,281.42,0,0,1,40.84-19.4,45.84,45.84,0,0,1,12.95-2.33c4.35-.28,7.11,3.86,7.65,9.75C728.29,35.48,727.51,47.68,725.92,59.76Z"/><path class="cls-2" d="M385.89,413.75c38.43-.95,71.71-14.14,97.63-43,14.58-16.25,23.34-35.64,26.62-57.53a145.05,145.05,0,0,0-.31-47.14,115.9,115.9,0,0,0-7.07-25.4c-1.29-3-1.25-5.07,2.26-6.38,6.07-2.27,5-8.35,5.49-12.73,3.45-28.72,12.54-55.69,23.38-82.31A452.79,452.79,0,0,1,554.49,95c6.83-12.68,14.56-24.83,24.21-35.64a22.14,22.14,0,0,1,2.91-2.82c2.95-2.29,5.32-2.06,6.55,1.83,1.39,4.36,2.73,8.74,4.07,13.11.25.81.34,1.66.59,2.47,3.08,9.73,8,10.81,15.4,3.77a294.09,294.09,0,0,1,57.52-42.51,281.42,281.42,0,0,1,40.84-19.4,45.84,45.84,0,0,1,12.95-2.33c4.35-.28,7.11,3.86,7.65,9.75,1.11,12.23.33,24.43-1.26,36.51-3.25,24.75-9.33,48.91-16.09,72.91A484.8,484.8,0,0,1,693,182.08c-7.51,18.67-15.16,37.41-27,54-5.23,7.35-13,11.77-20.23,16.79-15.86,11.07-32.61,20.78-49.23,30.66-11.62,6.91-23.76,13-35.73,19.3-5.8,3.05-7.05,6.17-4.31,11.81,13.8,28.42,23.76,58.1,27.13,89.56,2.81,26.24.89,52.25-9.4,77-9.68,23.25-24.64,42.57-44.21,58.48-27.08,22-58.44,34.66-92.07,42a251.41,251.41,0,0,1-59.9,5.82,280.1,280.1,0,0,1-67.6-10c-27.77-7.6-53.31-19.79-75.78-38.07A140.88,140.88,0,0,1,190.79,478c-9.54-25.93-10.45-53-6.21-80.23,4.06-26.2,12.8-50.91,23.25-75.11a30.91,30.91,0,0,0,1.86-5.78c.87-4.09-.68-6.91-4.73-8.32a387.63,387.63,0,0,1-48.25-20.31c-15.7-8-32-15.15-45.47-26.74-7.86-6.75-13.2-15.64-18.65-24.44-8.07-13-14.12-27-19.94-41.05q-7-16.86-12.3-34.42C54.58,142.5,49,123.34,44.86,103.85,42,90.48,39.34,77,37.83,63.39c-1.3-11.84-2.38-23.66-2-35.58C36.16,19.1,39,17,47.48,19c10.25,2.33,19,7.92,28.13,12.65a492.45,492.45,0,0,1,55.2,33.45C138,70,144.66,75.63,151.56,81c.27.21.48.48.74.7,9.46,7.71,14.45,6,17.54-5.71,1.07-4.06,2.55-8.06,4-12,1.83-5,3.87-3.68,6.42-1.26,5.49,5.18,9.13,11.79,13.23,18,7.82,11.83,13.88,24.66,20.71,37.05a346.72,346.72,0,0,1,20.4,45.21C242.55,184,250,205.28,253.4,227.67c.77,5,2.45,8.71,7.86,9.73,1.55.29,2.36.87,1.53,2.79-6.07,13.94-7.82,28.85-8,43.74-.28,24.85,3.91,48.79,17.23,70.57,16.2,26.48,39.76,42.72,68.82,52.18A145.71,145.71,0,0,0,385.89,413.75ZM701.26,60.67c.54-6-2-9.61-6.19-8.51a62.82,62.82,0,0,0-10.54,3.64,382.66,382.66,0,0,0-35.92,19,230.9,230.9,0,0,0-46.7,37.55c-17.33,18-32.81,37.74-45.14,59.79A407.24,407.24,0,0,0,532.07,225c-2,5-1.79,11.57-8.43,14.24-4.53,1.83-5.87,6-3.76,10s6,4.66,9.62,2.88c9.45-4.61,19.68-6.31,29.73-8.71,1.76-.42,4-1.41,5.2.29.94,1.34-.37,3.22-1.06,4.75-4.63,10.37-11.75,19-19.52,27.06-3.9,4.07-4.32,7.25-1.19,10.62,3.54,3.81,7.07,3.74,11.39-.34,1.85-1.75,3.62-3.6,5.31-5.5,5.19-5.86,9.75-11.76,17.79-15a254,254,0,0,0,52.07-28.65c9.36-6.64,19.41-12.78,25.39-23.11,6.61-11.46,11.72-23.66,16.45-36a558.72,558.72,0,0,0,20-62C695.66,97.48,700.36,79.45,701.26,60.67ZM60.66,66.79A395.76,395.76,0,0,0,72.73,126.4c7.62,27.1,16,53.92,28.69,79.2,5.34,10.66,11,21.3,20.71,28.59,7.52,5.67,15.88,10.3,24.13,14.93,13.27,7.47,26.56,15.05,41.1,19.81,6.49,2.12,10.75,5.54,13.24,11.92,1.32,3.38,2.92,6.84,5.79,9.5s5.68,3.77,9.05,1.3c3.63-2.65,4.6-6.68,2.11-10.17a61.17,61.17,0,0,1-4.14-7.56c-4-7.8-8.35-15.5-10.71-24.07-.9-3.27.05-4.61,3.43-3.85,4.3,1,8.67,1.47,13,2.64,5.93,1.63,11.36,4.54,17.25,6.18,3.7,1,7,0,8.63-3.57s1.1-7-2.85-9.1c-1.49-.79-2.91-2-4.48-2.29-2.67-.45-3.73-2.11-4.43-4.32-5.86-18.53-14.65-35.69-24.49-52.36a355.58,355.58,0,0,0-50.25-66.3,249.24,249.24,0,0,0-57.92-44.34c-10.63-6-21.58-11.31-33.26-15-3.79-1.19-5.89.57-6.58,4.15A27.87,27.87,0,0,0,60.66,66.79Z"/><path class="cls-3" d="M597.88,401.21c6.1,7.07,9.8,14.08,13.28,21.1,7,14.11,11.59,29,12.52,44.83a10.26,10.26,0,0,1-2.24,7.54c-5.39,6.71-12.08,11.89-19,16.88-4.45,3.21-4.36,8.5-.13,11.49,2.75,1.95,5.38,1.41,8.06-.28,16.07-10.13,28.18-23.37,33.47-42.08.66-2.34.57-5.93,3.44-6.3,3.34-.43,4.69,3.07,5.82,5.59,15.19,34,9,71.78-17.59,96-11.25,10.26-24.95,15.67-39.69,18.58-4,.8-7.47,2-7.76,6.57s2,7.22,6.87,7.75c3.4.37,1.11,2.57.57,3.68A144.48,144.48,0,0,1,576,622.31c-33.31,39.29-76.3,61.78-126,72.69-36.4,8-73.14,9.08-110,4.5a260.5,260.5,0,0,1-71.13-19.32,214.08,214.08,0,0,1-75.11-53.43c-9.34-10.33-17.64-21.56-23.91-34.13-.93-1.86-1.75-3.17.22-5.31,4.33-4.68,2.88-10.31-3.33-11.61-44.38-9.3-65.93-70.56-52.83-107.72a30.81,30.81,0,0,1,4.21-8.69c.84-1.09,1.79-2.17,3.37-1.89s2.11,1.63,2.36,3c3.87,20.95,17.07,34.92,34.32,45.85,4.47,2.83,8,2.32,10.66-1.46,2.43-3.39,1.75-6.82-2.68-10-6.8-4.82-13.52-9.64-18.75-16.27a9.82,9.82,0,0,1-2.23-6.51,94.82,94.82,0,0,1,6.56-34.35c4-10.27,8.51-20.52,14.86-29.75.79-1.15,1.4-1.78,3-1.5-.61,7-2.17,14.1-1.62,21,1.13,14.34,2.15,28.71,5.91,42.79a150,150,0,0,0,37.58,66.39c28.22,29.33,63.47,46.06,102.24,56.15a270,270,0,0,0,124.86,3.09,244.71,244.71,0,0,0,48.62-15.08c18.33-8.07,36-17.46,51.45-30.29A177.25,177.25,0,0,0,570.89,516a151.48,151.48,0,0,0,26.27-65.53C599.57,434.58,599.43,418.67,597.88,401.21Z"/><path class="cls-3" d="M497.94,285.78c1.85,53.75-29.31,95.73-78.88,109-37,9.91-72.37,6.1-104.44-15.74-25.84-17.61-40.44-42.85-44.37-73.75-3.18-25.05-1-49.56,11.27-72.41,10-18.6,25.31-31.76,42.89-42.61,23.68-14.62,48.85-26.62,72.56-41.21,13.93-8.57,27.24-17.92,38.9-29.49.92-.91,1.6-2.58,3.17-2.21,1.8.43,1.8,2.33,2.06,3.77,8,43.75-.12,83.35-31,116.58-3.65,3.92-2.44,7.53-2.44,11,0,3.65,7.88,4.15,11.21.54a163,163,0,0,0,23.31-32.09A94.69,94.69,0,0,0,449.89,200c.89-2.85,2-3.23,4.59-1.3,19.32,14.6,32.08,33.6,38.67,56.84C496.27,266.55,498.15,277.74,497.94,285.78Z"/><path class="cls-1" d="M701.26,60.67c-.9,18.78-5.6,36.81-10.23,54.9a558.72,558.72,0,0,1-20,62c-4.73,12.33-9.84,24.53-16.45,36-6,10.33-16,16.47-25.39,23.11a254,254,0,0,1-52.07,28.65c-8,3.23-12.6,9.13-17.79,15-1.69,1.9-3.46,3.75-5.31,5.5-4.32,4.08-7.85,4.15-11.39.34-3.13-3.37-2.71-6.55,1.19-10.62,7.77-8.1,14.89-16.69,19.52-27.06.69-1.53,2-3.41,1.06-4.75-1.2-1.7-3.44-.71-5.2-.29-10.05,2.4-20.28,4.1-29.73,8.71-3.66,1.78-7.45,1.22-9.62-2.88s-.77-8.15,3.76-10c6.64-2.67,6.48-9.19,8.43-14.24a407.24,407.24,0,0,1,24.7-52.83c12.33-22,27.81-41.74,45.14-59.79a230.9,230.9,0,0,1,46.7-37.55,382.66,382.66,0,0,1,35.92-19,62.82,62.82,0,0,1,10.54-3.64C699.22,51.06,701.8,54.68,701.26,60.67Z"/><path class="cls-1" d="M60.66,66.79a27.87,27.87,0,0,1,.05-5.09c.69-3.58,2.79-5.34,6.58-4.15,11.68,3.68,22.63,9,33.26,15a249.24,249.24,0,0,1,57.92,44.34,355.58,355.58,0,0,1,50.25,66.3c9.84,16.67,18.63,33.83,24.49,52.36.7,2.21,1.76,3.87,4.43,4.32,1.57.27,3,1.5,4.48,2.29,3.95,2.09,4.49,5.53,2.85,9.1s-4.93,4.6-8.63,3.57c-5.89-1.64-11.32-4.55-17.25-6.18-4.29-1.17-8.66-1.67-13-2.64-3.38-.76-4.33.58-3.43,3.85,2.36,8.57,6.66,16.27,10.71,24.07a61.17,61.17,0,0,0,4.14,7.56c2.49,3.49,1.52,7.52-2.11,10.17-3.37,2.47-6.21,1.33-9.05-1.3s-4.47-6.12-5.79-9.5c-2.49-6.38-6.75-9.8-13.24-11.92-14.54-4.76-27.83-12.34-41.1-19.81-8.25-4.63-16.61-9.26-24.13-14.93-9.68-7.29-15.37-17.93-20.71-28.59-12.66-25.28-21.07-52.1-28.69-79.2A395.76,395.76,0,0,1,60.66,66.79Z"/></svg>