<svg id="Camada_1" data-name="Camada 1" xmlns="http://www.w3.org/2000/svg" viewBox="0 0 763.55 716.22"><defs><style>.cls-1{fill:#652e28;}.cls-2{fill:#cad5d8;}.cls-3{fill:#3a7c95;}.cls-4{fill:#5fb4e2;}</style></defs><path class="cls-1" d="M749.57,4c-4.28-1.34-8.28,0-12.26.38-7.66.78-15.22,2.58-22.8,4.09C705.34,10.3,696.13,12,687,14.2c-8.42,2-16.65,4.85-25.08,6.8-11.09,2.57-21.87,6.22-32.83,9.24a357.19,357.19,0,0,0-35.77,11.81c-8.94,3.51-18.16,6.37-27,10.17C559,55.39,552,59.49,548.41,66.94c-4.73,9.72-9.35,19.48-13.28,29.62-6.22,16.06-11.5,32.38-16.26,48.9-2.22,7.73-2.2,7.79-8.07,2.46-.92-.84-1.76-1.75-2.68-2.57-14.72-13.23-21.58-14.3-38.28-5a164.43,164.43,0,0,0-18.55,11.59,5.51,5.51,0,0,1-5.26,1c-9.77-3.35-20-4.29-30.14-5.24-3.68-.34-7-1.24-9.34-4.35-2.47-3.3-5.81-5.68-9.09-8-7.29-5.11-14.9-9.62-24.09-4.22-5.24,3.09-10.35,6.31-14.39,11a15.62,15.62,0,0,1-11.25,5.64c-9.88.7-19.77,1.7-29.23,5-2,.69-3.12-.31-4.62-1.24-8.28-5.12-16.37-10.57-25.34-14.48-8.36-3.64-16.36-4-24.35,1.45-4.54,3.08-8.31,6.89-12.17,10.65-4.06,3.95-4.37,4-6-1.32-1.9-6.32-3.53-12.73-5.41-19.06-3.78-12.68-8.68-25-13.12-37.44a178.07,178.07,0,0,0-11.59-25.08C211,57.18,202,52.81,193.33,48.6c-17.62-8.55-36.1-15.07-54.79-20.85q-22.25-6.87-44.86-12.57a471.23,471.23,0,0,0-48-10c-9-1.31-18-2.42-27.16-1.92-5.92.32-12.22,3.91-12.65,11-.8,13,1.25,25.64,3.68,38.22q7.32,37.83,18,74.91c5.69,20,12.38,39.52,19.79,58.87,4.92,12.86,11.92,23.83,25.17,30.09,11.73,5.54,23.07,11.86,35,17.13,16.6,7.34,33.34,14.23,50.43,20.31q10.46,3.72,21,7.26c2.61.89,4.54,1.48,2.73,5.15a85.61,85.61,0,0,0-4.85,13.55c-2.12,7.1-4.67,14.28,1.12,21,1.08,1.26.66,3,.54,4.54-.73,8.7-2,17.33-3.47,25.94a531,531,0,0,1-16.53,67c-7.05,22.6-14.93,44.94-24.71,66.57C128.89,475.4,124.26,486,119,496.23a330.89,330.89,0,0,1-22.81,38.53C88.63,545.66,80.3,556,72.27,566.52c-6.25,8.23-12.89,16.16-11.92,27.71,1.27,15.14,1.87,30.33,2.9,45.49.87,12.69,1.54,25.42,3.11,38,.86,6.87.43,13.9,2.33,20.63,3,10.79,8.09,14.27,17.53,12.79a131.41,131.41,0,0,0,19.25-4.87c18.84-6,36.91-13.89,54.86-22.18A257.83,257.83,0,0,0,200,661.76c7.52-5.25,14.76-11.17,16.38-21,1.29-7.87,2.28-15.8,3-23.74,1.43-15.48,7.19-116.48,7.19-122.5,0-1.28.18-2.56,1.36-3.26.91-.54,1.52,0,2.28.78a150.82,150.82,0,0,0,38.84,29c5.81,3.07,18.19,8.93,20.78,10,25.4,10.37,52.08,14.82,79.29,16,26.92,1.21,53.63-.93,79.8-7.89,6-1.6,41.39-15.55,44.68-17.26,14.79-7.7,27.8-17.78,39.94-29.09.75-.7,1.05-2.12,2.46-1.68s1.3,2,1.39,3.15c1,13.75,2.4,27.49,2.79,41.26.34,12.2,1.49,24.35,1.92,36.55.7,19.53,1.73,39,2.89,58.55.5,8.51,2.49,16.64,9.62,22.4,15.37,12.41,32.8,21.51,50.19,30.57A403.14,403.14,0,0,0,652.42,705c9.21,3.37,18.05,8.05,28.33,8,6.52,0,9.76-1.68,11.64-8.26,2.75-9.62,4-19.55,5.29-29.45,1.18-9.41,2.09-18.87,3.32-28.25,1-7.34,1.37-14.72,2-22.05.65-7.08.25-14.31.15-21.48-.13-10-1.18-18.78-7.16-27.7-19.14-28.6-39.65-56.38-54.37-87.81-7.95-17-15.76-34-22.39-51.53-7-18.5-13.42-37.23-18.68-56.37-5.8-21.1-10.81-42.34-13.8-64-.64-4.6-2.17-9.61.17-14.25A15.05,15.05,0,0,0,588.4,293a88.15,88.15,0,0,0-7.16-26.35c-1.28-2.77-.88-4.27,2.14-5.2,3.54-1.09,7-2.42,10.47-3.74,16.34-6.19,32.74-12.2,49-18.67a463.78,463.78,0,0,0,42.64-19.31c9.86-5.14,19-10.88,23-22.08,1.86-5.16,3.41-10.82,5.87-15.29,4.91-8.93,7.24-18.64,10.58-27.93,6-16.87,10.36-34.35,15.45-51.56,4.84-16.39,8.61-33,12.19-49.73,2.71-12.62,5.06-25.38,5.3-38.38C758,8.57,755.54,5.88,749.57,4ZM439.49,176.48l.26-.25,1.22-.41A226.29,226.29,0,0,1,479,150c7.67-4.05,10.64-3.84,17.23,1.8,12.2,10.43,21.19,23.5,30,36.69a499.56,499.56,0,0,1,37.9,67.37c5,10.67,10,21.43,12.14,33.18.79,4.25.21,7.72-3.25,10.95-8.62,8-18.47,14.3-28.35,20.48-25.24,15.77-51.09,30.52-77.28,44.65-13.28,7.16-26.83,13.85-40.28,20.72-2.21,1.13-4.51,2.15-7.7,1.69,19.41-20.54,37.34-41.84,53.07-64.92a20.75,20.75,0,0,1,4.79-7.27l.07-.1c.35-1.78.81-3.51,2.35-4.7a.83.83,0,0,1,.28-.43c1.37-3.09,2.24-6.43,4.39-9.14a2.58,2.58,0,0,1,.38-.69.54.54,0,0,1,.25-.78c.12-.57.24-1.14.37-1.72a.79.79,0,0,1,.41-1.2l.51-7.19-.18-1.15c-.09-1.85-.17-3.69-.26-5.54l-5.51-22.5c-.1-.52-.19-1.05-.28-1.57-2.48-2.38-2.77-5.82-3.9-8.77-1.76-4.6-4.52-8.83-5.39-13.78l-1-2.5v.08L467,228.39a2.54,2.54,0,0,1-1.21-2.4c-.22-.42-.45-.83-.68-1.25-1.46-.77-1.82-2.11-1.88-3.61l-.11-.15a15.34,15.34,0,0,1-3.81-6.73,1.86,1.86,0,0,1-.39-.7,5,5,0,0,1-2.1-3.85l-.06-.1a2,2,0,0,1-1.24-2.22L454,205c-.18-.41-.36-.81-.53-1.21l-.88-1.38-.59-1.15-1.85-2.78a6.55,6.55,0,0,1-2.84-4.58l-.07-.09c-2.86-2.13-4-5.41-5.55-8.39l0,0C436.59,180.47,436.34,179.45,439.49,176.48Zm114.57,30.45c1.28-4.45,2.56-9.28,4.05-14,3.37-10.74,6.25-21.66,9.9-32.27,5.34-15.53,10-31.33,16.49-46.45,2.55-5.92,8.44-6.74,13.31-8.33,27.49-9,55.41-16.45,83.48-23.38,2.16-.54,4.93-2.31,6.59-.44,1.33,1.5-.35,4.12-.9,6.2-6.31,23.77-14.77,46.87-22.08,70.34-1.39,4.45-3.36,8.72-4.86,13.14-1.67,4.91-6.61,5.49-10.19,7.16-28.24,13.2-57.32,24.4-86.34,35.74C558.5,216.55,553.84,212.79,554.06,206.93Zm-120.25-43.8c-3.48,6-4.92,5.84-9.13-1.24A34.81,34.81,0,0,1,433.81,163.13ZM359.23,160a102.44,102.44,0,0,1,16-14.91c5.54-4.05,8-4,13.8.09,9.75,6.91,17.47,15.88,24.82,25.13,19.53,24.6,36.17,51,48.49,80,2.61,6.14,4.73,12.52,6.79,18.88s3.72,12.86,3.74,20c1.36,7.78-4,13.33-7.62,19.48a183.54,183.54,0,0,1-15.54,23.09c-17.37,21.39-34.56,42.94-54.81,61.77-10.91,10.15-14.55,10.1-26-.31-16.1-14.71-30-31.45-43.87-48.18a319.4,319.4,0,0,1-29.52-41.39c-4.34-7.36-5.24-14.78-3.52-22.87,4-18.72,11.56-36.05,20.5-52.86A349.28,349.28,0,0,1,359.23,160Zm-19.42,1.47c-3.83,7.21-4.15,7.27-9.37,1.45Zm-89,8.55a110.41,110.41,0,0,1,16.09-17.52c7.8-6.62,11.45-6.81,22-1.1a211.77,211.77,0,0,1,35.3,24.41c2.5,2.11,3,3.91.94,6.63-11.51,15.57-21,32.37-29.53,49.7-8.29,16.83-14.84,34.32-17.43,53-1.7,12.31,4,22.36,10.25,32.12,15,23.6,32.74,45.08,52,65.28a47.23,47.23,0,0,1,3.1,3.92c-5.3-.48-9.61-3.52-14.15-5.82q-45.84-23.19-89.68-50c-16.34-10-32.7-20-47.35-32.46-6.41-5.44-6.84-7.45-4.14-15.42,7.69-22.69,19.5-43.39,31.06-64.21A396.52,396.52,0,0,1,250.82,170Zm-51.4,46.56c-25.93-10.15-51.71-20.66-77.19-31.87-6.41-2.82-12.69-5.95-19.11-8.74a6.56,6.56,0,0,1-3.91-4.23c-4-11.31-7-22.89-10-34.47-4.51-17.3-8.73-34.68-12.86-52.08-.25-1-2.69-4.24,1.69-4.1,7.62,1.82,15.38,3.5,23,5.54,23.16,6.16,46.25,12.6,69,20.14,6.35,2.11,9.6,6.14,11.64,12.09,9.91,28.84,18.06,58.19,25.76,87.67.52,2,1.24,4.16,0,6.37C205.73,216.27,204.31,218.52,199.42,216.6Zm-78.17,9c-13.22-5.57-26-12-38.95-18.2-12.1-5.77-19.24-14.95-24.1-27.1-9.53-23.78-16.9-48.22-23.51-72.91-6.33-23.61-12.3-47.32-16.07-71.51C17.86,31,17.6,26,17.17,21c-.39-4.43,1.75-6.18,6.11-6.07,14.14.36,27.88,3.34,41.57,6.39,23.27,5.17,46.4,11,69.07,18.46,12,4,23.85,8.16,35.61,12.74,6.81,2.66,13.52,5.49,20.19,8.45,9.21,4.09,16,10.39,20,19.86a581.8,581.8,0,0,1,27.33,81c.42,1.66.91,3.25-.31,4.9-7.49,10.23-14.24,20.95-20.93,31.71a13.52,13.52,0,0,0-.77,1.74l-1.14-.51c-2.32-8.68-4.54-17.39-7-26-5.67-19.93-11.47-39.83-18.44-59.38-2.9-8.13-8.12-12.69-16.07-15.25-18.95-6.11-38-11.84-57.26-17Q94.56,76.65,73.84,71.73c-6.53-1.56-8.18,0-6.88,6.53,5.22,26.11,12,51.83,19.18,77.46,1.63,5.86,3.69,11.6,5.15,17.5,1.24,5,4.29,7.93,8.75,10.14,23.49,11.66,47.86,21.24,72.15,31,8.23,3.3,16.36,6.84,24.86,9.46,2,.63,3.53,1.93,1.89,4.86-3.35,6-6.26,12.2-9.17,18.41-1.26,2.69-2.75,3-5.54,2.19C162.61,243,141.94,234.31,121.25,225.61ZM199,646.82c-8.84,7.75-19,13.54-29.5,18.58-16.12,7.72-32.26,15.41-48.91,21.94-10.51,4.12-21,8.37-32.38,9.37-5.23.47-7.06-.8-7.69-6-2.45-20.56-3.85-41.21-5.25-61.86-.19-2.78-.48-5.56-.73-8.33-.36-7.6-.39-15.26-1.31-22.76-1-8.48,2.5-13.41,8.93-18a643.47,643.47,0,0,1,57.89-37.35c7.26-4.1,14.43-8.33,22-11.85,2.82-1.31,4.31-.83,5.48,1.84C173.14,545,177.93,558,182.7,570.94c4.29,11.67,8.1,23.48,11.86,35.3,3.15,9.91,5.47,20.08,8.11,30.14C203.79,640.65,202.15,644.07,199,646.82ZM214.74,487c-1,7.06-8.66,130.25-8.66,130.25s-15.41-48.9-15.54-51.38c-5.31-14.49-11-28.78-18.25-42.47-2.08-4-4.64-4.43-8.41-2.86-13.28,5.5-25.73,12.57-37.95,20-8.49,5.19-16.83,10.61-25.24,15.92-1.69,2.19-4.1,3-7.27,3.08l3.48-4.16C114.45,532.87,128.14,508,140,482.07c17.61-38.57,31.75-78.37,41.32-119.74,3.33-14.42,6.27-28.89,8.32-43.55.21-1.48-.8-4.61,1.91-4.3,2.5.29,3.42,2.68,2.71,5.49a239.61,239.61,0,0,0-6.13,37.74c-2.86,32.08-.06,63.42,13,93.28a92.28,92.28,0,0,0,7.6,13.9C213.21,471.67,215.88,478.6,214.74,487Zm310.62-4.82c-31.45,32-70.86,45.28-114,50-34.81,3.83-69.36,1.85-102.82-8.79-47.68-15.16-84.57-42.9-100.84-92.49-7.34-22.36-8.9-45.5-6.89-68.88a293.76,293.76,0,0,1,4.73-32.84c.71-3.5,1.34-4.14,4.57-2q27.5,18.36,56.31,34.62c31,17.61,62.39,34.45,95.23,48.55,13.95,6,26.95,6.16,40.89.61,29.07-11.55,56.61-26.1,83.95-41.14,21.27-11.71,42-24.32,62.52-37.27,10-6.29,9.64-6.46,11.31,5.35,1.87,13.28,3.67,26.54,3.73,40,.09,20.91-2.68,41.34-10.36,60.93A127.17,127.17,0,0,1,525.36,482.22Zm162,103.43c2.88,3.31,2.72,7.11,3.53,10.76.24,20.06-1.64,40-3.49,59.84-1.15,12.39-2.71,24.8-5.07,37-1.18,6.08-1.75,7.36-8.54,5.34-19.29-5.74-37.63-13.71-55.68-22.55q-20.08-9.84-39.52-20.87c-5.94-3.36-11.25-7.7-16.52-12-2.35-1.93-1.41-4.72-.86-7,3.1-13.14,6-26.36,10.12-39.21,6.42-19.81,14.31-39.09,22.11-58.38,1-2.55,2.84-4.77,3.94-7.36s3.19-2,5.13-.92c9.13,5,18.29,9.94,27.35,15.06a373,373,0,0,1,41,26.79C676.52,576.39,682.59,580.15,687.38,585.65Zm-94-185.76q6.5,20.94,14.34,41.43A654.25,654.25,0,0,0,638,509.12c7.33,14.09,16.31,27.21,25,40.47,1.66,2.53,4.49,5.29,3.06,8.06-.53,1-4.23-2.34-6.45-3.74-18.71-11.76-37.32-23.69-57.52-32.85-5.51-2.5-8.4-1.74-10.78,3.22a567.78,567.78,0,0,0-26.7,66.64c-2.34,7.06-4.54,14.18-6.8,21.27l-1-.26Q556,598,555.18,584q-1.57-27-3.12-54.07-1.44-25.65-2.74-51.3a11.84,11.84,0,0,1,2.2-7.44c16.14-23.92,23.42-50.67,25.07-79.2a251,251,0,0,0-5.74-67.72,34.56,34.56,0,0,1-.58-4.17,3.13,3.13,0,0,1,3-3.51c1.9-.2,1.21,1.89,1.35,2.86C578.53,346.83,585.22,373.54,593.39,399.89ZM746.21,20.6c-1.45,14.93-5.11,29.43-8.57,44-6.31,26.51-13.86,52.69-22,78.69A436.52,436.52,0,0,1,698,191,30.41,30.41,0,0,1,684,206c-21.29,11.53-43.83,20.18-66.2,29.21-9.93,4-20.14,7.24-29.88,11.74-3.38,1.55-7.21,2.12-10.78,3.27-2.51.81-2.5-1.42-3.08-2.56-4-7.91-7.85-15.9-11.82-24,12.82-5.05,25.43-10,38.06-15,19.11-7.5,38.1-15.27,56.64-24.11,5.41-2.57,9.07-6.14,11.17-12.12,10.75-30.56,20.95-61.28,29.16-92.63,1.81-6.94-.21-9.17-7.22-7.56-26.17,6-52.07,13-77.83,20.57-8.42,2.47-16.54,5.78-24.84,8.59-5.38,1.82-7.94,5.5-10,10.2C569,131.07,563,151.4,556.65,171.63c-2.67,8.55-5.4,17.09-8.06,25.51-1.73-.09-2-1.16-2.44-1.89Q538,181.6,528.59,168.74a7.79,7.79,0,0,1-1.45-6.9c3.28-14.94,8.29-29.33,13.28-43.74,4.8-13.85,9.85-27.57,16.34-40.77A26.83,26.83,0,0,1,571.1,64c22.94-9.8,46.63-17.31,70.57-24.26,23.74-6.88,47.57-13.34,71.67-18.72,9.29-2.07,18.55-4.66,28.19-5.18C745.36,15.68,746.57,16.81,746.21,20.6Z"/><path class="cls-1" d="M343.64,386.64l-.1.14,0-.24Z"/><path class="cls-2" d="M564,378c.09,20.91-2.68,41.34-10.36,60.93a127.17,127.17,0,0,1-28.29,43.31c-31.45,32-70.86,45.28-114,50-34.81,3.83-69.36,1.85-102.82-8.79-47.68-15.16-84.57-42.9-100.84-92.49-7.34-22.36-8.9-45.5-6.89-68.88a293.76,293.76,0,0,1,4.73-32.84c.71-3.5,1.34-4.14,4.57-2q27.5,18.36,56.31,34.62c31,17.61,62.39,34.45,95.23,48.55,13.95,6,26.95,6.16,40.89.61,29.07-11.55,56.61-26.1,83.95-41.14,21.27-11.71,42-24.32,62.52-37.27,10-6.29,9.64-6.46,11.31,5.35C562.15,351.28,564,364.54,564,378Z"/><path class="cls-2" d="M213.89,199.72c-2.32-8.68-4.54-17.39-7-26-5.67-19.93-11.47-39.83-18.44-59.38-2.9-8.13-8.12-12.69-16.07-15.25-18.95-6.11-38-11.84-57.26-17Q94.56,76.65,73.84,71.73c-6.53-1.56-8.18,0-6.88,6.53,5.22,26.11,12,51.83,19.18,77.46,1.63,5.86,3.69,11.6,5.15,17.5,1.24,5,4.29,7.93,8.75,10.14,23.49,11.66,47.86,21.24,72.15,31,8.23,3.3,16.36,6.84,24.86,9.46,2,.63,3.53,1.93,1.89,4.86-3.35,6-6.26,12.2-9.17,18.41-1.26,2.69-2.75,3-5.54,2.19-21.62-6.24-42.29-15-63-23.67-13.22-5.57-26-12-38.95-18.2-12.1-5.77-19.24-14.95-24.1-27.1-9.53-23.78-16.9-48.22-23.51-72.91-6.33-23.61-12.3-47.32-16.07-71.51C17.86,31,17.6,26,17.17,21c-.39-4.43,1.75-6.18,6.11-6.07,14.14.36,27.88,3.34,41.57,6.39,23.27,5.17,46.4,11,69.07,18.46,12,4,23.85,8.16,35.61,12.74,6.81,2.66,13.52,5.49,20.19,8.45,9.21,4.09,16,10.39,20,19.86a581.8,581.8,0,0,1,27.33,81c.42,1.66.91,3.25-.31,4.9-7.49,10.23-14.24,20.95-20.93,31.71a13.52,13.52,0,0,0-.77,1.74Z"/><path class="cls-2" d="M562.24,223.62c12.82-5.05,25.43-10,38.06-15,19.11-7.5,38.1-15.27,56.64-24.11,5.41-2.57,9.07-6.14,11.17-12.12,10.75-30.56,20.95-61.28,29.16-92.63,1.81-6.94-.21-9.17-7.22-7.56-26.17,6-52.07,13-77.83,20.57-8.42,2.47-16.54,5.78-24.84,8.59-5.38,1.82-7.94,5.5-10,10.2C569,131.07,563,151.4,556.65,171.63c-2.67,8.55-5.4,17.09-8.06,25.51-1.73-.09-2-1.16-2.44-1.89Q538,181.6,528.59,168.74a7.79,7.79,0,0,1-1.45-6.9c3.28-14.94,8.29-29.33,13.28-43.74,4.8-13.85,9.85-27.57,16.34-40.77A26.83,26.83,0,0,1,571.1,64c22.94-9.8,46.63-17.31,70.57-24.26,23.74-6.88,47.57-13.34,71.67-18.72,9.29-2.07,18.55-4.66,28.19-5.18,3.83-.2,5,.93,4.68,4.72-1.45,14.93-5.11,29.43-8.57,44-6.31,26.51-13.86,52.69-22,78.69A436.52,436.52,0,0,1,698,191,30.41,30.41,0,0,1,684,206c-21.29,11.53-43.83,20.18-66.2,29.21-9.93,4-20.14,7.24-29.88,11.74-3.38,1.55-7.21,2.12-10.78,3.27-2.51.81-2.5-1.42-3.08-2.56C570.06,239.72,566.21,231.73,562.24,223.62Z"/><path class="cls-3" d="M690.91,596.41c.24,20.06-1.64,40-3.49,59.84-1.15,12.39-2.71,24.8-5.07,37-1.18,6.08-1.75,7.36-8.54,5.34-19.29-5.74-37.63-13.71-55.68-22.55q-20.08-9.84-39.52-20.87c-5.94-3.36-11.25-7.7-16.52-12-2.35-1.93-1.41-4.72-.86-7,3.1-13.14,6-26.36,10.12-39.21,6.42-19.81,14.31-39.09,22.11-58.38,1-2.55,2.84-4.77,3.94-7.36s3.19-2,5.13-.92c9.13,5,18.29,9.94,27.35,15.06a373,373,0,0,1,41,26.79c5.67,4.28,11.74,8,16.53,13.54C690.26,589,690.1,592.76,690.91,596.41Z"/><path class="cls-3" d="M74.56,620.49c-.36-7.6-.39-15.26-1.31-22.76-1-8.48,2.5-13.41,8.93-18a643.47,643.47,0,0,1,57.89-37.35c7.26-4.1,14.43-8.33,22-11.85,2.82-1.31,4.31-.83,5.48,1.84C173.14,545,177.93,558,182.7,570.94c4.29,11.67,8.1,23.48,11.86,35.3,3.15,9.91,5.47,20.08,8.11,30.14,1.12,4.27-.52,7.69-3.65,10.44-8.84,7.75-19,13.54-29.5,18.58-16.12,7.72-32.26,15.41-48.91,21.94-10.51,4.12-21,8.37-32.38,9.37-5.23.47-7.06-.8-7.69-6-2.45-20.56-3.85-41.21-5.25-61.86C75.1,626,74.81,623.26,74.56,620.49Z"/><path class="cls-2" d="M424.68,161.89a34.81,34.81,0,0,1,9.13,1.24C430.33,169.14,428.89,169,424.68,161.89Z"/><path class="cls-2" d="M330.44,162.94l9.37-1.45C336,168.7,335.66,168.76,330.44,162.94Z"/><path class="cls-4" d="M465.28,308.61c3.61-6.15,9-11.7,7.62-19.48,0-7.1-1.68-13.59-3.74-20s-4.18-12.74-6.79-18.88c-12.32-29-29-55.36-48.49-80-7.35-9.25-15.07-18.22-24.82-25.13-5.76-4.09-8.26-4.14-13.8-.09a102.44,102.44,0,0,0-16,14.91,349.28,349.28,0,0,0-46.67,67.84c-8.94,16.81-16.5,34.14-20.5,52.86-1.72,8.09-.82,15.51,3.52,22.87A319.4,319.4,0,0,0,325.1,345C339,361.71,352.87,378.45,369,393.16c11.41,10.41,15,10.46,26,.31,20.25-18.83,37.44-40.38,54.81-61.77A183.54,183.54,0,0,0,465.28,308.61Z"/><path class="cls-4" d="M343.56,386.54h0s0,.24,0,.24l.1-.14-.07-.1Z"/><path class="cls-4" d="M288.42,317.33c-6.21-9.76-11.95-19.81-10.25-32.12,2.59-18.73,9.14-36.22,17.43-53,8.54-17.33,18-34.13,29.53-49.7,2-2.72,1.56-4.52-.94-6.63a211.77,211.77,0,0,0-35.3-24.41c-10.53-5.71-14.18-5.52-22,1.1A110.41,110.41,0,0,0,250.82,170a396.52,396.52,0,0,0-31.53,48.55c-11.56,20.82-23.37,41.52-31.06,64.21-2.7,8-2.27,10,4.14,15.42,14.65,12.47,31,22.48,47.35,32.46q43.85,26.77,89.68,50c4.54,2.3,8.85,5.34,14.16,5.82-1-1.31-2-2.72-3.11-3.92C321.16,362.41,303.45,340.93,288.42,317.33Z"/><path class="cls-4" d="M577.4,284.4c-7.34-21.67-18.55-41.82-29.38-61.3l-2-3.67a399.52,399.52,0,0,0-31.9-49.12,111.83,111.83,0,0,0-16.43-17.88c-8.37-7.1-12.58-7.33-23.75-1.27a213.08,213.08,0,0,0-35.81,24.76c-3.22,2.71-3.58,5.36-1.18,8.6,10.34,14,19.76,29.84,29.64,49.89,9.59,19.46,15.13,36.32,17.44,53.06,1.63,11.79-3.86,21.6-10.13,31.44-13.94,21.89-31,43.35-52.28,65.6a29.78,29.78,0,0,0-2.34,2.88c-.29.4-.59.79-.89,1.18a1.41,1.41,0,0,0,1.11,2.27h.13c4.47-.4,8.21-2.45,11.82-4.44,1-.53,2-1.07,3-1.57,30.28-15.32,60.73-32.31,90.51-50.5,16.22-9.91,33-20.15,47.92-32.85C579.66,295.64,580.34,293.09,577.4,284.4Z"/><path class="cls-4" d="M103.12,176c6.42,2.79,12.7,5.92,19.11,8.74,25.48,11.21,51.26,21.72,77.19,31.87,4.89,1.92,6.31-.33,8.13-3.68,1.2-2.21.48-4.37,0-6.37-7.7-29.48-15.85-58.83-25.76-87.67-2-5.95-5.29-10-11.64-12.09-22.78-7.54-45.87-14-69-20.14-7.67-2-15.43-3.72-23-5.54-4.38-.14-1.94,3.06-1.69,4.1,4.13,17.4,8.35,34.78,12.86,52.08,3,11.58,6,23.16,10,34.47A6.56,6.56,0,0,0,103.12,176Z"/><path class="cls-4" d="M638,509.12a654.25,654.25,0,0,1-30.25-67.8q-7.86-20.47-14.34-41.43c-8.17-26.35-14.86-53.06-18.78-80.41-.14-1,.55-3.06-1.35-2.86a3.13,3.13,0,0,0-3,3.51,34.56,34.56,0,0,0,.58,4.17A251,251,0,0,1,576.59,392c-1.65,28.53-8.93,55.28-25.07,79.2a11.84,11.84,0,0,0-2.2,7.44q1.32,25.65,2.74,51.3,1.5,27,3.12,54.07.9,15.33,1.83,30.65c2.55-7.92,5-15.87,7.6-23.76a567.78,567.78,0,0,1,26.7-66.64c2.38-5,5.27-5.72,10.78-3.22,20.2,9.16,38.81,21.09,57.52,32.85,2.22,1.4,12.91,9.16,12.91,9.16s-7.86-11-9.52-13.48C654.29,536.33,645.31,523.21,638,509.12Z"/><path class="cls-4" d="M201.09,451c-13.06-29.86-15.86-61.2-13-93.28A239.61,239.61,0,0,1,194.22,320c.71-2.81-.21-5.2-2.71-5.49-2.71-.31-1.7,2.82-1.91,4.3-2,14.66-5,29.13-8.32,43.55C171.71,403.7,157.57,443.5,140,482.07c-11.82,25.91-25.51,50.8-43.06,73.39l-3.48,4.16c3.17-.1,5.58-.89,7.27-3.08,8.41-5.31,16.75-10.73,25.24-15.92,12.22-7.47,24.67-14.54,37.95-20,3.77-1.57,6.33-1.1,8.41,2.86,7.2,13.69,32.23,95.7,34.39,95.34.06-1.21,7.1-124.68,8.06-131.74,1.14-8.44-1.53-15.37-6.05-22.15A92.28,92.28,0,0,1,201.09,451Z"/><path class="cls-4" d="M687.88,82c-1.66-1.87-4.43-.1-6.59.44-28.07,6.93-56,14.43-83.48,23.38-4.87,1.59-10.76,2.41-13.31,8.33C578,129.29,573.35,145.09,568,160.62c-3.65,10.61-6.53,21.53-9.9,32.27-1.49,4.76-2.77,9.59-4.05,14-.22,5.86,4.44,9.62,9.45,7.67,29-11.34,58.1-22.54,86.34-35.74,3.58-1.67,8.52-2.25,10.19-7.16,1.5-4.42,3.47-8.69,4.86-13.14C672.21,135.09,680.67,112,687,88.22,687.53,86.14,689.21,83.52,687.88,82Z"/></svg>