<svg id="Camada_1" data-name="Camada 1" xmlns="http://www.w3.org/2000/svg" viewBox="0 0 763.55 716.22"><defs><style>.cls-1{fill:#e8e1d9;}.cls-2{fill:#e9929b;}.cls-3{fill:#4074b5;}.cls-4{fill:#6f2f24;}</style></defs><path class="cls-1" d="M570.29,465.33c-1.45,22.45-3.25,44.84-11.84,66-5.39,13.26-15,23.12-25.68,32.1a140.75,140.75,0,0,1-40.83,23.87c-3.28,1.25-5.48,1.36-7.69-2.11-3.8-6-10.14-7.16-16.68-6.9-9.11.37-17.36,3.88-25.37,7.88A167.81,167.81,0,0,0,413.51,605c-2,1.6-4.24,1.85-6.55,2-15.37.83-30.74.4-46.1-.29a12.47,12.47,0,0,1-6.73-2.56c-12.28-8.88-25.05-16.91-39.57-21.75a43.13,43.13,0,0,0-15.23-2.43c-5.86.22-11.24,1.92-14.72,7.24-.72,1.1-1.32,1.88-3.08,1.28-20.93-7-40.37-16.52-56.18-32.44a91.07,91.07,0,0,1-25.9-51.81c-1.5-9.85-2.28-19.78-2.91-29.73-.53-8.36,3.1-15.89,4.34-23.88A62.9,62.9,0,0,1,206,434.38c8.18-17.8,16.6-35.65,32.39-48.57,11.06-9.06,23.16-15.1,37.67-15.56,12.12-.38,23.15,3.24,33.51,9.26,16.08,9.34,28.34,22.71,39.17,37.51a278.88,278.88,0,0,1,29.48,51.6,22.47,22.47,0,0,0,1.4,2.77c1.89,3,4.93,3.2,6.8.17a71.4,71.4,0,0,0,4.13-8.31,248.27,248.27,0,0,1,22.57-40.18c13.2-19,27.9-36.54,49.1-47.39,23.79-12.18,50.18-8.44,69.65,9.77,11.92,11.16,20.54,24.46,27.25,39.2a194,194,0,0,1,10.79,30.66C570.77,458.67,570.18,462,570.29,465.33Z"/><path class="cls-2" d="M569.94,428c-4.25-8.17-8.24-16.19-12.88-23.89a113.73,113.73,0,0,0-23-26.82,66.71,66.71,0,0,0-39.22-16.62c-12.69-1.05-24.6,2.25-36,8-12.28,6.25-22.75,14.75-32.09,24.71A225.8,225.8,0,0,0,396.89,434C392,442.35,388,451.1,383,459.94c-1.89-3.69-3.66-7.1-5.39-10.52a294.6,294.6,0,0,0-19.44-32.52,164.6,164.6,0,0,0-29.4-33.22c-14.41-12.3-30.56-21-50.13-21.4A60.37,60.37,0,0,0,247,370.39c-13.11,7.45-23.35,17.93-31.78,30.37a127.68,127.68,0,0,0-15.44,29.76,5.59,5.59,0,0,1-2.78,3c.36-4.17.68-8.35,1.08-12.52a267.12,267.12,0,0,1,10.49-51.91c.92-3.06,2-6.07,3-9.11.5-1.52,1.86-1.45,3.07-1.89,3-1.1,6.5-1.56,7.14-5.94.73-5.06-3-8.95-8-7.52-8.52,2.42-16.88,5.4-25.54,7.32-5.11,1.12-10.23,2.23-15.37,3.18-3.54.66-4.56-.61-3.31-4,3.25-8.8,7.42-17,14.15-23.83,5-5.08,3.45-10.61-3.32-13.1-7.54-2.77-15.14-5.47-22.25-9.26-2.35-1.26-5.25-2.23-6.07-5.25-1.19-4.45,2.78-5.55,5.31-6.67,10.74-4.8,22.18-5.89,33.78-4.86,2.54.23,5,1.91,7.41,3.1,4.57,2.29,8.88,1.39,10.57-2.34,1.84-4.05.17-7.19-4.82-9.5a186.88,186.88,0,0,1-26.61-15.45c-4.21-2.87-8-6.26-12.3-9-1.44-.9-1.95-1.9-1-3.51a204.77,204.77,0,0,1,24.56-34.55c1.82-2.09,2.41-1.15,3.48.62a107.86,107.86,0,0,0,36.42,36.65c5.51,3.37,11.6,6.14,18.7,5.56,6.91-.57,11.13-3.88,12-10.93,1.27-9.79-1.23-19.15-3.77-28.41a161.58,161.58,0,0,0-18.25-42.63c-1.28-2.07-1.37-3.14,1-4.87,9.18-6.59,18.3-13.23,28-19.07,2.08-1.25,2.34-.44,3.27,1.08,12.36,20,20,41.93,26,64.5,3.48,13.14,6.48,26.37,7.52,40a46.16,46.16,0,0,1,0,5,6.57,6.57,0,0,0,9.38,6.44c11.19-5.34,22.64-9.82,34.86-12.25A223.94,223.94,0,0,1,389,254.36c4,0,4.52,2,4.52,4.9a86.24,86.24,0,0,0,2.21,19.44c2,8.65,4.15,17.49,11.5,23.38,6.35,5.09,14.12,7.17,22.06,8.4,20.16,3.13,39.55-.17,58.49-7.16,7-2.6,6.9-2.52,8.74,4.79a142.25,142.25,0,0,0,14.77,35.76,74.62,74.62,0,0,0,16.67,20.59c8.84,7.42,19.26,9.46,30.4,7.78,2.68-.4,3.32.43,3.93,2.53a183.76,183.76,0,0,1,5.65,30.67C568.75,412.94,569.28,420.47,569.94,428Z"/><path class="cls-2" d="M568.87,217c2.16-3.29,4.06-6.31,6.08-9.25,6-8.79,10.52-18.38,14.63-28.16,2.5-6,4.08-12.28,6.28-18.27,2.63-7.15,4-14.38,5.16-21.72a31.73,31.73,0,0,0-.1-9.58c-1.77-11.91-11.94-17.25-23-12.09a78.88,78.88,0,0,0-25.72,19.6A275,275,0,0,0,520.38,181a7.33,7.33,0,0,1-1.07,1c-2.42-4.49-4.79-8.84-7.12-13.2a137.66,137.66,0,0,0-14.07-22,5.52,5.52,0,0,1-.81-6.66,220.22,220.22,0,0,1,18.16-30.8,297.62,297.62,0,0,1,46.62-53.08A192,192,0,0,1,597,31.11c13.22-7.28,26.84-12.19,42.13-11.39a28.79,28.79,0,0,1,13.55,3.83c5,3.06,6.94,8.46,8.29,13.91,3.35,13.53,2.26,27.11.33,40.7-.95,6.67-2.4,13.21-4,19.75a206.48,206.48,0,0,1-13.13,38c-3.74,8.16-7.93,16.3-13.94,23.23-2.45,2.83-3.44,6-1.33,9.54,1.53,2.59,4,2.64,6.44,2.44,2.72-.22,4-2.59,5.69-4.34,6.64-6.93,12.11-14.95,19.47-21.19,3.21-2.73,6.27-5.72,10.44-7.19,5-1.76,8.24.1,8.41,5.35.31,9.22-2.58,17.73-6.45,25.89-8,16.76-20.19,30.13-34,42.22a4.86,4.86,0,0,1-3.86,1.36c-17.21-1.48-34.33.13-51.43,1.77C578.93,215.48,574.24,216.27,568.87,217Z"/><path class="cls-1" d="M480.78,291.81c-18.39,6.32-37,9.32-56.3,4.27-7.75-2-12.37-6.58-14.57-14.33-3.82-13.4-4.09-27.07-3.71-40.78a261.42,261.42,0,0,1,3.55-34.26c1.36-8.56,2.59-17.12,5.34-25.35,5.6-16.81,11.05-33.73,23.57-47.07a45,45,0,0,1,4.92-4.32c6.52-5.14,13-5.14,20-.46,10.18,6.85,17.83,16,24.85,25.82a213.22,213.22,0,0,1,27.87,53.86c-3.73,2-7.81,3.51-11.13,6-11.1,8.46-20.55,18.13-26.65,31.25-5.87,12.62-5.93,24.56-1,37.16C478.55,286.38,480.76,288.66,480.78,291.81Z"/><path class="cls-1" d="M616.86,225.92c11.45.93,23.09-.53,34.34,3.26,2.42.82,5.27.77,7.74,1.93,6.67,3.13,8.89,7.2,8.18,14.61-.91,9.62-5,18.09-9.38,26.44-6.93,13.2-16,25-25.71,36.15a199.42,199.42,0,0,1-29,27.83c-12,9.21-24.59,17.66-39.45,21.78-15.72,4.35-25.12,1.32-35-11.72a107.49,107.49,0,0,1-17.09-34.06c1.39-.25,2.78-.56,4.18-.75A53.44,53.44,0,0,0,548,294.9c6.24-6.57,11.56-14,14.34-23.08,3.48-11.34,5.67-22.55,2.84-34.38-.5-2.11-2.05-3.92-1.71-6.22,5.63-.85,11.25-1.9,16.9-2.5,9.13-1,18.29-1.69,27.45-2.45,2.82-.23,5.67-.25,8.5-.37C616.49,226.23,616.67,226.25,616.86,225.92Z"/><path class="cls-1" d="M194,192.53c-10.31,10.53-20.42,21.22-29,33.32-11.93,16.92-21.15,35-24.62,55.64s-1.45,40.58,10.49,58.6c1,1.6,2.28,3.09,4,5.44a77.82,77.82,0,0,1-16.09-7.08c-20.46-11.33-36-27.12-44.49-49.28-6.26-16.37-6.84-33.32-4.72-50.48,3.15-25.46,12.86-48.44,26.66-69.84a265.37,265.37,0,0,1,15.92-21.91c1.09-1.36,1.87-3.2,3.88-3.64,2,2.79,5.33,3.63,8.09,5a111.51,111.51,0,0,1,17.74,11.3c6.9,5.29,14,10.5,19.87,17.12C186.16,181.74,191,186.4,194,192.53Z"/><path class="cls-1" d="M617.42,340.77a215.83,215.83,0,0,1,15.48,19.94c3.74,5.53,7.74,10.88,11.14,16.64,8.15,13.8,15.17,28.14,19.66,43.57,5.45,18.77,7.19,37.83,2.85,57.05-5.21,23.07-17.8,41.46-36.7,55.53-20.45,15.22-43.71,23.12-68.82,26-1.71.2-3.43,1.13-5.63.26,4.45-5.39,8.64-10.72,11.79-16.83,5.43-10.51,8.41-21.79,10.89-33.23.54-2.5.63-3.56,4-3.39,6.66.34,13.44-.19,19.72-3,.71-.32,1.51-.85,2.19-.41,1.11.72.08,1.64-.11,2.41-2.51,9.95-7.6,18.56-13.71,26.69-3,4-1.77,8.22,2.71,10,3.31,1.31,5.81-.17,7.79-2.69a84.88,84.88,0,0,0,12.89-21.92,107.29,107.29,0,0,0,7-41.05c-.41-20-4.7-39.28-11.52-58-6.67-18.3-15-35.77-27.54-50.91-1.14-1.37-1.05-2.16.53-2.91C594.88,358.29,606.41,350.05,617.42,340.77Z"/><path class="cls-2" d="M99.77,60.38c.2-7.2.47-13.46,2.8-19.33,4-10.14,12.9-12.43,22.34-12.65,13.57-.32,26.08,4.43,38.1,10.08a166.27,166.27,0,0,1,39.7,25.74c2,1.75,1.92,2.61-.21,3.9a286.27,286.27,0,0,0-25.25,17.81,353.73,353.73,0,0,0-55.58,53.13c-2.63,3.11-2.65,3.18-4.11-.77-8-21.62-14.16-43.72-17.12-66.63C99.92,67.61,99.94,63.49,99.77,60.38Z"/><path class="cls-2" d="M563.48,231.22c-.34,2.3,1.21,4.11,1.71,6.22,2.83,11.83.64,23-2.84,34.38-2.78,9.09-8.1,16.51-14.34,23.08a53.44,53.44,0,0,1-32.34,16.49c-1.4.19-2.79.5-4.18.75a106.44,106.44,0,0,1-5.4-22.73c-.57-5.32-5.43-7.4-10-4.63a66.8,66.8,0,0,1-15.26,7c0-3.15-2.23-5.43-3.3-8.17-4.91-12.6-4.85-24.54,1-37.16,6.1-13.12,15.55-22.79,26.65-31.25,3.32-2.53,7.4-4.06,11.13-6,2.57,7.72,4.64,15.58,6.72,23.45,1.17,4.37,4,5.84,8.49,4.82C542.1,235.07,552.68,232.58,563.48,231.22Z"/><path class="cls-1" d="M416.08,615.13c12.77-9.89,25.82-19.28,41.21-24.83a32.36,32.36,0,0,1,13.24-2.2c4.63.31,7.14,3.09,8.69,7.16,3.65,9.61,4,19.66,3.77,29.73a140.34,140.34,0,0,1-4,30.54c-3.07,12.3-6.93,24.25-15.08,34.47-7.25,9.08-16.45,12.09-27.42,10.09-11.43-2.08-21.28-7.58-29.82-15.42a7.69,7.69,0,0,1-1-1.6c3.27-1.43,6.6-2.73,9.51-4.92,8.13-6.14,11.73-14.6,12.85-24.44.94-8.25-1.1-16.07-3.53-23.75-1.14-3.59-3.41-6.84-5.34-10.15C418.2,618.21,415.94,617.46,416.08,615.13Z"/><path class="cls-1" d="M364.31,684.23c-10.41,9.66-22.16,16.49-36.69,17.5-11,.77-18.53-4.65-24.07-13.44C292,670,288.27,649.58,286.94,628.45a95.66,95.66,0,0,1,2.19-27.58c2.38-10.37,7.12-13.06,17.46-10.64,13.33,3.12,24.78,10.06,36,17.55,3.93,2.64,7.65,5.62,11.46,8.44-4.78,5.1-7.51,11.29-9.69,17.83-4.53,13.63-3.65,33.13,10.37,43.94C357.7,680.31,361.09,682.16,364.31,684.23Z"/><path class="cls-2" d="M364.31,684.23c-3.22-2.07-6.61-3.92-9.63-6.24-14-10.81-14.9-30.31-10.37-43.94,2.18-6.54,4.91-12.73,9.69-17.83,9.09,7.13,18.06,14.39,26,22.8,3.89,4.11,5.81,4.24,9.56.23,8.18-8.77,17.44-16.33,26.5-24.12-.14,2.33,2.12,3.08,3.06,4.68,1.93,3.31,4.2,6.56,5.34,10.15,2.43,7.68,4.47,15.5,3.53,23.75-1.12,9.84-4.72,18.3-12.85,24.44-2.91,2.19-6.24,3.49-9.51,4.92-3-1.37-4.71-4.09-6.84-6.35-3.33-3.52-6.44-7.24-9.75-10.79-2.83-3-4.84-3-7.7.11C375.7,672.12,370.79,678.92,364.31,684.23Z"/><path class="cls-3" d="M536.63,222.33c-1.81.83-2.24-.36-3-2-2.83-6.75-3.42-14.39-7.19-20.65s-2.23-11.13,1.47-16.39c5.27-7.48,9.91-15.42,15.53-22.6,7.29-9.3,14.42-18.82,23.6-26.48,4.53-3.79,9.08-7.53,14.85-9.33,7.78-2.43,10.89,1.6,11.1,8.18.41,12.4-3.44,24.11-8.07,35.51-2.27,5.57-4.29,11.28-7,16.63-5.13,10.16-10.66,20.1-18.16,28.83-3,3.45-6,5.79-10.76,6.08C544.94,220.32,541.1,222.49,536.63,222.33Z"/><path class="cls-1" d="M192.13,91.44c4.13-4.44,9.29-7.6,14.23-10.94,7.55-5.1,15.14-10.17,23.16-14.56,5.73-3.13,11.36-6.44,17.64-8.42,2.91-.92,4.39.3,5,3.11,1.29,6.14.51,12.31.27,18.47s-.87,12.41-1,18.63c-.07,3.11,3.22,5.7,7.11,5.81,7.87.22,15.72.49,23.55,1.25a67.85,67.85,0,0,1,16.25,3.46,14.12,14.12,0,0,1,1.8.73c4.44,2.35,4.86,4.77,1,8-6,4.89-12.89,8.34-19.46,12.31-8.13,4.91-16.34,9.7-24.52,14.54-2.94-3.65-5.84-7.35-8.65-11.08a118.75,118.75,0,0,0-12.38-13.63c-8.87-8.64-19-15.53-29.73-21.65-2.52-1.44-5.7-1.46-7.95-3.51A10.24,10.24,0,0,0,192.13,91.44Z"/><path class="cls-2" d="M194,192.53c-2.94-6.13-7.8-10.79-12.19-15.79-5.82-6.62-13-11.83-19.87-17.12a111.51,111.51,0,0,0-17.74-11.3c-2.76-1.39-6.11-2.23-8.09-5,7-10.28,16.28-18.38,25.06-27a6,6,0,0,1,2.09-.84,11.17,11.17,0,0,0,4.21,2.64c10.2,4.48,20.09,9.44,28.21,17.35,3.82,3.72,8.1,7,11.73,10.89,5.87,6.3,12.26,12.23,16.27,20.07-.27,2.15-2.29,2.7-3.65,3.74A331.61,331.61,0,0,0,194,192.53Z"/><path class="cls-3" d="M223.64,166.43c-4-7.84-10.4-13.77-16.27-20.07-3.63-3.9-7.91-7.17-11.73-10.89-8.12-7.91-18-12.87-28.21-17.35a11.17,11.17,0,0,1-4.21-2.64c.25-2.06,2.05-2.81,3.37-3.93,8.28-7,16.06-14.63,25.54-20.11a10.24,10.24,0,0,1,6.27,2.48c2.25,2,5.43,2.07,7.95,3.51,10.7,6.12,20.86,13,29.73,21.65a118.75,118.75,0,0,1,12.38,13.63c2.81,3.73,5.71,7.43,8.65,11.08-4.46,3.1-8.64,6.81-13.48,9.14-6,2.89-10.42,7.65-15.78,11.26A18.72,18.72,0,0,1,223.64,166.43Z"/><path class="cls-3" d="M245.4,251.66a47,47,0,0,1-14.09-5.7c-7.18-4.61-14-9.56-19.62-15.9-5.26-6-10.45-12.14-13.82-19.55-.73-1.61-.39-2.31.69-3.52,8.36-9.39,18.45-16.85,27.86-25.06,1.79-1.56,3-1.9,4.87.94,4.5,7,7.58,14.6,10.77,22.11,3.25,7.67,6.13,15.77,7.33,24,.75,5,3,9.86,2.4,15.21S249.78,251.85,245.4,251.66Z"/><path class="cls-2" d="M89.38,143.14c5.9.89,10.6,4.12,15,7.91,1.56,1.35,3.49,2.62,4.3,4.36.94,2-1.7,3.15-2.57,4.78-3.57,6.76-7.49,13.33-11.3,20-1.25,2.18-2.53,2.76-4,.09-5.32-9.73-8.87-19.9-7.12-31.19C84.16,146.08,84.79,142.6,89.38,143.14Z"/><path class="cls-1" d="M374.24,620h20.33l-8.15,8.58c-.76.8-1.55,1.43-2.61.43Z"/><path class="cls-2" d="M616.86,225.92c-.19.33-.37.31-.53,0A.31.31,0,0,1,616.86,225.92Z"/><path class="cls-4" d="M670.49,200.2l1.87-2.33c1.51-1.93,3-3.83,4.29-5.67h0l0-.06c1.77-2.45,3.43-4.92,4.95-7.34a111.87,111.87,0,0,0,5.78-10.35c6.2-12.7,8.66-23.55,7.74-34.15-1-11.83-6.74-17.41-18.53-18.1-5.22-.3-7.86-1.06-8.82-2.53s-.6-4.56,1.51-10.28c7.09-19.16,10-40.51,8.82-65.28-.69-14.89-5.51-26-14.31-33-9.38-7.44-22.87-9.8-39-6.81-37.57,6.94-65,32.12-87.68,55.18a288.93,288.93,0,0,0-48.56,65.58c-.46.84-.92,1.69-1.36,2.54l-2.07-1.6-9.9-7.69-4.44-3.44-.16-.1c-13.5-7.26-25.83-5.74-37.71,4.63l-.05,0h0c-.92.8-1.87,1.69-2.81,2.64-.66.66-1.19,1.22-1.66,1.73-.82.87-1.68,1.84-2.69,3.05-1.33,1.6-2.6,3.27-3.77,5-.5.72-1,1.45-1.46,2.18-.65,1-1.23,1.93-1.77,2.84-.4.68-.79,1.36-1.18,2-1.43,2.52-2.84,5.25-4.31,8.34-1,2-2,4.24-3.32,7.13l-1.33,3q-1,2.23-2,4.46a1.72,1.72,0,0,0-.07.21l-.25.91a313.14,313.14,0,0,0-11.6,52.51c-.94,3.64-1.58,6.47-2,9.14a1,1,0,0,0,0,.24c0,.09,0,.24,0,.5v.12c-.07,1-.13,2.09-.23,3.13l-.06.66a33.74,33.74,0,0,1-.93,6,16.18,16.18,0,0,1-1.43,3.48,8.46,8.46,0,0,1-2.38.36c-3.87.1-7.32.23-10.54.4-1.24.06-2.47.13-3.71.21l-.42,0-1.84.13c-4.89.35-9.41.8-13.82,1.38l-1.52.2c-1,.13-2,.28-3,.45l-2,.32c-5.12.85-10.13,1.94-14.91,3.22a134.21,134.21,0,0,0-14.12,4.67,3.59,3.59,0,0,1-2.95.15,4.33,4.33,0,0,1-1.85-3c-.49-1.92-1.91-10-3.16-17.22-1.46-8.38-2.08-11.85-2.27-12.39q-3.6-11.85-7.18-23.74l-2.7-8.91a.49.49,0,0,0,0-.11l-.26-.62c-.68-1.43-1.38-3-2.14-4.66-.95-2.12-1.87-4.25-2.8-6.37-3.59-8.28-7.31-16.85-12.41-24.59-1.06-1.61-1.46-2.88-1.23-3.88s1.28-2.09,3.32-3.29c5.45-3.19,10.92-6.54,16.21-9.78l7-4.25a1.33,1.33,0,0,0,.19-.14l.34-.32.09-.09.26-.31c4.44-5.22,9-10.61,8.5-17.26a16.93,16.93,0,0,0-3.36-8.45,1,1,0,0,0-.19-.21c-11.77-10-25.85-11.58-41.69-12.5a12.92,12.92,0,0,1-5.09-1c-1.41-.72-2.21-2.09-1.57-6.4a54.16,54.16,0,0,0,.56-6.92c0-1.67,0-3.4-.09-5.28-.07-1.36-.18-2.78-.33-4.22-.23-2.37-.56-4.9-1-7.95a17,17,0,0,0-20.09-14.28c-6,1.14-11.08,3.88-16,6.54-2,1.05-4,2.14-6,3.09A20.62,20.62,0,0,1,219,53.4a16.55,16.55,0,0,1-6.29-1.4A20.5,20.5,0,0,1,211,50.71c-23-19.6-45.85-31.56-69.92-36.57-17.06-3.55-30.48-2.19-39.89,4-7.5,5-12.41,13-14.58,23.94C84.35,53.63,85.17,65.2,86.39,76c1.69,15,5.71,29.07,10,44q.93,3.24,1.85,6.5l.55,2-1.46-.16c-11.1-1.1-18.83.79-23.62,5.81-5,5.18-6.52,13.46-4.79,25.3a68.85,68.85,0,0,0,1.52,7.51,75.74,75.74,0,0,0,11,23.87c.27.4.55.78.83,1.16,1.63,2.25,2.92,4,1.41,7.56-.78,1.82-1.51,3.7-2.18,5.59-.79,2.26-1.53,4.64-2.2,7.08,0,0,0,0,0,.05h0c-.33,1.22-.62,2.35-.89,3.45-.33,1.4-.62,2.69-.88,4-.18.84-.34,1.67-.5,2.51s-.29,1.58-.42,2.35-.25,1.46-.37,2.19c-1.35,8.58-2.06,17.44-2.63,25.07a1.24,1.24,0,0,0,.12.6l.23.46.12.22h0a1.16,1.16,0,0,0-.45,1c.09,1.59.17,3.19.25,4.79a1.35,1.35,0,0,0,.11.45l.27.53a7.41,7.41,0,0,1,.34.7,3.47,3.47,0,0,0-.27.3,1.15,1.15,0,0,0-.25.91c.27,1.91.51,3.88.73,5.78a104.69,104.69,0,0,0,2,12.69,111.52,111.52,0,0,0,3.7,12.14c.38,1.06.8,2.15,1.24,3.24a.25.25,0,0,0,0,.07.11.11,0,0,0,0,.07c.32.83.69,1.7,1.15,2.75,10.92,24.87,30.36,43.52,59.45,57,.51.32,1,.63,1.52.93a33.42,33.42,0,0,1,6.58,4.79c.93.94,7.23,5.95,9.9,7.1a25.55,25.55,0,0,0,17.53,2.46,9.21,9.21,0,0,1,9,2.67,5.68,5.68,0,0,1,.56,6.36,1.06,1.06,0,0,0-.09.25c-3.74,17.8-7.72,38.57-7.57,59.68-1.57,32.66.84,59.17,7.37,81,8.67,29.06,24.92,50.13,48.29,62.63.47.35,2.24,1.47,14.94,7.62,1.82,1,3.53,1.84,5.2,2.66l1.41.69c4.07,2,10.2,4.95,15.21,24.27l.1.39c.15.58.3,1.17.45,1.78.91,3.81,1.76,8.17,2.51,13l0,.13.09.32c.1.35.2.7.29,1l.3,1.2c.85,3.53,1.64,7.69,2.47,12.1,1.74,9.24,3.72,19.72,7.17,29a66.35,66.35,0,0,0,2.85,6.63l0,.08c.36.73.76,1.48,1.17,2.22a1.09,1.09,0,0,0,.12.36,63,63,0,0,0,11,15.47,34.56,34.56,0,0,0,25.52,10.8,46.89,46.89,0,0,0,11.89-1.62,1.05,1.05,0,0,0,.21-.06,70,70,0,0,0,18.88-7.86,97.2,97.2,0,0,0,27.77-24,13.34,13.34,0,0,1,2.84,1.56c.57.68,1.21,1.54,2,2.65a1.13,1.13,0,0,0,.1.13c9,9.66,27.21,26.11,48.8,27.65,15.83,1.77,28.32-4.56,38.19-19.34,5.7-8.53,15.85-48.32,17.57-56.7,1.07-5.21,1.77-10.14,2.39-14.48,1.61-11.39,2.78-19.62,8.83-24.64a23.23,23.23,0,0,1,10.35-4.5c1.28-.26,4-1.81,9.22-4.75,9.07-5.15,22.77-12.94,29.71-13.1a85.14,85.14,0,0,0,11.77-1.5,195,195,0,0,0,67.86-26l4.42-2.72c3.38-2.08,6.31-3.89,6.9-4.17a1.07,1.07,0,0,0,.51-.3l3.76-3.81,7.23-7.32L661,524.8l.31-.31.35-.36.11-.13c.52-.72,1-1.45,1.55-2.18a.56.56,0,0,1,.05-.08c.4-.57.78-1.13,1.16-1.7.75-1.1,1.48-2.22,2.18-3.34,1-1.61,2-3.24,2.9-4.84.23-.4.46-.81.67-1.21l0-.06c.45-.79.92-1.66,1.48-2.74.36-.67.7-1.35,1-2,1-2,1.91-4,2.71-5.87.13-.26.24-.52.34-.78,8.5-20.16,10.82-41.41,7.1-65-2.53-16-8.64-30.8-14.54-45.07-1.35-3.27-2.75-6.66-4.08-10a1.23,1.23,0,0,0-.14-.25c-3.82-5.35-7.52-10.93-11.09-16.32-6.41-9.67-13-19.67-20.68-28.78-.06-.07-.12-.14-.2-.25a4.42,4.42,0,0,1-1.28-3.13c.21-1.39,1.93-2.58,3.59-3.73a17.71,17.71,0,0,0,3.14-2.54q2.79-3.39,5.63-6.74c2.49-3,5.06-6,7.55-9.08,1.83-2.23,3.46-4.3,5-6.3,2.12-2.76,4-5.3,5.77-7.8l.08-.12c9.55-13.51,15.63-25.64,19.12-38.16,5.95-21.33-.59-35.17-19.43-41.14a5,5,0,0,1-1.35-1.15l-.38-.39-.27-.26c4.51-5,8-8.94,11.08-12.8ZM584.81,485c.06-.56.13-1.14.16-1.7,1.23-23.74,2.17-54.59-1.06-86,13.92,25.44,27.56,68.9,19.8,87.81a19.22,19.22,0,0,1-3.83,3.15,42.27,42.27,0,0,1-6.06,2.58,11.27,11.27,0,0,1-6.72-.25C584.42,489.55,584.48,487.88,584.81,485Zm-4.57,25.89c.39-2.26,1.27-3,2-3.38,6.33.72,12.54-.82,18.31-2.46l2.09-.47c-1.26,9.41-8,18.95-13.41,26.66a7.88,7.88,0,0,0-1.64,6.88,7.66,7.66,0,0,0,4.86,4.91l.18.06a8.62,8.62,0,0,0,4.22-.14c3.23-.18,5.72-2.87,7.53-5.22,11-14.25,17.16-31.13,18.19-50.15C624.8,446,612.25,406,584.2,365.17c1.14-.76,2.31-1.53,3.51-2.29a150.25,150.25,0,0,0,16.87-10.59A109.82,109.82,0,0,0,616,343.81a4.46,4.46,0,0,1,1.69-1c34.9,38.47,52.66,83.55,48.76,123.75-2.68,27.56-15.61,50.67-37.37,66.79-10.74,7.63-23.48,13.77-38.94,18.8a178.15,178.15,0,0,1-26.83,5.57c-.93,0-1.86,0-2.77-.11A113,113,0,0,0,580.24,510.92ZM165.34,324.66c0,.81-.44,2.29-2.79,4.79-2.37-1.89-3.35-4.54-4.29-8.32.91.33,1.87.62,2.81.91a31.73,31.73,0,0,1,3.52,1.22A1.88,1.88,0,0,1,165.34,324.66Zm218.17,338.7h0c-3.76,1.37-7.56,6.26-11.23,11-1.2,1.54-2.33,3-3.45,4.31a51.81,51.81,0,0,1-5.38,4.57.69.69,0,0,0-.13.11,68,68,0,0,1-9.37,7.8l-.5.34a61.07,61.07,0,0,1-15.57,7.27h-.05a54,54,0,0,1-8.17,1.58l-.27,0-.31,0H329a28.44,28.44,0,0,1-11.09-1.25l-.19-.07a22.27,22.27,0,0,1-10.67-9A115,115,0,0,1,294.61,665a189.18,189.18,0,0,1-5.78-27.44A141.94,141.94,0,0,1,291.14,599a14.94,14.94,0,0,1,.4-1.63c3.16-5.81,8-7.77,14.74-6,11.71,3.28,23.26,8.82,35.29,16.95a83,83,0,0,1,9.5,8.81,1.25,1.25,0,0,0,.45.31,36.38,36.38,0,0,1,5.86,2.8c8.2,6.77,16,14,21.79,19.6,3.5,3.69,6.15,5,10.06,1.42a17.58,17.58,0,0,0,4.83-3.93c5.66-6.15,12.62-13.12,21.31-18.22a1.84,1.84,0,0,0,.22-.17c15.18-14.68,30.38-24,46.48-28.56a38.21,38.21,0,0,1,5.67-1.2,11.45,11.45,0,0,1,10.4,6.55,64.75,64.75,0,0,1,2.76,13,1.37,1.37,0,0,0,.07.29c.22,1.67.84,12.34.83,14.3a1.15,1.15,0,0,0-.06.37c0,23.18-5.92,55.19-22.43,69.14a26.76,26.76,0,0,1-22.62,6.15l-1.47-.26a53,53,0,0,1-6.81-2.25c-8.52-3.44-14.63-7.38-19.24-12.45-1.72-1.76-3.46-3.52-5.2-5.27-3.92-4-8-8.06-11.8-12.23-3-3.26-5.84-4.28-8.66-3.12ZM378,621.13h13.61c0,.17-.06.34-.1.5l-.09.1a46.52,46.52,0,0,1-5.19,5.34l-.07,0c-2.42.46-3.81-1-6.25-3.82C379.3,622.59,378.68,621.86,378,621.13Zm86.11-44c-7.93.83-17.14,4.44-28.19,11.07l-.06,0a135.41,135.41,0,0,0-12.94,8.53c-2.59,1.82-5,3.6-7.19,5.17l-.43.31a23.55,23.55,0,0,1-13.53,3.4c-4.64-.2-9.31,0-13.83.2-15.19.7-32.79-.31-48.16-13-7.59-6.27-17.48-10.58-31.1-13.56a38.33,38.33,0,0,0-8.13-1,20.83,20.83,0,0,0-8.94,1.84,17,17,0,0,0-7.26,5.4,4.61,4.61,0,0,1-.86.51,25,25,0,0,1-4.22-.22,151.54,151.54,0,0,1-28.44-11.9,157.55,157.55,0,0,1-24.65-18.79c-24.7-23.45-33.91-65.66-23.47-107.56.4-1.21.86-2.52,1.41-4,6.5-17.38,14.37-35.49,27.77-50.17l.11-.12c12.64-12.54,27.47-19.91,44.1-21.89,54.68,1.95,84.82,64.14,101,97.63.81,2.6,3,5.4,5.58,5.8a4.38,4.38,0,0,0,4.35-2.14,10.44,10.44,0,0,0,2.61-4.21c.2-.48.4-1,.63-1.43,9.36-19.57,20.1-40.19,35.14-58.32.61-.74,1.23-1.48,1.85-2.2,15.93-18.44,32.2-30.12,48.36-34.72,19.21-5.47,37.86-.59,55.42,14.48,22.34,22.43,36.57,52,38.09,79-.13,44.44-12.5,76.62-37.78,98.33a118.54,118.54,0,0,1-15.3,9.76c-2.14,1.15-4.17,2.52-6.14,3.84a59.25,59.25,0,0,1-7.13,4.35c-.53.26-1.09.52-1.74.78a3.17,3.17,0,0,1-.37.15l-2,.81c-5.92,2.41-10.2,4.15-16.08-2.25C477.23,575.3,469.48,576.05,464.09,577.13ZM171.34,349.76a87.05,87.05,0,0,1,12-20.6c3-4,4.91-6.6,4.37-9.3-.09-3.18-2.45-5.81-7-7.82-2.47-1.08-5-2.14-7.46-3.16-5.44-2.27-11.06-4.61-16.31-7.39a8.25,8.25,0,0,1-3.72-3.27c.09-1.74,2.32-3.57,6.32-5.18,12.12-4.88,34.24-5.48,38.18-1a1.13,1.13,0,0,0,.3.24c3.62,2.05,7.42,1.92,10.17-.36a7.6,7.6,0,0,0,2.46-8.07c-.28-2.8-2.38-5.15-6.24-7a208.81,208.81,0,0,1-33.81-20.67c-3-2.17-4.18-3.63-4.29-5.29,2-6.89,11.93-18.94,18.52-26.94,2.24-2.73,4-4.89,5-6.3a3.63,3.63,0,0,1,.76-.7,8.27,8.27,0,0,1,.79,1.18c5.84,11.34,31.74,40,51,43,5.54.87,10.1-.44,13.54-3.89a13.85,13.85,0,0,0,4.72-7.85l.06-.17a1.21,1.21,0,0,0,.05-.34,31.12,31.12,0,0,0,.34-9.89A140.73,140.73,0,0,0,242.38,182c-2.2-3.73-2.9-6.53-2.18-8.77,4-4.06,12.6-9.33,18.93-13.19a85.64,85.64,0,0,0,8.14-5.29,3.11,3.11,0,0,1,.85-.39,5.92,5.92,0,0,1,.53.79l.21.35c10.68,17.3,18.65,37.1,25.82,64.12,2.82,13.37,4.66,23.71,6,31.26,2.57,14.41,3.53,19.8,6.69,21.45,2.45,1.27,5.38-.08,10.68-2.55,10.54-4.89,30.15-14,70.93-14.28h.14a2.08,2.08,0,0,1,1.72.4c1.43,1.18,1.82,4.6,2,7.1a7.24,7.24,0,0,0,.05,1l0,.22h0a.13.13,0,0,0,0,.06c0,1.16.08,2.35.11,3.54.12,4.49.24,8.73,1.55,11.27,1.64,12.05,7.29,21.06,16.8,26.79,19.19,11.56,52.39,7.6,76.78-1.44l.24-.09a30.29,30.29,0,0,1,4.07-1.33,3.31,3.31,0,0,1,1.48.6,26.11,26.11,0,0,1,1.29,4.29l.14.55c5.6,19.2,12.56,34.43,20.71,45.28,11.78,15.71,26,22.33,42.33,19.69,1.15.06,3.9,1.72,6.2,14.76,1.56,8.87,2.43,20.1,3.06,28.29.06.8.12,1.58.17,2.33a17.1,17.1,0,0,1-1.8-3.38c-.3-.69-.62-1.4-1-2.1-11.32-21.84-28.79-47.72-63.69-54.06-16.47-3-32.61.73-49.37,11.37-16.16,10.26-30.27,24.13-43.1,42.37a249.42,249.42,0,0,0-25.1,42.4c-2.7-4.56-5.26-9.08-7.73-13.47-5.89-10.42-11.45-20.26-18.29-29.42-10.93-14.65-24.74-31.1-44.27-42.06-12.19-6.83-24.49-10.21-36.42-10.21-18.82,0-36.72,8.4-51.8,24.9-10.72,11.74-18.34,25.24-26,40.29a262.62,262.62,0,0,1,5.46-37.57l.13-.57A250.58,250.58,0,0,1,212.11,362a10.4,10.4,0,0,1,1.58-2.4,13.5,13.5,0,0,1,2.88-1.1c2.62-.78,5.89-1.75,6.38-6.25a9.29,9.29,0,0,0,0-3h0a10.8,10.8,0,0,0-.58-2.41c-2.24-6.16-8.31-4.6-10.9-3.93-6.08,1.55-12.21,3.27-18.15,4.94-4.68,1.31-9.52,2.67-14.29,3.93-2.68.72-5.43,1.45-8.27.3C170.92,351.3,171.12,350.52,171.34,349.76Zm-7.42-233.35a.52.52,0,0,0,.11-.1c25.39-24.91,54.24-44.85,83.45-57.66a2.69,2.69,0,0,1,2.33.68c3.41,3.25,2.07,16.14,1.09,25.56-.58,5.65-1.09,10.54-.63,13.1,1.77,7.82,11.58,7.54,20.24,7.28,4.38-.13,8.51-.25,11.2.63l.23,0c16.57,1.87,19.56,4.83,19.87,6.42.83,4.32-13.74,12.11-20.76,15.86-22.35,12.76-55,33.5-83.65,59.79-31.17,28.59-50.36,57.09-57,84.69-5.9,24.37-2,48.07,11.71,70.51-34.68-13.51-55.67-38-60.77-71.05C82.63,216.09,121.42,148.93,163.92,116.41Zm-7.19,158.17c.89-4.79,1.55-6,2-6.13s2.52,1.41,4.12,2.7c.82.66,1.77,1.42,2.85,2.24l-8.56,2.21A6.9,6.9,0,0,1,156.73,274.58Zm90.75-27.13c-1.34.91-3.72.63-7.07-.83-16.38-7.16-28.91-18.1-37.24-32.5-2.78-4.82-2.59-7.85.69-10.82l5.77-5.24q3.41-3.1,6.81-6.19l.08-.07,2.74-2.28c2.61-2.18,5.31-4.43,7.92-6.71a6,6,0,0,1,.95-.7A2.39,2.39,0,0,1,229,182a4.8,4.8,0,0,1,1.27,1.47c.74,1.17,1.79,3,2.9,5.2l1.84,4.09c6.71,14.95,13.66,30.41,14.25,47.53C249.45,244.12,248.84,246.52,247.48,247.45Zm327,104.4h0c-22.8,11.47-35.25,7.5-49.32-15.75-5.22-8.61-9-16.1-10.45-24.62a1.26,1.26,0,0,0-.13-.37c-2.69-4.82-3.75-10.05-4.87-15.59-.2-1-.39-2-.6-2.95-1.37-6.44-2.45-9.72-4.93-10.92a4.65,4.65,0,0,0-2.12-.47c-2.18,0-5,1.17-9.26,3.26-2.49,1.23-5.16,2.28-7.73,3.3-1.2.47-2.39.94-3.57,1.43-14.35,5.85-30.16,7.84-48.34,6.07-13.93-1.36-19.32-5.51-21.36-16.45-8.59-46.24-2.07-90.49,19.32-131.46a119.55,119.55,0,0,1,8.45-12.28c5.31-5.71,11.21-8,17.53-6.66,25.72,5.23,52.32,65.24,58.09,81.14,4.83,19.28,7.16,26.11,11.38,28.54,3.23,1.85,7.11.73,13-1a113.6,113.6,0,0,1,24.1-4.71c1.25-.16,2.81-.38,4.62-.63,21.7-3,79.32-10.95,94.36,3.86a11.21,11.21,0,0,1,3.35,9.92c-5.28,23.56-21.13,49.86-43.48,72.15A190.58,190.58,0,0,1,574.46,351.85ZM659,87.26c-5,24.34-15.67,51.24-26.46,66.94l-.67.81a30.74,30.74,0,0,0-2.84,3.77,8.74,8.74,0,0,0-1.21,10.08,6.84,6.84,0,0,0,7.86,3.43,1.14,1.14,0,0,0,.36-.15c.88-.55,1.73-1.13,2.53-1.73,2.11-.82,3.76-2.73,5.27-4.63,1.9-1.92,3.66-3.95,5.08-5.63,1.9-2,3.72-4.08,5.47-6.11,3.74-4.33,7.61-8.81,12.47-12.14l.06,0a31.53,31.53,0,0,1,4.46-2.32c2.85-.67,4.78-.33,5.9,1.06,4,4.88-1.9,21.36-5.35,28.57a108.27,108.27,0,0,1-16,24.18c-.81.87-1.65,1.74-2.48,2.6-1.63,1.68-3.31,3.42-4.84,5.27h0l-.21.24c-1.31,1.33-2.71,2.69-4.15,4.05-4.7,3.66-10.28,5.17-17.53,4.77-15.67-.87-32.36.28-53.81,3.73,11.28-17.53,19.23-33.68,24.94-50.62a116.9,116.9,0,0,0,5.63-25.77c.78-7.87.88-16.71-7.72-22.16a15.75,15.75,0,0,0-8.64-2.64c-5.16,0-10.06,2.58-14.73,5.38-12.31,7.39-21.46,18-28,26.36a264.34,264.34,0,0,0-19.69,26.77c-1.31,1.82-2.63,3.67-4,5.52q-2.68-4.4-5.26-8.69c-4.84-8-9.4-15.61-14.4-23.07-2.63-3.92-1.44-6.84.26-10,.37-.69.75-1.37,1.14-2.07A326.35,326.35,0,0,1,551.18,67.8a3.73,3.73,0,0,0,.29-.3c2.62-2.65,5.41-5.38,8.29-8.12l2.15-2s.08-.07.07-.07l.11-.09.34-.31.7-.64C586,35.57,620,13.31,652.05,24.56,662.63,35.44,665.08,57.68,659,87.26ZM546,217.16c-1.93.38-3.92.77-5.85,1.3-2.4.65-3.18-.65-3.56-1.7a10.09,10.09,0,0,1-.36-1.27,8.38,8.38,0,0,0-.88-2.48c-9.65-16.12-8-30.08,5.3-45.28,3.34-3.82,6.53-7.86,9.62-11.77,8.18-10.38,16.65-21.11,28.56-28.1h0a23.81,23.81,0,0,1,4.19-2c5.11-.62,8,1.36,8.93,6.22.06.6.08,1.22.08,1.8a93.58,93.58,0,0,1-6,29l0,.12c-1.25,3.36-2.62,6.78-4.09,10.17-.3.7-.61,1.4-.91,2.09-1.28,2.85-2.67,5.82-4.25,9.07a84.4,84.4,0,0,1-5.91,9.8,74.61,74.61,0,0,0-6.76,11.62C560.41,214.31,553.4,215.69,546,217.16ZM92.23,177.91c-6.16-8.32-8.54-18-7.29-29.65q0-.28.06-.6a5,5,0,0,1,4.33-3.35c5.88,1.1,11.81,4.61,16.75,9.9.19,1.8-1,3.84-2.34,5.78-1.41,2.11-2.67,4.37-3.89,6.55A58.11,58.11,0,0,1,92.23,177.91Zm27-40.17a336,336,0,0,1-12.11-37.68c-2.22-10-4.16-20.29-5.31-28.24l0-.41c-.39-3.32-.7-6.64-.92-9.87a4,4,0,0,1,.09-.87,1.2,1.2,0,0,0,0-.38c-.78-10.37,2-19.83,7.56-25.3,4.19-4.16,9.68-6,16.39-5.43,31.38.94,58.93,20.66,76.93,35.43A386.26,386.26,0,0,0,119.2,137.74Z"/></svg>