<svg id="Camada_1" data-name="Camada 1" xmlns="http://www.w3.org/2000/svg" viewBox="0 0 763.55 716.22"><defs><style>.cls-1{fill:#632618;}.cls-2{fill:#c7532c;}.cls-3{fill:#fffefe;}</style></defs><path class="cls-1" d="M739.41,5.49a43.5,43.5,0,0,0-21.21,1A605.7,605.7,0,0,0,660.15,28c-5.85,2.55-11.5,5.72-17.3,8.17-7.37,3.1-14.44,6.62-21.46,10.29C611.22,51.73,601.62,57.94,592,64.1A198.56,198.56,0,0,0,556,94c-10.34,10.73-17.34,23.85-24.12,36.94-8.71,16.8-15.53,34.37-22,52.08q-7.39,20.42-12.91,41.41c-2.67,10.21-2.67,10.09-12.05,5.15a230.9,230.9,0,0,0-47.56-19.09c-20-5.4-40.31-7.29-60.77-7.26a220.86,220.86,0,0,0-66.41,10.18c-12.58,4-24.26,9.65-35.68,15.8-3.89,2.1-4.62,1.35-5.37-1.85-1.5-6.44-2.82-12.91-4.29-19.35a386.29,386.29,0,0,0-25.17-73.59c-11.62-25.64-30.55-45.27-53.6-61.66a520.94,520.94,0,0,0-60-36.39c-14.44-7.57-29.3-14.14-44.3-20.44-11.9-5-24.11-9.35-36.34-13.56-9-3.09-18.36-3.22-27.08.36C6.56,7.52,1.56,17.62.2,29.31-.45,34.82.71,40.6.64,46.09c-.11,8.45,1.24,16.6,2.23,24.85Q4.64,85.72,7,100.43c1.46,9.06,3.07,18.12,5.07,27.09,3,13.52,5.17,27.2,9,40.58s6.42,27.2,14,39.26a174.82,174.82,0,0,0,20.33,26.3c11.38,12.19,24.06,22.94,37.25,33a361.63,361.63,0,0,0,47.13,30.78c13.81,7.5,27.38,15.58,42.67,20.2,2.82.85,3.49,2.56,2,5.38a209.68,209.68,0,0,0-11,23c-10,25.14-14.95,51.28-17,78-1.18,15.27-1.68,30.6.05,45.85.73,6.45-1.06,10.8-7.08,13.61a11.29,11.29,0,0,0-3,2.68c-14.58,15.39-21.4,34.08-23.61,54.4-2.47,22.7,3.09,43.68,15.82,63,11.1,16.85,25.75,30.12,42.55,41.35a189.59,189.59,0,0,0,55.49,25c12.27,3.38,27.18,7.74,32.75,8.69,4,.68,8,1.4,12,2a8.48,8.48,0,0,1,4.79,2.69A93.46,93.46,0,0,0,312,701.57c10.08,4.88,20.57,8.95,31.83,11,10.05,1.83,32,4,33.44,3.59,3-.89,26.46-2.3,28.7-2.63a114,114,0,0,0,44.1-16.1A126,126,0,0,0,468,684.32c5.71-5.11,13.71-4,20.82-5.09,1.91-.29,17.91-4.56,21.08-5.4a243.23,243.23,0,0,0,24.73-7.5C561.59,656,586.05,642,605.54,620.66c9.54-10.45,17.29-21.81,22.17-34.89,5.71-15.32,6.86-31,4.94-47.26-2.37-20-9.6-37.79-24.68-51.47-5.7-5.17-8.25-9.72-7.12-16.73.1-.65,0-1.33.07-2,2-18.41,1.26-36.81-.63-55.14C598.63,397,596,381,591.15,365.35c-3.77-12.24-7.72-24.42-14.22-35.63-4.36-7.53-4.2-8,4.38-10.73.65-.21,1.24-.57,1.87-.82,21.3-8.3,41.06-19.42,60.69-30.82a261.19,261.19,0,0,0,36.28-24.92c11.19-9.32,22.62-18.45,32.45-29.36,9-9.94,16.65-20.43,21.11-32.88,7-19.58,11.61-39.83,15.85-60.07,4.72-22.49,8.31-45.22,11.09-68.05C762,61.31,763,50.53,763.5,39.72,764.27,24.52,755.35,8.39,739.41,5.49Zm-142,500a12.51,12.51,0,0,1,.42-1.95c.62-1.49.11-3.94,1.68-4.4,2.27-.67,2.78,2.18,3.72,3.39,14.16,18.24,18.85,39.08,15.44,61.29-4.41,28.68-21,50.08-45,66.63a188.75,188.75,0,0,1-37.17,20.12,250.51,250.51,0,0,1-52.16,14.56c-2.24.37-2.83-.65-3.86-2.17-3.38-5-9.27-5.21-12.77-.39C453,682.88,432,693.42,407.59,698.43c-27.7,5.68-55,4-81.3-6.49-15.81-6.3-29.34-15.8-39-29.82-3.74-5.41-9.57-5.78-13.39-.5-1.62,2.24-3.09,2.54-5.53,2-21.63-4.59-42.54-11.16-62.33-20.92-18.38-9.08-34.58-20.75-48.07-36-26.85-30.43-28.88-77.88-4.3-107.53,1-1.25,1.75-2.9,3.89-3.34,1.82,6.89,3.33,13.87,5.51,20.63,8.23,25.51,24.06,45.6,46.57,60.88,18.08,12.28,38.15,20.22,59.33,25.64,3.64.94,4.39,2,3,5.43a49,49,0,0,0-2.4,10.2c-.7,4.33,1.69,7.8,5.79,8.57,4.5.84,7.32-1.54,8.71-5.29a69.26,69.26,0,0,0,2.71-10.65c.56-2.84,1.74-3.78,4.89-3.21,45,8.14,90.32,8.85,135.79,5.55,11.89-.86,23.83-1.86,35.49-4.5,3.55-.8,5,.41,5.66,3.53.56,2.78,1.17,5.54,1.82,8.3,1.28,5.42,4.89,8.47,9,7.62,4.46-.92,7.37-6,5.81-11.1a42,42,0,0,1-.9-4.82c-1.36-7.3-1.36-7.35,6.23-9.4,15.75-4.25,31-9.74,45.2-17.7C568.09,567.36,589.08,541,597.44,505.45ZM745.77,76.12c-1.52,11.11-3,22.23-4.85,33.29-3.79,22.52-9.49,44.67-14.34,67-5.16,23.7-17.42,42.94-35.65,59.11a342.66,342.66,0,0,1-34.07,27A427.77,427.77,0,0,1,599.13,296,368.4,368.4,0,0,1,563,310.84c-7.79,2.74-9.35,6.54-5.24,13.23,9.24,15.05,15.53,31.31,20.7,47.93,2.85,9.14,3.86,18.81,5.81,28.22,2.77,13.37,3,27,3.41,40.5.42,14.8-.65,29.6-2,44.36a117.29,117.29,0,0,1-9.92,38.68c-9.09,19.65-23,35.08-42.27,46.47a188.46,188.46,0,0,1-47.12,19.6,280.12,280.12,0,0,1-45.25,8c-19.75,2-39.48,3.37-59.33,2.78-15.71-.15-31.39-.26-47.11-1.62-18-1.56-35.93-3.43-53.48-7.5s-34.33-9.56-50.1-18.13c-14-7.6-26.4-16.92-36.39-29A93.19,93.19,0,0,1,178,513.78c-8.83-27-9.1-54.89-7.85-82.69,1.07-23.68,4.64-47.26,12.58-69.82,4.61-13.11,9.94-26.08,17.88-37.83,5.72-8.46,3.48-13-6.51-15.83a132.46,132.46,0,0,1-20.18-8.06c-8.23-3.92-16.39-7.94-24.32-12.47-11.48-6.57-22.53-13.69-33.57-20.89a292,292,0,0,1-28.68-21.41,308,308,0,0,1-25.9-25.08A116.78,116.78,0,0,1,46.3,198.64c-5.92-10-8.39-21.32-11.28-32.4-4.84-18.62-8.22-37.52-11.87-56.38-3.1-16-5.46-32.09-7.36-48.19C14.53,51,11.67,40.08,14.24,29.17c1.18-5,2.7-10,7.91-12.86,3.17-1.73,5.88-3,9.94-1.4,3,1.21,6.71.52,10.24,1.42,9.9,2.54,19.08,6.78,28.6,10.21,16,5.78,31.22,13.34,46.36,20.87,17.84,8.87,35.25,18.57,51.45,30.28,9.15,6.62,18,13.55,26.69,20.68,11.57,9.47,19.67,21.41,26.86,34.06,12.88,22.67,20.19,47.38,27.27,72.1,3,10.34,4.57,21,6.88,31.56.61,2.78-1,4.28-2.81,6-4.41,4.22-4.79,7.58-1.45,11.17,3,3.22,7.05,3.23,11.35-.15a154.83,154.83,0,0,1,41.1-22.87,198.12,198.12,0,0,1,70.85-13c19.59,0,39,1.44,58.07,6.95,13.58,3.94,26.94,8.2,39.33,14.81a168.44,168.44,0,0,1,24.49,15.84c3.1,2.42,6.95,3.38,9.83.72s4.38-6.34,1.15-10.27c-2.77-3.38-.63-7.12.27-10.41a674.88,674.88,0,0,1,21-64.4,349.29,349.29,0,0,1,19.47-42.36c9.62-17.53,23-31.9,39.2-44.35,18.49-14.22,38.87-25.15,59.6-35.51a383,383,0,0,1,46.64-19c8-2.75,16-5.42,23.9-8.45a34.74,34.74,0,0,1,17.15-1.92c8.52,1.09,12.52,6.51,13.22,15.4C749.9,48.23,747.69,62.21,745.77,76.12Z"/><path class="cls-2" d="M381.73,600.62c-15.71-.15-31.39-.26-47.11-1.62-18-1.56-35.93-3.43-53.48-7.5s-34.33-9.56-50.1-18.13c-14-7.6-26.4-16.92-36.39-29A93.19,93.19,0,0,1,178,513.78c-8.83-27-9.1-54.89-7.85-82.69,1.07-23.68,4.64-47.26,12.58-69.82,4.61-13.11,9.94-26.08,17.88-37.83,5.72-8.46,3.48-13-6.51-15.83a132.46,132.46,0,0,1-20.18-8.06c-8.23-3.92-16.39-7.94-24.32-12.47-11.48-6.57-22.53-13.69-33.57-20.89a292,292,0,0,1-28.68-21.41,308,308,0,0,1-25.9-25.08A116.78,116.78,0,0,1,46.3,198.64c-5.92-10-8.39-21.32-11.28-32.4-4.84-18.62-8.22-37.52-11.87-56.38-3.1-16-5.46-32.09-7.36-48.19C14.53,51,11.67,40.08,14.24,29.17c1.18-5,2.7-10,7.91-12.86,3.17-1.73,5.88-3,9.94-1.4,3,1.21,6.71.52,10.24,1.42,9.9,2.54,19.08,6.78,28.6,10.21,16,5.78,31.22,13.34,46.36,20.87,17.84,8.87,35.25,18.57,51.45,30.28,9.15,6.62,18,13.55,26.69,20.68,11.57,9.47,19.67,21.41,26.86,34.06,12.88,22.67,20.19,47.38,27.27,72.1,3,10.34,4.57,21,6.88,31.56.61,2.78-1,4.28-2.81,6-4.41,4.22-4.79,7.58-1.45,11.17,3,3.22,7.05,3.23,11.35-.15a154.83,154.83,0,0,1,41.1-22.87,198.12,198.12,0,0,1,70.85-13c19.59,0,39,1.44,58.07,6.95,13.58,3.94,26.94,8.2,39.33,14.81a168.44,168.44,0,0,1,24.49,15.84c3.1,2.42,6.95,3.38,9.83.72s4.38-6.34,1.15-10.27c-2.77-3.38-.63-7.12.27-10.41a674.88,674.88,0,0,1,21-64.4,349.29,349.29,0,0,1,19.47-42.36c9.62-17.53,23-31.9,39.2-44.35,18.49-14.22,38.87-25.15,59.6-35.51a383,383,0,0,1,46.64-19c8-2.75,16-5.42,23.9-8.45a34.74,34.74,0,0,1,17.15-1.92c8.52,1.09,12.52,6.51,13.22,15.4,1.1,14-1.11,28-3,41.9-1.52,11.11-3,22.23-4.85,33.29-3.79,22.52-9.49,44.67-14.34,67-5.16,23.7-17.42,42.94-35.65,59.11a342.66,342.66,0,0,1-34.07,27A427.77,427.77,0,0,1,599.13,296,368.4,368.4,0,0,1,563,310.84c-7.79,2.74-9.35,6.54-5.24,13.23,9.24,15.05,15.53,31.31,20.7,47.93,2.85,9.14,3.86,18.81,5.81,28.22,2.77,13.37,3,27,3.41,40.5.42,14.8-.65,29.6-2,44.36a117.29,117.29,0,0,1-9.92,38.68c-9.09,19.65-23,35.08-42.27,46.47a188.46,188.46,0,0,1-47.12,19.6,280.12,280.12,0,0,1-45.25,8C421.31,599.8,401.58,601.21,381.73,600.62ZM239,273.08c3.27.12,4.86-1.26,5.66-4.19s-.25-4.83-2.8-6.13q-4.09-2.1-8.28-4c-1.11-.49-2.12-.78-2.5-2.17-3.76-13.73-8.29-27.24-12.4-40.87a598.77,598.77,0,0,0-26.84-72.23,67.74,67.74,0,0,0-12.24-18.85c-9.16-9.78-20.05-17.5-30.88-25.11a446.16,446.16,0,0,0-45.41-28.23C87.87,63.06,73.05,53.47,55.63,49c-8-2.09-14.2,1.41-14.73,9.62C40,72.7,43.51,86.28,47,99.7c4.31,16.63,8.11,33.4,14.25,49.64,3.85,10.18,6.77,20.8,10.86,30.93,4.58,11.34,9.17,22.79,17.71,32.18a75.26,75.26,0,0,0,15.76,12.7c5.82,3.69,11,8.38,16.88,11.92,10.07,6,19.23,13.48,30.07,18.31,8.16,3.64,15.72,8.37,24,11.93,5.12,2.21,11.34,2.81,14.73,8.95,4.51,8.16,10.32,15.66,15.89,23.22,2.19,3,5.66,5,9.28,2.28s3-5.74.2-9.38c-6-7.74-11.3-16-16.85-24a5.52,5.52,0,0,1-.72-5.71c1.07-2,3.53-1.15,5.17-.8a115.85,115.85,0,0,1,17.09,5C227.12,269.1,233.06,271,239,273.08ZM722.58,61.39c.77-6.1-7.28-11.89-17.28-8.13C699.67,55.39,694,57.41,688.61,60c-7.34,3.55-14.74,7-21.88,10.88-11.27,6.13-22.48,12.36-33.45,19a377.49,377.49,0,0,0-31.47,21c-9.32,7-18.72,14-25.18,23.78-7.09,10.69-12.12,22.46-16.9,34.22q-10.82,26.67-19.68,54c-2.39,7.33-5.41,14.52-7.1,22-2,8.65-3.75,16.88-14.23,19.42a4.85,4.85,0,0,0-1,.31c-3,1.45-3.53,4-2.36,6.65,1.06,2.43,2.78,3.92,6,3,6.39-1.8,12.54-4.18,18.79-6.34a134.62,134.62,0,0,1,15.18-4.16c1.82-.39,4.5-1,5.73.85s-.06,4.19-1.31,6c-5.43,8-10.71,16-16.44,23.79-2.34,3.17-4.31,6.18-.83,9.11,3.74,3.15,7,.61,9.68-2.23a25.08,25.08,0,0,0,1.71-1.87,181.4,181.4,0,0,0,15.14-22.33,7.75,7.75,0,0,1,4.44-3.71,277.09,277.09,0,0,0,48.39-23.37c14.59-8.82,28.65-18.48,42.36-28.66,9.59-7.11,15.43-16.57,20.17-26.34,6.77-14,11.88-28.76,16.65-43.52,5.8-17.94,12-35.8,15.82-54.29C719.1,86.66,721.82,76.16,722.58,61.39Z"/><path class="cls-3" d="M157.52,495.82c1.82,6.89,3.33,13.87,5.51,20.63,8.23,25.51,24.06,45.6,46.57,60.88,18.08,12.28,38.15,20.22,59.33,25.64,3.64.94,4.39,2,3,5.43a49,49,0,0,0-2.4,10.2c-.7,4.33,1.69,7.8,5.79,8.57,4.5.84,7.32-1.54,8.71-5.29a69.26,69.26,0,0,0,2.71-10.65c.56-2.84,1.74-3.78,4.89-3.21,45,8.14,90.32,8.85,135.79,5.55,11.89-.86,23.83-1.86,35.49-4.5,3.55-.8,5,.41,5.66,3.53.56,2.78,1.17,5.54,1.82,8.3,1.28,5.42,4.89,8.47,9,7.62,4.46-.92,7.37-6,5.81-11.1a42,42,0,0,1-.9-4.82c-1.36-7.3-1.36-7.35,6.23-9.4,15.75-4.25,31-9.74,45.2-17.7,32.34-18.14,53.33-44.51,61.69-80.05a12.51,12.51,0,0,1,.42-1.95c.62-1.49.11-3.94,1.68-4.4,2.27-.67,2.78,2.18,3.72,3.39,14.16,18.24,18.85,39.08,15.44,61.29-4.41,28.68-21,50.08-45,66.63a188.75,188.75,0,0,1-37.17,20.12,250.51,250.51,0,0,1-52.16,14.56c-2.24.37-2.83-.65-3.86-2.17-3.38-5-9.27-5.21-12.77-.39C453,682.88,432,693.42,407.59,698.43c-27.7,5.68-55,4-81.3-6.49-15.81-6.3-29.34-15.8-39-29.82-3.74-5.41-9.57-5.78-13.39-.5-1.62,2.24-3.09,2.54-5.53,2-21.63-4.59-42.54-11.16-62.33-20.92-18.38-9.08-34.58-20.75-48.07-36-26.85-30.43-28.88-77.88-4.3-107.53C154.66,497.91,155.38,496.26,157.52,495.82Z"/><path class="cls-1" d="M239,273.08c-5.9-2.05-11.84-4-17.68-6.18a115.85,115.85,0,0,0-17.09-5c-1.64-.35-4.1-1.2-5.17.8a5.52,5.52,0,0,0,.72,5.71c5.55,8.05,10.87,16.27,16.85,24,2.82,3.64,3.39,6.67-.2,9.38s-7.09.69-9.28-2.28c-5.57-7.56-11.38-15.06-15.89-23.22-3.39-6.14-9.61-6.74-14.73-8.95-8.25-3.56-15.81-8.29-24-11.93-10.84-4.83-20-12.27-30.07-18.31-5.9-3.54-11.06-8.23-16.88-11.92a75.26,75.26,0,0,1-15.76-12.7c-8.54-9.39-13.13-20.84-17.71-32.18-4.09-10.13-7-20.75-10.86-30.93C55.1,133.1,51.3,116.33,47,99.7c-3.48-13.42-7-27-6.09-41.13.53-8.21,6.71-11.71,14.73-9.62,17.42,4.52,32.24,14.11,47.64,22.37a446.16,446.16,0,0,1,45.41,28.23c10.83,7.61,21.72,15.33,30.88,25.11a67.74,67.74,0,0,1,12.24,18.85,598.77,598.77,0,0,1,26.84,72.23c4.11,13.63,8.64,27.14,12.4,40.87.38,1.39,1.39,1.68,2.5,2.17q4.19,1.88,8.28,4c2.55,1.3,3.61,3.19,2.8,6.13S242.23,273.2,239,273.08Z"/><path class="cls-1" d="M722.58,61.39c-.76,14.77-3.48,25.27-5.67,35.86-3.82,18.49-10,36.35-15.82,54.29-4.77,14.76-9.88,29.56-16.65,43.52-4.74,9.77-10.58,19.23-20.17,26.34-13.71,10.18-27.77,19.84-42.36,28.66a277.09,277.09,0,0,1-48.39,23.37,7.75,7.75,0,0,0-4.44,3.71,181.4,181.4,0,0,1-15.14,22.33,25.08,25.08,0,0,1-1.71,1.87c-2.73,2.84-5.94,5.38-9.68,2.23-3.48-2.93-1.51-5.94.83-9.11,5.73-7.76,11-15.83,16.44-23.79,1.25-1.83,2.63-4,1.31-6s-3.91-1.24-5.73-.85A134.62,134.62,0,0,0,540.22,268c-6.25,2.16-12.4,4.54-18.79,6.34-3.27.92-5-.57-6-3-1.17-2.7-.68-5.2,2.36-6.65a4.85,4.85,0,0,1,1-.31C529.2,261.8,531,253.57,533,244.92c1.69-7.48,4.71-14.67,7.1-22q8.88-27.34,19.68-54c4.78-11.76,9.81-23.53,16.9-34.22,6.46-9.74,15.86-16.78,25.18-23.78a377.49,377.49,0,0,1,31.47-21c11-6.62,22.18-12.85,33.45-19C673.87,67,681.27,63.57,688.61,60c5.4-2.61,11.06-4.63,16.69-6.76C715.3,49.5,723.35,55.29,722.58,61.39Z"/></svg>