<svg id="Camada_1" data-name="Camada 1" xmlns="http://www.w3.org/2000/svg" viewBox="0 0 763.55 716.22"><defs><style>.cls-1{fill:#611d15;}.cls-2{fill:#3f4b50;}.cls-3{fill:#f5cc69;}</style></defs><path class="cls-1" d="M761.6,104.76a102.25,102.25,0,0,0-5-25.3c-2.15-6.55-6.1-10.84-13.36-12-6.57-1.06-13.11-1.06-19.71-1.36-9-.4-17.86.82-26.39,2.33a260.65,260.65,0,0,0-46.53,12.64A242.64,242.64,0,0,0,599.09,108,164,164,0,0,0,556,150.62c-9.77,14.22-17.42,29.58-24.39,45.39a515.22,515.22,0,0,0-18.42,49.06c-4.22,13-7.59,26.16-11,39.34-.88,3.38-1.77,3.1-4.21,1.34a127.75,127.75,0,0,0-11.21-6.87,196.07,196.07,0,0,0-72.63-24.22c-26.42-3.42-52.77-3.19-79,2.58a225.85,225.85,0,0,0-43.78,14,146.25,146.25,0,0,0-27.22,15.5c-1.79,1.32-3.07,2-3.71-1.26a100.39,100.39,0,0,0-3.8-14c-4.91-14-8.33-28.43-13.39-42.4-2.72-7.5-6.21-14.69-8.4-22.51-2.54-9.11-7.92-17.41-11.73-26.2a179.84,179.84,0,0,0-26.45-42.93c-21.47-26-49.29-43.82-80.48-55.93-27.27-10.58-55.59-16.86-86-15.7-2.34-.43-5.31.89-8.4,1.31C13,68.3,8.25,73.67,6,82.15c-4.75,18.1-5.71,36.52-4.3,55,.82,10.7,1.94,21.47,4.48,32,3.78,15.66,8.26,31.1,14.87,45.78A216.44,216.44,0,0,0,46,256.67c11.46,15.16,25.26,27.71,40.67,38.67a302.67,302.67,0,0,0,38.65,23.58c10.25,5.19,20.37,10.73,30.89,15.29,14.46,6.27,28.94,12.59,43.9,17.66,2.28.77,3.5,1.51,2,4.69a290.62,290.62,0,0,0-14.33,38.13,360.66,360.66,0,0,0-8.8,36c-3,15.51-4.94,31.11-4.5,46.79.38,13.85,1.6,27.69,5.21,41.32,3.67,13.85,8.54,27.07,15.6,39.46,11.32,19.87,26.57,36.17,45.12,49.56a219.65,219.65,0,0,0,31.09,18.44c3.58,1.78,39.8,15.26,49.15,17.64,14.34,3.66,28.94,5,43.59,6.26,11.77,1,23.55.06,35.31,0,13-.08,25.28-3.24,37.86-4.92,10.06-1.35,19.81-5.22,29.58-8.34,3.08-1,24-10.29,26.61-11.53A166.1,166.1,0,0,0,526,605.76c13.49-10.64,25.64-22.72,35.53-37.06a150.57,150.57,0,0,0,24.18-56.82,202.69,202.69,0,0,0,3.43-42.48,209.73,209.73,0,0,0-4-37.65,351.18,351.18,0,0,0-23.67-75.62c-1.57-3.52-.79-4.5,2.43-5.7,11.73-4.34,23.51-8.6,35-13.55s22.85-10.89,34.32-16.22a279.61,279.61,0,0,0,60.3-38.33c13.23-10.9,23.92-24.1,33.49-38.15,4.77-7,8.45-14.81,12.15-22.48a233.93,233.93,0,0,0,10.89-25.17c1.92-5.53,3.19-11.38,4.74-17.08A228.2,228.2,0,0,0,762.31,129,233.62,233.62,0,0,0,761.6,104.76Zm-721,115.59c-4.35-2.31-4.6-7.2-6.72-10.81-4.85-8.24-7.71-17.55-9.77-26.65-1.8-7.91-4.08-15.8-5.71-23.78a87.39,87.39,0,0,1-2-14c-.28-7.57-1.42-15.11-.7-22.85.53-5.74,1.13-11.85.18-17.65-1.32-8.07,2-15.08,4.1-22.38.6-2.11,3.15-3.06,5.47-3.1,9.78-.18,19.67-1.34,29.27,1,11.94,2.91,24.38,3.2,36.06,7.44,13.31,4.84,26.81,9.22,39.57,15.37,7.06,3.4,13.27,8.55,20.25,12.15,5.06,2.61,8.87,6.44,13.08,10,3,2.56,1.48,3.14-1.12,3.39-5.75.54-11.26,2.27-17.06,2.85a51.08,51.08,0,0,0-18.23,5.47c-5.07,2.61-10.66,3.53-15.73,6.34-10.75,6-21.38,11.89-30.53,20.3C69.36,174.19,59.15,186.14,51.49,200,47.82,206.67,44.1,213.33,40.63,220.35ZM85.5,273.28c-1.07,2.57-2,2.7-4,1a169.05,169.05,0,0,1-33.58-38.58c-1.69-2.69-.9-5.16,0-7.66a138.73,138.73,0,0,1,39-58C111,148.62,139.36,138,171.39,136.58c1.25-.06,2.5-.28,3.75-.43,1.93-.17,3.19.79,4.45,2.16,10.9,11.89,19.42,25.41,27.22,39.44,1.45,2.61.64,3.44-2.17,3.85-25.66,3.75-49.29,12.58-70,28.4a151,151,0,0,0-42.83,50.1C89.49,264.4,87.36,268.8,85.5,273.28Zm582.44,11c-8,5.14-16.14,9.93-24.41,14.59-4.82,2.71-10.11,4.8-14.63,8.6-4.84,4.07-11.61,5.83-17.49,8.68-9,4.38-18.63,7.54-28,11-7.61,2.86-14.36,7.85-23,8.9-5.23.64-10.29,4.27-15,7.27-3.47,2.22-2.88,6.6-1.24,9.42,4.59,7.91,6.75,16.75,10.38,25a188.87,188.87,0,0,1,11.47,35c2.49,11.22,5.53,22.31,7.1,33.84,1.8,13.22,1,26.31,1.43,39.44.39,13.64-4,26.39-7.23,39.4-3.08,12.36-9.57,22.92-16.47,33.15-4.77,7.06-10.72,13.39-16.6,19.74-9,9.67-19.18,17.32-29.85,24.59-7.72,5.26-16.14,9.33-24.65,13.21-14,6.35-28.84,9.88-43.51,13.93a141.66,141.66,0,0,1-27.76,4.25c-4.06.28-8,1.68-11.47,1-12.6.37-24.58,1.23-36.4-.17-13.46-1.59-27-2.75-40.12-6.82-6.09-1.89-12.47-2.82-18.64-4.48-3.28-.88-6.82-1.81-9.47-3.76-5-3.7-11.15-4.86-16.55-7.66-4.82-2.51-10-4.93-14.9-7.44-7.47-3.81-13.84-9.3-20.34-14.52-6.19-5-11.44-10.91-17-16.54-9.14-9.26-15.3-20.35-21-31.75-6.7-13.26-10.36-27.59-12.92-42-2.16-12.2-1.64-24.74-1.14-37.13.45-11.43,1.63-22.81,4.58-33.9,2.38-8.93,4.11-18,7.11-26.82,1.42-4.17,3-8.35,4.26-12.62a157.41,157.41,0,0,1,10.2-25.76,41,41,0,0,0,3.88-10.83c1.29-7.45-2.28-12.23-10.88-13.87-8-1.52-15-5.43-22.35-8.3-9.09-3.53-18-7.46-27-11.35a190.85,190.85,0,0,1-18.62-9.26c-5.25-3-11.09-4.94-16.29-8.15-9-5.55-18.16-10.79-27-16.49-3.5-2.25-3.7-5.37-2.3-9.78,3.52-11.06,9.91-20.36,16.53-29.5,3.57-4.93,8.18-9.27,12.17-13.84,5.53-6.35,12.52-10.61,18.47-16.23,5.07-4.8,11.44-8.11,17.65-11.45,8.66-4.68,17.94-7.8,27.15-11.11a30.81,30.81,0,0,1,8.78-1.45c4-.22,8-.27,11.78-2.23a4.77,4.77,0,0,1,6.74,2.62c3.13,9.17,8.74,17.34,10.74,26.91.62,3,2.87,4.92,3.78,7.81,2.57,8.12,5.35,16.2,8.28,24.22,3.08,8.48,4.77,17.46,7.14,26.2,2.16,8,4.21,16,6.69,23.85,2.09,6.64,6.74,7.13,12.51,3,6.8-4.91,14.41-8.7,21.5-13.24,7.33-4.69,15.44-7.86,23.22-11.53,4.87-2.29,10.58-3.46,16-4.89,8.62-2.29,17.34-4.31,26.1-6,15.39-2.92,31-2.46,46.51-1.88,15,.57,29.6,3.63,44,7.5,6.51,1.75,12.68,4.86,19.11,6.67,8.83,2.48,15.71,8.35,23.91,11.84,5.93,2.52,11.15,6.81,16.5,10.59,6.64,4.7,13.05,2.39,14.6-5.62a343.51,343.51,0,0,1,10.93-43c3.27-9.78,5.49-19.91,9.47-29.44,4.76-11.36,9.52-22.72,14.53-34,1.8-4,6.49-3,9.07-2.44,9.67,2.11,19.35,4.07,28.77,7.64,6.54,2.49,13,5.21,19.2,8.27,6.56,3.25,12.14,8.44,18.3,12.55,11.39,7.6,20.16,18,28.3,28.57a102.17,102.17,0,0,1,13.59,23.71,77.8,77.8,0,0,1,3.58,9.59C670.3,281.62,669.91,283,667.94,284.23Zm46.95-46.39a156,156,0,0,1-33.17,37c-2.39,1.92-3,1.13-3.84-1.12-6.59-16.58-16.19-31.05-28-44.55-24.64-28.07-55.57-43.34-92-48.63-3.08-.45-3.37-1.35-2-3.81,7.87-13.83,16.41-27.16,27.72-38.52,2.24-2.26,4.49-3.94,6.84-3.15,52.22,3.48,90.49,27.51,115.67,72.14a86.69,86.69,0,0,1,9.75,24.4A7.62,7.62,0,0,1,714.89,237.84Zm28.66-72.14c-4,18.27-9.79,36.06-18.25,52.86-.6,1.19-1.2,2.95-2.74,3-2,0-2.11-2-2.59-3.43-4.09-12-10.44-22.89-17.75-33.09-4.83-6.75-11.08-12.48-16.74-18.62-11.67-12.63-25.91-21.37-41.32-27.94-10.49-4.47-21.36-8.87-33.18-9.35-2.69-.11-5.33-1.22-8-1.58-3.84-.5-3.35-2.94-1.36-4.32,6.1-4.25,11.78-9.12,18.48-12.51s12.95-7,19.6-10.21a183.72,183.72,0,0,1,35.54-13.1c7-1.72,14.26-2.68,21.29-4.41a126.05,126.05,0,0,1,41.19-2.88c4.29.37,6.92,1.87,7.89,6.78a148.69,148.69,0,0,1,2.76,32.31C749.15,132.32,747.21,149.15,743.55,165.7Z"/><path class="cls-2" d="M397.13,635.3c-12.6.37-24.58,1.23-36.4-.17-13.46-1.59-27-2.75-40.12-6.82-6.09-1.89-12.47-2.82-18.64-4.48-3.28-.88-6.82-1.81-9.47-3.76-5-3.7-11.15-4.86-16.55-7.66-4.82-2.51-10-4.93-14.9-7.44-7.47-3.81-13.84-9.3-20.34-14.52-6.19-5-11.44-10.91-17-16.54-9.14-9.26-15.3-20.35-21-31.75-6.7-13.26-10.36-27.59-12.92-42-2.16-12.2-1.64-24.74-1.14-37.13.45-11.43,1.63-22.81,4.58-33.9,2.38-8.93,4.11-18,7.11-26.82,1.42-4.17,3-8.35,4.26-12.62a157.41,157.41,0,0,1,10.2-25.76,41,41,0,0,0,3.88-10.83c1.29-7.45-2.28-12.23-10.88-13.87-8-1.52-15-5.43-22.35-8.3-9.09-3.53-18-7.46-27-11.35a190.85,190.85,0,0,1-18.62-9.26c-5.25-3-11.09-4.94-16.29-8.15-9-5.55-18.16-10.79-27-16.49-3.5-2.25-3.7-5.37-2.3-9.78,3.52-11.06,9.91-20.36,16.53-29.5,3.57-4.93,8.18-9.27,12.17-13.84,5.53-6.35,12.52-10.61,18.47-16.23,5.07-4.8,11.44-8.11,17.65-11.45,8.66-4.68,17.94-7.8,27.15-11.11a30.81,30.81,0,0,1,8.78-1.45c4-.22,8-.27,11.78-2.23a4.77,4.77,0,0,1,6.74,2.62c3.13,9.17,8.74,17.34,10.74,26.91.62,3,2.87,4.92,3.78,7.81,2.57,8.12,5.35,16.2,8.28,24.22,3.08,8.48,4.77,17.46,7.14,26.2,2.16,8,4.21,16,6.69,23.85,2.09,6.64,6.74,7.13,12.51,3,6.8-4.91,14.41-8.7,21.5-13.24,7.33-4.69,15.44-7.86,23.22-11.53,4.87-2.29,10.58-3.46,16-4.89,8.62-2.29,17.34-4.31,26.1-6,15.39-2.92,31-2.46,46.51-1.88,15,.57,29.6,3.63,44,7.5,6.51,1.75,12.68,4.86,19.11,6.67,8.83,2.48,15.71,8.35,23.91,11.84,5.93,2.52,11.15,6.81,16.5,10.59,6.64,4.7,13.05,2.39,14.6-5.62a343.51,343.51,0,0,1,10.93-43c3.27-9.78,5.49-19.91,9.47-29.44,4.76-11.36,9.52-22.72,14.53-34,1.8-4,6.49-3,9.07-2.44,9.67,2.11,19.35,4.07,28.77,7.64,6.54,2.49,13,5.21,19.2,8.27,6.56,3.25,12.14,8.44,18.3,12.55,11.39,7.6,20.16,18,28.3,28.57a102.17,102.17,0,0,1,13.59,23.71,77.8,77.8,0,0,1,3.58,9.59c.55,2.12.16,3.47-1.81,4.73-8,5.14-16.14,9.93-24.41,14.59-4.82,2.71-10.11,4.8-14.63,8.6-4.84,4.07-11.61,5.83-17.49,8.68-9,4.38-18.63,7.54-28,11-7.61,2.86-14.36,7.85-23,8.9-5.23.64-10.29,4.27-15,7.27-3.47,2.22-2.88,6.6-1.24,9.42,4.59,7.91,6.75,16.75,10.38,25a188.87,188.87,0,0,1,11.47,35c2.49,11.22,5.53,22.31,7.1,33.84,1.8,13.22,1,26.31,1.43,39.44.39,13.64-4,26.39-7.23,39.4-3.08,12.36-9.57,22.92-16.47,33.15-4.77,7.06-10.72,13.39-16.6,19.74-9,9.67-19.18,17.32-29.85,24.59-7.72,5.26-16.14,9.33-24.65,13.21-14,6.35-28.84,9.88-43.51,13.93a141.66,141.66,0,0,1-27.76,4.25C404.54,634.62,400.57,636,397.13,635.3ZM377.81,494.58c14.06,0,15.8-.55,24.87-5.91,5.59-3.3,11.2-7.29,14.58-12.29,3.73-5.51,7.43-11.33,10.88-17.12,6.86-11.52,10-24.08,13.17-36.66,3.23-12.77,2.1-26,2.12-39.09,0-9.24-2-18.37-4.56-26.91-2.29-7.66-4.6-15.62-8.65-23-7.28-13.25-15.83-25-29.09-32.7-8.1-4.7-17.39-6.5-26.05-4.57-11.14,2.48-20.05,9.8-27.35,18.8a113.79,113.79,0,0,0-19.13,35.56A121.8,121.8,0,0,0,322.79,382c-.92,14.69-1.49,29.48,2.59,43.92,3.19,11.28,4.47,23.08,10.26,33.64,5.22,9.52,10.86,18.35,19.51,25.43C363.1,491.49,371.77,494.21,377.81,494.58Z"/><path class="cls-2" d="M40.63,220.35c-4.35-2.31-4.6-7.2-6.72-10.81-4.85-8.24-7.71-17.55-9.77-26.65-1.8-7.91-4.08-15.8-5.71-23.78a87.39,87.39,0,0,1-2-14c-.28-7.57-1.42-15.11-.7-22.85.53-5.74,1.13-11.85.18-17.65-1.32-8.07,2-15.08,4.1-22.38.6-2.11,3.15-3.06,5.47-3.1,9.78-.18,19.67-1.34,29.27,1,11.94,2.91,24.38,3.2,36.06,7.44,13.31,4.84,26.81,9.22,39.57,15.37,7.06,3.4,13.27,8.55,20.25,12.15,5.06,2.61,8.87,6.44,13.08,10,3,2.56,1.48,3.14-1.12,3.39-5.75.54-11.26,2.27-17.06,2.85a51.08,51.08,0,0,0-18.23,5.47c-5.07,2.61-10.66,3.53-15.73,6.34-10.75,6-21.38,11.89-30.53,20.3C69.36,174.19,59.15,186.14,51.49,200,47.82,206.67,44.1,213.33,40.63,220.35Z"/><path class="cls-2" d="M748.34,119.17c.81,13.15-1.13,30-4.79,46.53-4,18.27-9.79,36.06-18.25,52.86-.6,1.19-1.2,2.95-2.74,3-2,0-2.11-2-2.59-3.43-4.09-12-10.44-22.89-17.75-33.09-4.83-6.75-11.08-12.48-16.74-18.62-11.67-12.63-25.91-21.37-41.32-27.94-10.49-4.47-21.36-8.87-33.18-9.35-2.69-.11-5.33-1.22-8-1.58-3.84-.5-3.35-2.94-1.36-4.32,6.1-4.25,11.78-9.12,18.48-12.51s12.95-7,19.6-10.21a183.72,183.72,0,0,1,35.54-13.1c7-1.72,14.26-2.68,21.29-4.41a126.05,126.05,0,0,1,41.19-2.88c4.29.37,6.92,1.87,7.89,6.78A148.69,148.69,0,0,1,748.34,119.17Z"/><path class="cls-3" d="M590.45,135.06c52.22,3.48,90.49,27.51,115.67,72.14a86.69,86.69,0,0,1,9.75,24.4,7.62,7.62,0,0,1-1,6.24,156,156,0,0,1-33.17,37c-2.39,1.92-3,1.13-3.84-1.12-6.59-16.58-16.19-31.05-28-44.55-24.64-28.07-55.57-43.34-92-48.63-3.08-.45-3.37-1.35-2-3.81,7.87-13.83,16.41-27.16,27.72-38.52C585.85,136,588.1,134.27,590.45,135.06Z"/><path class="cls-3" d="M175.14,136.15c1.93-.17,3.19.79,4.45,2.16,10.9,11.89,19.42,25.41,27.22,39.44,1.45,2.61.64,3.44-2.17,3.85-25.66,3.75-49.29,12.58-70,28.4a151,151,0,0,0-42.83,50.1c-2.27,4.3-4.4,8.7-6.26,13.18-1.07,2.57-2,2.7-4,1a169.05,169.05,0,0,1-33.58-38.58c-1.69-2.69-.9-5.16,0-7.66a138.73,138.73,0,0,1,39-58C111,148.62,139.36,138,171.39,136.58,172.64,136.52,173.89,136.3,175.14,136.15Z"/><path class="cls-1" d="M377.81,494.58c-6-.37-14.71-3.09-22.66-9.6-8.65-7.08-14.29-15.91-19.51-25.43-5.79-10.56-7.07-22.36-10.26-33.64-4.08-14.44-3.51-29.23-2.59-43.92a121.8,121.8,0,0,1,5.81-31.27,113.79,113.79,0,0,1,19.13-35.56c7.3-9,16.21-16.32,27.35-18.8,8.66-1.93,17.95-.13,26.05,4.57,13.26,7.7,21.81,19.45,29.09,32.7,4,7.35,6.36,15.31,8.65,23,2.55,8.54,4.58,17.67,4.56,26.91,0,13.08,1.11,26.32-2.12,39.09-3.17,12.58-6.31,25.14-13.17,36.66-3.45,5.79-7.15,11.61-10.88,17.12-3.38,5-9,9-14.58,12.29C393.61,494,391.87,494.61,377.81,494.58Zm57.34-99.53A135.17,135.17,0,0,0,433,369.26c-3.79-19.64-10.77-37.79-25.09-52.33-14.93-15.16-33.13-15.85-47.65-2A74.18,74.18,0,0,0,344,337.8c-11.87,25.88-15,53-10.95,81,2.77,19.25,8.48,37.33,21,52.74,11.66,14.33,28.82,18.61,43.19,10.39,9.12-5.22,15.61-13.15,20.82-22C429.77,439.91,435.11,418.17,435.15,395.05Z"/><path class="cls-3" d="M435.15,395.05c0,23.12-5.38,44.86-17.12,64.85-5.21,8.87-11.7,16.8-20.82,22-14.37,8.22-31.53,3.94-43.19-10.39-12.53-15.41-18.24-33.49-21-52.74-4-28-.92-55.11,10.95-81a74.18,74.18,0,0,1,16.33-22.89c14.52-13.83,32.72-13.14,47.65,2,14.32,14.54,21.3,32.69,25.09,52.33A135.17,135.17,0,0,1,435.15,395.05Zm-24.52-1a111.94,111.94,0,0,0-2.35-26.23c-2.06-10.4-5.37-20.38-12.8-28.41-7.05-7.61-15.66-8-23.19-.93-5.91,5.56-8.88,12.9-11.24,20.42-5.19,16.56-6.51,33.6-5.33,50.81.88,12.92,3.37,25.54,10.41,36.77,6.24,10,14.8,13.38,23.27,9.2,5.15-2.53,8.48-6.91,11.06-11.86C408.6,428.18,410.09,411.2,410.63,394Z"/><path class="cls-1" d="M410.63,394c-.54,17.17-2,34.15-10.17,49.77-2.58,4.95-5.91,9.33-11.06,11.86-8.47,4.18-17,.77-23.27-9.2-7-11.23-9.53-23.85-10.41-36.77-1.18-17.21.14-34.25,5.33-50.81,2.36-7.52,5.33-14.86,11.24-20.42,7.53-7.09,16.14-6.68,23.19.93,7.43,8,10.74,18,12.8,28.41A111.94,111.94,0,0,1,410.63,394ZM364.82,416c1.55,9.06,3.31,18.4,8.6,26.46,2.78,4.25,9.31,7.46,12.25,5.31a21.85,21.85,0,0,0,6.32-6.88c6.62-11.76,8.31-24.89,9.58-37.86a106.41,106.41,0,0,0-2.36-34.23c-2-8.73-4.75-16.84-10.75-23.64-2.24-2.55-4.69-3.27-7.89-1.67-4.49,2.25-6.94,6-8.81,10.44-3.68,8.8-4.92,18.21-7.14,27.37C364.36,382.3,363.22,406.58,364.82,416Z"/><path class="cls-2" d="M364.31,385a16,16,0,0,1,.19-3.25c0-.17.07-.35.12-.52,2.22-9.16,3.46-18.57,7.14-27.37,1.87-4.46,4.32-8.19,8.81-10.44,3.2-1.6,5.65-.88,7.89,1.67,6,6.8,8.74,14.91,10.75,23.64A106.41,106.41,0,0,1,401.57,403c-1.27,13-3,26.1-9.58,37.86a21.85,21.85,0,0,1-6.32,6.88c-2.94,2.15-9.47-1.06-12.25-5.31-5.29-8.06-7.05-17.4-8.6-26.46C363.38,407.51,364.46,389.51,364.31,385Z"/></svg>