<svg id="Camada_1" data-name="Camada 1" xmlns="http://www.w3.org/2000/svg" viewBox="0 0 763.55 716.22"><defs><style>.cls-1{fill:#64291d;}.cls-2{fill:#f5dd99;}.cls-3{fill:#6ebd9a;}.cls-4{fill:#a2592e;}.cls-5{fill:#bed496;}</style></defs><path class="cls-1" d="M742.09,96.28c-3.78-11.41-7.76-22.94-15.17-32.72-4.3-5.67-9.33-5-12.41,1.4-1.37,2.84-3,5.57-4.56,8.29-9,15.37-21.07,28.3-33.41,40.91A476.35,476.35,0,0,1,637.68,150c-5.91,4.84-11.86,9.65-17.73,14.54-5.4,4.49-5.39,6.42-1.69,12.19,2.47,3.84,6.6,6.47,8.32,11.38-1.87,0-3.33.13-4.75,0q-13.29-1.4-26.55-2.89a9.55,9.55,0,0,0-6.8,1.79c-8.21,5.5-15.11,12.5-22.57,18.89-16.34,14-27.37,30.68-29.77,52.57a63.17,63.17,0,0,1-3.7,16.69c-2.35-1-2.7-3-3.48-4.59-3.15-6.33-6.18-12.72-9.24-19.09-4.05-8.43-6.8-9.59-15.21-5.12-8.62,4.58-16.93,9.77-25.37,14.69-.68.4-1.07,1.71-2.2.77-1-.8-.87-1.55-.46-2.82,1.47-4.53,3.12-9.1,3.68-13.78,1.45-12,2.06-24.12.37-36.23-3.93-28.18-15.14-52.55-37.6-70.75-17.3-14-37.44-20.59-59.57-22.66-18.84-1.76-37.1-.64-55,5.53-41.87,14.43-65.33,44-72.16,87.42-.57,3.62.21,6.57,2.84,8.41s5.87,1,8.44-.74c8.72-6.07,18.66-9,28.86-11,14.42-2.89,28.86-3.17,43.12,1.18,1.5.45,3.72.43,4,2.44.21,1.59-1.64,2.34-2.74,3.23a166.22,166.22,0,0,0-43,52.36c-1.59,3-3,3.74-6.22,1.29-10.3-7.95-20.93-15.48-32.43-21.67-9.29-5-11.14-4.5-16.22,4.76-4.23,7.69-8.2,15.52-12.9,24.44-1.08-5.62-2-10-2.77-14.47-2.59-14.85-4.7-29.72-15.31-41.82-7.76-8.84-16.34-16.82-24.32-25.4-9-9.73-19.51-12.53-32.17-9.72-4.66,1-9.54,1.14-14.33,1.5-1.14.08-2.77.68-3.39-1.06-.5-1.42,1-1.83,1.62-2.62,2.13-2.59,4.42-5.05,6.53-7.66,4.21-5.22,4-8-1.06-12.33-17.92-15.39-35.64-31-51.89-48.2C77.06,94.6,61.44,77.7,51.49,56.44c-2.5-5.33-7.23-5.55-11-1.13-4.8,5.59-8,12.09-10.91,18.73-11.07,25.61-17.92,52.39-22,80-3.12,21.12-4.4,42.24-1.54,63.5.67,5,2.33,8.29,8.13,8.79,4.07.35,8.13.9,12.23,1,4.42.11,8.82.29,13.76,3-7.94,5.4-15.26,10.6-22.83,15.42-3,1.91-4.36,4-4.36,7.63,0,9,1.48,17.79,2.49,26.67,2.37,20.91,5.06,41.75,10.23,62.22,1.5,5.93,4.87,10.28,9.06,14.27C45.59,366.85,57.88,375.4,70,384.18c25.45,18.55,51.79,35.82,78,53.26,1.49,1,4.15,1.41,4,3.49-.23,2.41-3.09,2.16-4.88,2.94a58.5,58.5,0,0,0-18.16,11.78c-4.49,4.44-3.75,9.68,2,12a87.48,87.48,0,0,1,23.69,14.62c13.83,11.7,26.24,24.51,28.85,43.65,1.21,8.91,3.93,17.47,6.91,25.8a151.32,151.32,0,0,0,41.45,62,165.22,165.22,0,0,0,33.81,23.59c2.4,1.28,18.45,8.9,22.43,10.61,9.61,4.13,19.93,6.19,29.86,9.34,12.87,4.08,60.62,6.8,65.27,6.78,27.8-.1,55-4.12,81.21-13.37,3.05-1.08,19.52-7.42,21.08-8.31,7.12-4.05,14.23-8.12,21.27-12.3,1.21-.72,25.29-20.21,24.15-20.08,20.62-20.5,33.58-44.43,41-71.54,2.21-8,2.67-16.56,7-24,10.81-18.82,26.84-31.85,46.42-40.25,9.24-4,8.09-11.06,2.19-15.65a67.37,67.37,0,0,0-17.23-10.25c-4.07-1.55-4.36-2.75-.69-5.08,9.41-6,18.72-12.11,28.13-18.09,28.39-18,56.65-36.29,83.22-57,7.32-5.69,13.16-12.39,15.13-22,2.48-12.21,5.22-24.36,7.24-36.67q3.7-22.61,6.32-45.35c.6-5.23-1-8.74-5.62-11.56-6-3.69-11.62-8.05-17.36-12.19-1-.69-2.74-1.1-2.23-2.71.42-1.32,2-1.44,3.29-1.66a120.51,120.51,0,0,1,19.45-1.53c6.43-.06,9.15-2.59,10-8.82.61-4.43,1.17-8.87,1.47-13.33C761.2,172.43,754.54,133.89,742.09,96.28ZM721,82.62c2.54.32,2.75,3.37,4.13,6.46-3-1.16-4.73-2.15-7-1.6C718.62,85.14,719.48,82.43,721,82.62ZM280.69,195.05c-2.19.65-4.77,2.9-6.73.89s.22-4.6,1.06-6.73c14.58-36.75,42.1-56.14,81-60,5-.49,10.05-.54,15.08-.79,19.38.33,37.93,4.3,54.45,14.52,29,17.92,40.77,45.54,42.1,78.51,1.27,31.41-11.27,57.62-30.9,81.1-12.53,15-27.22,28.16-37.51,45-11.52,18.88-19.59,38.87-20.58,61.28-.1,2.33.77,5.81-1.29,6.7-2.35,1-3.89-2.26-5.44-3.95-21.74-23.73-28.06-51.28-21-82.52,5.42-23.91,13.83-46.81,22.09-69.78,3.74-10.43,7-20.94,4.79-32.21-3.53-18.14-15.58-28.3-32.34-33.55C323.81,186.74,302.18,188.65,280.69,195.05Zm463.8,21.19c-.41,3.51-2.19,4.63-5.56,4.72-7.63.21-15.25.5-22.25,4.33-10.17,5.58-11.49,15.71-2.48,23.08,5.75,4.71,12.08,8.71,18.08,13.13,1.7,1.25,3.67,2.16,3.32,5.2-2.41,20.36-5.19,40.65-9.66,60.68-1,13.45-5,24.78-16.94,33.34-20.81,14.84-42.13,28.91-63.21,43.32a25.12,25.12,0,0,1-4,1.83c-13,9.66-27.17,17.64-40.67,26.59q-7,4.65-14.14,9.06c-2.77,1.71-4.58,4-4.17,7.3.44,3.61,3,5.36,6.31,6.26,7.88,2.11,15.49,4.83,22.79,9.91-10.86,6.53-20.61,13.55-29.13,22.17-11,11.09-19,23.64-22.11,39.32-7.07,35.45-25,64.37-53.8,86.31-23.62,18-50.61,28.52-79.71,33.36-49.78,8.3-98.64,5.44-145.09-15.88-43.66-20-74.06-52.74-83.45-100.42-6-30.33-23.51-49.89-47-66.56-1.46-1-3.42-1.49-4.48-3.82a70.49,70.49,0,0,1,20.47-8.34c3.78-.87,7.48-1.89,8.25-6.34s-2.2-6.73-5.45-8.89c-14-9.29-27.82-18.76-41.92-27.85-2.74-1.78-5.75-3.05-7.76-5.76-17.93-11.23-35-23.73-52.19-36-5.57-4-10.69-8.6-16.41-12.32-12.52-8.15-16.65-20.19-16.87-34.28C31.64,305,30.5,289.91,28.43,275a10.74,10.74,0,0,0-.13-2.22c-4.76-12.52.51-20.32,11.68-25.7a42.86,42.86,0,0,0,8.58-6.19c9.11-7.72,7.85-17.45-2.69-23.41-6.83-3.86-14.42-3.4-21.75-4.23-3.74-.43-5.14-1.67-5.39-5.4-1.19-17.56.07-35,2.37-52.38.45-3.35,1.64-4.53,5.12-3.37,6.35,2.11,12.85,3.8,19.23,5.85,3.16,1,6.33,1.28,7.6-2.17,1.38-3.72-1.76-5.35-4.69-6.29-6.56-2.1-13.16-4.1-19.8-5.9-3.86-1-5.39-2.51-4.23-7,4-15.32,7.28-30.82,13.15-45.6a16.71,16.71,0,0,1,3.15-5.54C42.88,89.89,43,94.62,43.29,99c.9,13.87,6.11,26.58,9.9,39.65C57.84,154.67,66,169,76,182.25A17.92,17.92,0,0,1,79.73,196c-3,29.38.09,58.37,6.71,87.05.38,1.63.59,3.3.88,4.95,2.45,6.38,4.77,12.81,7.37,19.13,9.53,23.16,26.34,40.74,44.16,57.55,2.55,2.42,5.08,4.87,7.62,7.3a5.24,5.24,0,0,1,2.82,2.4l.65,1.1c7.58,3.76,13.32,10,20,14.95,12.77,9.39,25.76,18.43,39.37,26.56,2.43,1.46,5,3.93,8.15,1.68,2.93-2.06,1.61-5.11,1.29-7.75-2.14-17.76-7.69-34.74-11.87-52-1.51-6.28-4.06-12.31-4.7-18.81l.13-.12c-1.29-.45-1.09-1.55-1.13-2.55q-7.29-20.24-14.58-40.49c-6.27-17.3-16.36-32.13-29.26-45.14-1-1-2.27-2-2.51-3.61-25.46-22.71-53.22-42.88-72.54-72a183.27,183.27,0,0,1-28.21-69.76C52.89,99.5,50.6,92.75,51.3,85.05,55,87.35,56.67,91,59,93.91c20.33,25.66,44.21,47.78,68.78,69.2,3.65,3.18,3.69,5.12.55,8.42-4.49,4.71-8.59,9.79-12.84,14.72-2.35,2.73-3.55,5.65-1.65,9.19s4.91,4,8.55,3.6c13.69-1.37,27.4-2.52,41.09-3.86,4.28-.42,7.75.34,11.1,3.53,8.61,8.2,17.82,15.78,24.87,25.5,7.67,6.52,10.57,15.43,12.33,24.87,4.47,24.12,7.22,48.48,10,72.82a24.46,24.46,0,0,1-.34,6.63,290.8,290.8,0,0,1,3.77,33.72c.52,8.05.93,16.12,1.63,24.15.32,3.66,2.55,7.66,7.09,6.88,3.89-.67,6.71-3.46,6.7-8.19-.06-17.76-2.36-35.35-3.91-53-.71-8.18-1.67-16.33-2.77-24.47a24.07,24.07,0,0,1,2-14.06c5.16-11,10.25-21.95,15.77-32.75,1.67-3.27,2.83-4,6.12-1.83,9.7,6.3,19.28,12.75,28.58,19.64,2.85,2.11,3.45,3.92,2.37,7.44-9.09,29.75-5.72,58.25,9.4,85.36,3,5.44,5.9,6.56,10,4,4.33-2.73,4.22-6.26,1.85-10.58-13.49-24.58-16.81-50.41-7.66-77.11,9.59-28,27.53-50,50.66-68.11,4.18-3.27,6.32-2.17,8.44,2.05,4.05,8,4,16.29,1.27,24.5-5.65,17-11.91,33.77-17.43,50.8-6,18.66-11.21,37.69-11.07,57.46.22,32.41,15.7,57.56,39.4,78.32a123.87,123.87,0,0,0,11.67,8.64,6.34,6.34,0,0,0,8.27-.43,6.79,6.79,0,0,0,2.17-7.59c-7.15-23-1.79-44.36,8-65.21,6.18-13.12,14.64-24.67,24.46-35.27,10.24-11.06,20.45-22.15,30-35.36,3.63,12,3.89,23.16,2.5,34.41A87.8,87.8,0,0,1,448.26,367c-.19.32-.42.62-.6.95-2.59,4.49-2,8.55,1.49,10.85s7.15.92,10.17-3.82a100.7,100.7,0,0,0,13.46-32.39c3.89-17.48,3.33-34.84-2.51-51.86-.93-2.71-1.36-4.64,1.34-6.74a356.29,356.29,0,0,1,33.62-22.73c2.14-1.3,3.36-1.06,4.71,1.38a242.22,242.22,0,0,1,17.81,39.76c2.13,6.27-.93,13.22-1.62,19.86-1.72,16.33-3.86,32.61-5.58,48.93-.54,5.15-2.34,10.07-2.08,15.37.3,5.89,2.63,9.41,7.28,9.18,5.13-.25,6.61-3.74,7-8.38,1.52-16.33,3.25-32.65,5-49,.2-1.84.74-3.65,1.12-5.47,1.56-17.43,4.51-34.68,7.12-52,1.76-11.6,4.11-23.07,6.79-34.49,1.92-8.15,6.48-14.5,12.6-19.92,7.69-9.71,17.18-17.5,26.64-25.34,3.69-3.06,8-1.27,11.88-.93,12.43,1.09,24.82,2.72,37.2,4.4,3.89.53,7,.15,9.13-3.5s.53-6.88-1.77-9.72c-4.34-5.35-8.71-10.68-13.31-15.8-2.07-2.3-2.23-3.83.24-5.86,28.27-23.22,55-48,78-76.61.17-.22.64-.22,1.48-.47-.77,12.09-3.7,23.6-6.79,35-11.12,40.9-35.42,72.85-68.07,99.06-10.88,8.73-21.44,17.87-32.14,26.82-7.42,8.54-15.66,16.44-21.64,26.14-11.43,18.55-18.1,39.15-25.19,59.55-.76,2.18-.48,4.92-3,6.28-1.61,12.23-6.5,23.59-9.5,35.46-2.88,11.36-5.77,22.71-8,34.23-.5,2.6-1,5.35,1.6,7.12s4.39-.14,6.56-1.29c20.73-11.05,39.42-25.11,58.26-39,16-13,31.5-26.71,44.21-43.1,8-10.26,15.13-21,18.13-34.1.95-4.16,3.74-7.9,5.69-11.83,1.81-8.9,3.85-17.77,5.39-26.72,3.91-22.65,5.77-45.43,3.38-68.39-.37-3.53,2-5.53,3.63-7.83,9.53-13.37,18.25-27.19,23.78-42.76C717.73,129,721.9,110,725,89.77c6.76,15.37,10.28,30.73,13.67,46.12,2.88,13.11,2.85,13.1-9.68,17-4.09,1.28-8.13,2.75-12.24,4-3.31,1-6.48,2.24-5,6.39,1.31,3.68,4.32,3,7.49,2,6.57-2.07,13.29-3.65,19.91-5.59,2.63-.77,3.65-.06,4,2.67C745.57,180.24,746.61,198.19,744.49,216.24ZM87.3,204.46c-.09-1.85.93-2.7,3.27-3.33a10.65,10.65,0,0,0,.92,1.59c11.88,14.88,27.21,26.12,41.49,38.37,13,11.14,25.08,23,34.84,36.92,4.37,6.24,7.31,13.6,10.23,20.73a502.83,502.83,0,0,1,19.3,57.42c4,14.57,9.44,29,10.21,44.41.08,1.63,3,3.46.78,4.74-1.32.77-3.74-.74-5.46-2-10.17-7.31-20.8-14.06-30.51-21.93-17.45-14.16-34.31-29-49.38-45.8s-22.67-36.87-28.33-58.28c-4.49-17-5.73-34.31-7.2-51.61C86.87,218.73,87.64,211.55,87.3,204.46Zm588,33.2c-1.44,17.37-4,34.61-8.83,51.44a128.44,128.44,0,0,1-24.17,47.06c-7.22,8.81-14.84,17.31-23.44,24.53-17.38,14.58-34.5,29.64-54.45,40.88-3.84,2.16-6.93,5.52-11.13,7.16-1.54.6-3.41.86-2.67-1.56,3.4-11.07,5.31-22.5,8.64-33.6,4.51-15.06,9.36-30.05,14.61-44.8,5.79-16.27,11-33.11,21.63-47.26s23.13-25.93,36.73-36.87c14.68-11.81,29.5-23.46,42.63-38.6C677,217.21,676.11,227.5,675.26,237.66Z"/><path class="cls-2" d="M558,345.52c-1.61,12.23-6.5,23.59-9.5,35.46-2.88,11.36-5.77,22.71-8,34.23-.5,2.6-1,5.35,1.6,7.12s4.39-.14,6.56-1.29c20.73-11.05,39.42-25.11,58.25-39,7.5,5.54,15.67,10.08,22.24,17,3.17,3.35,6.6,7.88,12.57,6.77-13,9.66-27.17,17.64-40.67,26.59q-7,4.65-14.14,9.06c-2.77,1.71-4.58,4-4.17,7.3.44,3.61,3,5.36,6.31,6.26,7.88,2.11,15.49,4.83,22.79,9.91-10.86,6.53-20.61,13.55-29.13,22.17-11,11.09-19,23.64-22.11,39.32-7.07,35.45-25,64.37-53.8,86.31-23.62,18-50.61,28.52-79.71,33.36-49.78,8.3-98.64,5.44-145.09-15.88-43.66-20-74.06-52.74-83.45-100.42-6-30.33-23.51-49.89-47-66.56-1.46-1-3.42-1.49-4.48-3.82a70.49,70.49,0,0,1,20.47-8.34c3.78-.87,7.48-1.89,8.25-6.34s-2.2-6.73-5.45-8.89c-14-9.29-27.82-18.76-41.92-27.85-2.74-1.78-5.75-3.05-7.76-5.76,7-6,13.93-12.13,21.14-17.89,3.24-2.57,6.52-4.89,8.05-8.91,7.58,3.76,13.32,10,20,14.95,12.77,9.39,25.76,18.43,39.37,26.56,2.43,1.46,5,3.93,8.15,1.68,2.93-2.06,1.61-5.11,1.29-7.75-2.14-17.76-7.69-34.74-11.87-52-1.51-6.28-4.06-12.31-4.7-18.81,8.1-1.05,13.25-7,19.25-11.55a290.8,290.8,0,0,1,3.77,33.72c.52,8.05.93,16.12,1.63,24.15.32,3.66,2.55,7.66,7.09,6.88,3.89-.67,6.71-3.46,6.7-8.19-.06-17.76-2.36-35.35-3.91-53-.71-8.18-1.67-16.33-2.77-24.47a24.07,24.07,0,0,1,2-14.06c5.16-11,10.25-21.95,15.77-32.75,1.67-3.27,2.83-4,6.12-1.83,9.7,6.3,19.28,12.75,28.58,19.64,2.85,2.11,3.45,3.92,2.37,7.44-9.09,29.75-5.72,58.25,9.4,85.36,3,5.44,5.9,6.56,10,4,4.33-2.73,4.22-6.26,1.85-10.58-13.49-24.58-16.81-50.41-7.66-77.11,9.59-28,27.53-50,50.66-68.11,4.18-3.27,6.32-2.17,8.44,2.05,4.05,8,4,16.29,1.27,24.5-5.65,17-11.91,33.77-17.43,50.8-6,18.66-11.21,37.69-11.07,57.46.22,32.41,15.7,57.56,39.4,78.32a123.87,123.87,0,0,0,11.67,8.64,6.34,6.34,0,0,0,8.27-.43,6.79,6.79,0,0,0,2.17-7.59c-7.15-23-1.79-44.36,8-65.21,6.18-13.12,14.64-24.67,24.46-35.27,10.24-11.06,20.45-22.15,30-35.36,3.63,12,3.89,23.16,2.5,34.41A87.8,87.8,0,0,1,448.26,367c-.19.32-.42.62-.6.95-2.59,4.49-2,8.55,1.49,10.85s7.15.92,10.17-3.82a100.7,100.7,0,0,0,13.46-32.39c3.89-17.48,3.33-34.84-2.51-51.86-.93-2.71-1.36-4.64,1.34-6.74a356.29,356.29,0,0,1,33.62-22.73c2.14-1.3,3.36-1.06,4.71,1.38a242.22,242.22,0,0,1,17.81,39.76c2.13,6.27-.93,13.22-1.62,19.86-1.72,16.33-3.86,32.61-5.58,48.93-.54,5.15-2.34,10.07-2.08,15.37.3,5.89,2.63,9.41,7.28,9.18,5.13-.25,6.61-3.74,7-8.38,1.52-16.33,3.25-32.65,5-49,.2-1.84.74-3.65,1.12-5.47,2.49,2.88,5.9,4.51,9.16,6.17A88.36,88.36,0,0,1,558,345.52Z"/><path class="cls-3" d="M371.14,128.41c19.38.33,37.93,4.3,54.45,14.52,29,17.92,40.77,45.54,42.1,78.51,1.27,31.41-11.27,57.62-30.9,81.1-12.53,15-27.22,28.16-37.51,45-11.52,18.88-19.59,38.87-20.58,61.28-.1,2.33.77,5.81-1.29,6.7-2.35,1-3.89-2.26-5.44-3.95-21.74-23.73-28.06-51.28-21-82.52,5.42-23.91,13.83-46.81,22.09-69.78,3.74-10.43,7-20.94,4.79-32.21-3.53-18.14-15.58-28.3-32.34-33.55-21.72-6.81-43.35-4.9-64.84,1.5-2.19.65-4.77,2.9-6.73.89s.22-4.6,1.06-6.73c14.58-36.75,42.1-56.14,81-60C361.06,128.71,366.11,128.66,371.14,128.41Z"/><path class="cls-4" d="M674.81,206c2.17,11.17,1.3,21.46.45,31.62-1.44,17.37-4,34.61-8.83,51.44a128.44,128.44,0,0,1-24.17,47.06c-7.22,8.81-14.84,17.31-23.44,24.53-17.38,14.58-34.5,29.64-54.45,40.88-3.84,2.16-6.93,5.52-11.13,7.16-1.54.6-3.41.86-2.67-1.56,3.4-11.07,5.31-22.5,8.64-33.6,4.51-15.06,9.36-30.05,14.61-44.8,5.79-16.27,11-33.11,21.63-47.26s23.13-25.93,36.73-36.87C646.86,232.83,661.68,221.18,674.81,206Z"/><path class="cls-4" d="M90.57,201.13a10.65,10.65,0,0,0,.92,1.59c11.88,14.88,27.21,26.12,41.49,38.37,13,11.14,25.08,23,34.84,36.92,4.37,6.24,7.31,13.6,10.23,20.73a502.83,502.83,0,0,1,19.3,57.42c4,14.57,9.44,29,10.21,44.41.08,1.63,3,3.46.78,4.74-1.32.77-3.74-.74-5.46-2-10.17-7.31-20.8-14.06-30.51-21.93-17.45-14.16-34.31-29-49.38-45.8s-22.67-36.87-28.33-58.28c-4.49-17-5.73-34.31-7.2-51.61-.59-7,.18-14.17-.16-21.26C87.21,202.61,88.23,201.76,90.57,201.13Z"/><path class="cls-3" d="M675,293.05c1.81-8.9,3.85-17.77,5.39-26.72,3.91-22.65,5.77-45.43,3.38-68.39-.37-3.53,2-5.53,3.63-7.83,9.53-13.37,18.25-27.19,23.78-42.76C717.73,129,721.9,110,725,89.77c6.76,15.37,10.28,30.73,13.67,46.12,2.88,13.11,2.85,13.1-9.68,17-4.09,1.28-8.13,2.75-12.24,4-3.31,1-6.48,2.24-5,6.39,1.31,3.68,4.32,3,7.49,2,6.57-2.07,13.29-3.65,19.91-5.59,2.63-.77,3.65-.06,4,2.67,2.4,17.93,3.44,35.88,1.32,53.93-.41,3.51-2.19,4.63-5.56,4.72-7.63.21-15.25.5-22.25,4.33-10.17,5.58-11.49,15.71-2.48,23.08,5.75,4.71,12.08,8.71,18.08,13.13,1.7,1.25,3.67,2.16,3.32,5.2-2.41,20.36-5.19,40.65-9.66,60.68a6.81,6.81,0,0,1-2.12-.54q-23.07-15.12-46.08-30.35C676.58,295.72,675.91,294.22,675,293.05Z"/><path class="cls-3" d="M35.28,319.67C31.64,305,30.5,289.91,28.43,275a10.74,10.74,0,0,0-.13-2.22c-4.76-12.52.51-20.32,11.68-25.7a42.86,42.86,0,0,0,8.58-6.19c9.11-7.72,7.85-17.45-2.69-23.41-6.83-3.86-14.42-3.4-21.75-4.23-3.74-.43-5.14-1.67-5.39-5.4-1.19-17.56.07-35,2.37-52.38.45-3.35,1.64-4.53,5.12-3.37,6.35,2.11,12.85,3.8,19.23,5.85,3.16,1,6.33,1.28,7.6-2.17,1.38-3.72-1.76-5.35-4.69-6.29-6.56-2.1-13.16-4.1-19.8-5.9-3.86-1-5.39-2.51-4.23-7,4-15.32,7.28-30.82,13.15-45.6a16.71,16.71,0,0,1,3.15-5.54C42.88,89.89,43,94.62,43.29,99c.9,13.87,6.11,26.58,9.9,39.65C57.84,154.67,66,169,76,182.25A17.92,17.92,0,0,1,79.73,196c-3,29.38.09,58.37,6.71,87.05.38,1.63.59,3.3.88,4.95-13.46,8.48-26.9,17-40.39,25.41C43.19,315.75,39.82,318.82,35.28,319.67Z"/><path class="cls-3" d="M565.37,226.52c7.69-9.71,17.18-17.5,26.64-25.34,3.69-3.06,8-1.27,11.88-.93,12.43,1.09,24.82,2.72,37.2,4.4,3.89.53,7,.15,9.13-3.5s.53-6.88-1.77-9.72c-4.34-5.35-8.71-10.68-13.31-15.8-2.07-2.3-2.23-3.83.24-5.86,28.27-23.22,55-48,78-76.61.17-.22.64-.22,1.48-.47-.77,12.09-3.7,23.6-6.79,35-11.12,40.9-35.42,72.85-68.07,99.06-10.88,8.73-21.44,17.87-32.14,26.82a20.46,20.46,0,0,1-3.61-1.23c-11.89-6.77-23.73-13.61-35.61-20.39A5.94,5.94,0,0,1,565.37,226.52Z"/><path class="cls-3" d="M154.87,248.17c-25.46-22.71-53.22-42.88-72.54-72a183.27,183.27,0,0,1-28.21-69.76C52.89,99.5,50.6,92.75,51.3,85.05,55,87.35,56.67,91,59,93.91c20.33,25.66,44.21,47.78,68.78,69.2,3.65,3.18,3.69,5.12.55,8.42-4.49,4.71-8.59,9.79-12.84,14.72-2.35,2.73-3.55,5.65-1.65,9.19s4.91,4,8.55,3.6c13.69-1.37,27.4-2.52,41.09-3.86,4.28-.42,7.75.34,11.1,3.53,8.61,8.2,17.82,15.78,24.87,25.5-9,5-17.88,10.17-26.89,15.12C166.78,242.51,161.5,246.71,154.87,248.17Z"/><path class="cls-5" d="M675,293.05c.9,1.17,1.57,2.67,2.73,3.44q23,15.28,46.08,30.35a6.81,6.81,0,0,0,2.12.54c-1,13.45-5,24.78-16.94,33.34-20.81,14.84-42.13,28.91-63.21,43.32a25.12,25.12,0,0,1-4,1.83c-6,1.11-9.4-3.42-12.57-6.77-6.57-6.93-14.74-11.47-22.24-17,16-13,31.51-26.72,44.22-43.11,8-10.26,15.13-21,18.13-34.1C670.27,300.72,673.06,297,675,293.05Z"/><path class="cls-5" d="M35.28,319.67c4.54-.85,7.91-3.92,11.65-6.25C60.42,305,73.86,296.49,87.32,288c2.45,6.38,4.77,12.81,7.37,19.13,9.53,23.16,26.34,40.74,44.16,57.55,2.55,2.42,5.08,4.87,7.62,7.3a2.3,2.3,0,0,0,2.82,2.4c.21.37.43.73.65,1.1-1.53,4-4.81,6.34-8.05,8.91-7.21,5.76-14.11,11.9-21.14,17.89-17.93-11.23-35-23.73-52.19-36-5.57-4-10.69-8.6-16.41-12.32C39.63,345.8,35.5,333.76,35.28,319.67Z"/><path class="cls-5" d="M565.37,226.52a5.94,5.94,0,0,0,3.26,5.41c11.88,6.78,23.72,13.62,35.61,20.39a20.46,20.46,0,0,0,3.61,1.23c-7.42,8.54-15.66,16.44-21.64,26.14-11.43,18.55-18.1,39.15-25.19,59.55-.76,2.18-.48,4.92-3,6.28a88.36,88.36,0,0,0-10-6.45c-3.26-1.66-6.67-3.29-9.16-6.17,1.56-17.43,4.51-34.68,7.12-52,1.76-11.6,4.11-23.07,6.79-34.49C554.69,238.29,559.25,231.94,565.37,226.52Z"/><path class="cls-5" d="M154.87,248.17c6.63-1.46,11.91-5.66,17.68-8.84,9-5,17.93-10.07,26.89-15.12,7.67,6.52,10.57,15.43,12.33,24.87,4.47,24.12,7.22,48.48,10,72.82a24.46,24.46,0,0,1-.34,6.63c-6,4.54-11.15,10.5-19.25,11.55l.13-.12a2,2,0,0,0-1.13-2.55q-7.29-20.24-14.58-40.49c-6.27-17.3-16.36-32.13-29.26-45.14C156.34,250.74,155.11,249.78,154.87,248.17Z"/><path class="cls-3" d="M725.08,89.08c-3-1.16-4.73-2.15-7-1.6.51-2.34,1.37-5,2.84-4.86C723.49,82.94,723.7,86,725.08,89.08Z"/><path class="cls-2" d="M149.29,374.39a2.3,2.3,0,0,1-2.82-2.4A5.24,5.24,0,0,1,149.29,374.39Z"/><path class="cls-2" d="M201.22,337.41a2,2,0,0,1,1.13,2.55C201.06,339.51,201.26,338.41,201.22,337.41Z"/></svg>